<svg width="20" height="20" viewBox="0 0 20 20" fill="currentColor" xmlns="http://www.w3.org/2000/svg">
<g clip-path="url(#clip0_531_1238)">
<path fill-rule="evenodd" clip-rule="evenodd" d="M11.4286 1.42857H8.57142V0H11.4286V1.42857ZM11.4286 2.85714V1.42857H12.8571V2.85714H11.4286ZM12.8571 8.57142H14.2857V10H15.7143V11.4286H17.1429V12.8571H18.5714V10H20V20H12.8571V12.8571H11.4286V11.4286H8.57142V12.8571H7.14286V20H0V10H1.42857V12.8571H2.85714V11.4286H4.28572V10H5.71428V8.57142H7.14286V4.28572H8.57142V2.85714H11.4286V4.28572H12.8571V8.57142ZM8.57142 2.85714V1.42857H7.14286V2.85714H8.57142ZM15.7143 15.7143V17.1429H17.1429V15.7143H15.7143ZM2.85714 15.7143V17.1429H4.28572V15.7143H2.85714Z"/>
</g>
<defs>
<clipPath id="clip0_531_1238">
<rect width="20" height="20" fill="white"/>
</clipPath>
</defs>
</svg>
