<svg width="71" height="71" viewBox="0 0 69 69" fill="none" xmlns="http://www.w3.org/2000/svg">
<path d="M39.8868 1.93513L38.1238 1.72085L37.5635 6.33092L36.3087 6.17841L36.869 1.56834L35.106 1.35406L35.2358 0.285917L40.0167 0.866987L39.8868 1.93513Z" fill="#00D100"/>
<path d="M46.1234 8.6807L44.9504 8.20986L45.8116 6.06425L43.5918 5.17323L42.7306 7.31885L41.5575 6.84801L43.6882 1.53966L44.8612 2.0105L43.9956 4.16725L46.2154 5.05826L47.0811 2.90152L48.2541 3.37236L46.1234 8.6807Z" fill="#00D100"/>
<path d="M55.3574 7.70828L54.7101 8.56786L52.5628 6.95099L51.7941 7.97194L53.7561 9.44926L53.1425 10.2641L51.1805 8.78678L50.4166 9.80134L52.6215 11.4615L51.9742 12.3211L48.7596 9.9006L52.2003 5.33111L55.3574 7.70828Z" fill="#00D100"/>
<path d="M65.6179 20.9742L60.5429 23.613L59.9598 22.4916L64.0925 20.3427L59.2761 21.1767L58.6395 19.9523L62.0977 16.5019L57.9632 18.6516L57.404 17.5763L62.479 14.9375L63.4146 16.7368L60.1282 20.0191L64.7091 19.2264L65.6179 20.9742Z" fill="#00D100"/>
<path d="M61.5992 27.1078L61.3094 25.8775L66.8769 24.5658L67.1668 25.7961L61.5992 27.1078Z" fill="#00D100"/>
<path d="M62.5251 35.7022L62.5164 33.9082L67.0935 31.654L62.5056 31.6762L62.4997 30.4643L68.2196 30.4365L68.2289 32.3485L63.9212 34.4834L68.2391 34.4625L68.245 35.6745L62.5251 35.7022Z" fill="#00D100"/>
<path d="M65.6583 44.267L66.1161 42.551L61.629 41.354L61.9548 40.1327L66.4418 41.3297L66.8996 39.6137L67.9393 39.891L66.6979 44.5443L65.6583 44.267Z" fill="#00D100"/>
<path d="M57.6429 50.1613L58.3824 49.1362L63.0214 52.4826L62.2819 53.5077L57.6429 50.1613Z" fill="#00D100"/>
<path d="M57.867 58.8751C57.5959 59.1239 57.3224 59.315 57.0468 59.4485C56.7702 59.5828 56.4999 59.658 56.2359 59.674C55.9718 59.6918 55.7184 59.6502 55.4755 59.5492C55.2335 59.4491 55.0115 59.289 54.8096 59.0689L55.7028 58.2496C55.7965 58.3518 55.9015 58.4238 56.0176 58.4656C56.1337 58.5093 56.2562 58.5245 56.3851 58.5112C56.5149 58.4988 56.6473 58.4588 56.7824 58.391C56.9174 58.3232 57.0508 58.2289 57.1824 58.1081C57.2915 58.0081 57.3872 57.8994 57.4697 57.7822C57.552 57.6668 57.6127 57.5506 57.6518 57.4333C57.6898 57.317 57.7022 57.2034 57.6891 57.0924C57.675 56.9823 57.6273 56.8831 57.5462 56.7946C57.4696 56.7111 57.3868 56.6613 57.2979 56.6452C57.2088 56.631 57.1092 56.6437 56.999 56.6833C56.8878 56.7238 56.7633 56.7873 56.6255 56.8739C56.4868 56.9613 56.33 57.0645 56.155 57.1834L55.9596 57.3165C55.8594 57.3849 55.7555 57.454 55.6477 57.5239C55.5408 57.5948 55.4304 57.6617 55.3163 57.7248C55.2031 57.7888 55.0879 57.8466 54.9705 57.8981C54.8531 57.9516 54.7343 57.9936 54.614 58.0243C54.4938 58.055 54.3728 58.0719 54.2509 58.0752C54.1299 58.0794 54.0093 58.0652 53.8889 58.0327C53.7676 58.001 53.6477 57.9482 53.5291 57.8742C53.4106 57.8002 53.2941 57.7008 53.1796 57.576C52.9768 57.355 52.8421 57.1194 52.7755 56.8693C52.7088 56.621 52.7043 56.3656 52.7618 56.1029C52.8193 55.8421 52.9359 55.5777 53.1117 55.3097C53.2874 55.0417 53.5163 54.7784 53.7983 54.5197C54.1019 54.2412 54.4013 54.0271 54.6965 53.8775C54.9917 53.728 55.2772 53.6416 55.5528 53.6186C55.8274 53.5965 56.0889 53.637 56.3374 53.7402C56.5867 53.8444 56.8164 54.0109 57.0264 54.2399L56.1333 55.0592C56.0333 54.9501 55.921 54.8731 55.7965 54.8281C55.671 54.784 55.538 54.7712 55.3975 54.7896C55.2561 54.809 55.1091 54.8588 54.9565 54.9391C54.8049 55.0203 54.6524 55.1312 54.4991 55.2718C54.3684 55.3917 54.2569 55.5157 54.1646 55.6438C54.0713 55.7729 54.0044 55.9002 53.9641 56.0259C53.9228 56.1524 53.9105 56.2741 53.9271 56.3909C53.9438 56.5077 53.9963 56.6142 54.0846 56.7105C54.1685 56.8019 54.2567 56.8567 54.3493 56.8748C54.4429 56.894 54.5452 56.8842 54.6564 56.8456C54.7665 56.8079 54.8876 56.7466 55.0196 56.6617C55.1515 56.5786 55.2991 56.4812 55.4625 56.3693L55.7148 56.1976C55.846 56.108 55.9831 56.0157 56.1259 55.9209C56.2696 55.8271 56.4172 55.7424 56.5686 55.6668C56.72 55.5912 56.8741 55.5304 57.0308 55.4843C57.1876 55.4382 57.3446 55.419 57.5019 55.4267C57.6591 55.4345 57.815 55.4742 57.9695 55.546C58.123 55.6187 58.2732 55.7351 58.4202 55.8952C58.5545 56.0416 58.6573 56.1952 58.7287 56.3558C58.8001 56.5165 58.8435 56.6812 58.8589 56.8498C58.8742 57.0203 58.8625 57.192 58.8239 57.365C58.7852 57.5398 58.7235 57.7131 58.6387 57.885C58.5529 58.0577 58.4451 58.2272 58.3153 58.3934C58.1845 58.5604 58.0351 58.721 57.867 58.8751Z" fill="#00D100"/>
<path d="M47.3752 65.634L45.8101 61.2617L43.3622 62.1379L42.9996 61.1248L46.6376 59.8226L48.5652 65.2081L47.3752 65.634Z" fill="#00D100"/>
<path d="M39.1344 62.0656L40.3855 61.8857L41.1994 67.5475L39.9483 67.7274L39.1344 62.0656Z" fill="#00D100"/>
<path d="M30.0652 67.9598L32.3407 62.3867L34.1083 62.5119L35.5475 68.3482L34.2029 68.2529L33.1436 63.3659L31.3819 68.0531L30.0652 67.9598Z" fill="#00D100"/>
<path d="M22.7165 66.1306L23.0625 65.1118L25.6077 65.9762L26.0187 64.7661L23.6931 63.9763L24.0211 63.0105L26.3467 63.8002L26.7551 62.5977L24.1417 61.7102L24.4877 60.6913L28.298 61.9853L26.4586 67.4015L22.7165 66.1306Z" fill="#00D100"/>
<path d="M17.7878 57.3149L13.9091 61.5216L11.8285 59.6033C11.5923 59.3855 11.4081 59.1603 11.276 58.9279C11.1429 58.6946 11.0623 58.4624 11.034 58.2314C11.0039 58.0006 11.0264 57.7746 11.1014 57.5536C11.1764 57.3326 11.3034 57.125 11.4823 56.9309C11.6387 56.7613 11.8085 56.6323 11.9917 56.5437C12.174 56.4561 12.3623 56.4093 12.5564 56.4033C12.7487 56.3974 12.943 56.4324 13.1396 56.5084C13.3342 56.5845 13.5229 56.7014 13.7058 56.8591C13.549 56.6928 13.4584 56.495 13.434 56.2658C13.4077 56.0366 13.4439 55.7761 13.5424 55.4843L14.0751 53.8917L15.1059 54.842L14.579 56.4373C14.5403 56.554 14.5152 56.6569 14.5037 56.7461C14.4913 56.8362 14.4943 56.9196 14.5125 56.9962C14.5307 57.0729 14.5653 57.1465 14.6163 57.2171C14.6663 57.2868 14.7349 57.3618 14.8221 57.4423L15.4323 58.0049L16.8586 56.458L17.7878 57.3149ZM13.6969 57.7922C13.5872 57.691 13.4774 57.6133 13.3676 57.5593C13.257 57.5062 13.1496 57.4771 13.0456 57.4719C12.9397 57.4667 12.8381 57.4855 12.7408 57.5281C12.6425 57.5717 12.5509 57.6396 12.4659 57.7318C12.2978 57.9141 12.2293 58.1084 12.2603 58.3147C12.2913 58.5211 12.4196 58.7282 12.645 58.9361L13.6875 59.8973L14.7409 58.7548L13.6969 57.7922Z" fill="#00D100"/>
<path d="M11.711 51.0397L12.4361 52.0751L7.75072 55.3562L7.02565 54.3209L11.711 51.0397Z" fill="#00D100"/>
<path d="M6.54448 48.2233C6.82947 48.1065 7.07 47.9727 7.26606 47.8217C7.46212 47.6707 7.61164 47.5064 7.71462 47.3287C7.8171 47.1498 7.87231 46.9593 7.88025 46.7572C7.8882 46.5551 7.84691 46.3436 7.7564 46.1228C7.676 45.9266 7.57366 45.7561 7.44937 45.611C7.32334 45.4653 7.18359 45.3511 7.03012 45.2684C6.87614 45.1846 6.71218 45.1343 6.53822 45.1177C6.36426 45.1011 6.18741 45.1232 6.00767 45.1839L6.61219 46.6588L5.82014 46.9834L4.75977 44.3963L7.59117 43.2358L8.0402 44.3314L6.72443 44.8706C6.97162 44.8515 7.2077 44.8649 7.43267 44.9111C7.65713 44.956 7.86341 45.0321 8.0515 45.1394C8.23909 45.2456 8.40564 45.3812 8.55115 45.5463C8.69615 45.7103 8.81365 45.902 8.90366 46.1216C8.98861 46.3289 9.03929 46.5387 9.05569 46.751C9.0716 46.9621 9.05603 47.1702 9.00899 47.3753C8.96072 47.581 8.88145 47.7814 8.77118 47.9764C8.66042 48.1703 8.52171 48.3539 8.35505 48.5274C8.18717 48.7014 7.99243 48.8626 7.77085 49.0111C7.54752 49.1588 7.29954 49.2886 7.02688 49.4003C6.74929 49.5141 6.47735 49.5924 6.21104 49.6353C5.943 49.6774 5.68545 49.6871 5.4384 49.6645C5.19011 49.6423 4.95406 49.5885 4.73025 49.503C4.50593 49.4162 4.29931 49.3006 4.11041 49.1561C3.91976 49.0109 3.74881 48.8382 3.59756 48.6379C3.44631 48.4377 3.31911 48.2117 3.21596 47.96C3.1305 47.7515 3.06956 47.543 3.03312 47.3346C2.99619 47.125 2.98318 46.9192 2.9941 46.7173C3.00451 46.5142 3.03899 46.317 3.09753 46.1259C3.15434 45.934 3.23438 45.7514 3.33764 45.5779C3.44041 45.4032 3.56654 45.2398 3.71604 45.0878C3.86431 44.9362 4.03449 44.7995 4.22658 44.6775L4.70292 45.8397C4.55204 45.9462 4.42986 46.0647 4.33638 46.1952C4.24117 46.3251 4.17375 46.4629 4.13413 46.6089C4.09451 46.7548 4.08194 46.9069 4.0964 47.0653C4.11086 47.2236 4.15172 47.3848 4.21898 47.5489C4.31 47.771 4.42915 47.9527 4.57643 48.0941C4.72371 48.2354 4.89627 48.3347 5.09409 48.392C5.29068 48.4498 5.51106 48.4653 5.75522 48.4388C5.99887 48.4109 6.26196 48.3391 6.54448 48.2233Z" fill="#00D100"/>
<path d="M6.2332 36.0806L6.3728 37.3369L4.07494 37.5922L4.33911 39.9696L6.63697 39.7142L6.77657 40.9705L1.09156 41.6022L0.951959 40.346L3.26174 40.0893L2.99757 37.7119L0.687786 37.9686L0.548189 36.7123L6.2332 36.0806Z" fill="#00D100"/>
<path d="M2.15816 27.8934L1.89538 29.6498L6.48826 30.337L6.30123 31.5871L1.70835 30.8999L1.44557 32.6564L0.38141 32.4972L1.09401 27.7342L2.15816 27.8934Z" fill="#00D100"/>
<path d="M11.5578 17.725L10.5821 19.2305L5.5181 18.6083L9.36827 21.1035L8.70912 22.1206L3.909 19.0098L4.94884 17.4053L9.72213 17.9796L6.09854 15.6312L6.75769 14.6141L11.5578 17.725Z" fill="#00D100"/>
<path d="M11.3372 13.1901C11.1423 12.9621 10.9827 12.7284 10.8586 12.4889C10.7347 12.2475 10.6448 12.006 10.5889 11.7642C10.5322 11.5215 10.51 11.28 10.5221 11.0398C10.5342 10.7996 10.5793 10.5672 10.6574 10.3426C10.7346 10.1169 10.8446 9.90089 10.9874 9.69453C11.1313 9.48731 11.3066 9.29531 11.5133 9.11853C11.72 8.94176 11.9364 8.79883 12.1624 8.68976C12.3894 8.57982 12.6204 8.50423 12.8553 8.46299C13.0904 8.41988 13.327 8.4114 13.5651 8.43756C13.8043 8.46285 14.0394 8.52234 14.2704 8.61603C14.5015 8.70784 14.7262 8.83414 14.9444 8.99492C15.1636 9.15483 15.3703 9.34828 15.5644 9.57527C15.7585 9.80226 15.9175 10.0364 16.0415 10.2778C16.1664 10.5183 16.2568 10.7604 16.3124 11.004C16.3683 11.2457 16.3901 11.4867 16.378 11.7269C16.3669 11.9662 16.3222 12.1991 16.244 12.4256C16.1659 12.6503 16.055 12.8662 15.9111 13.0735C15.7683 13.2798 15.5935 13.4714 15.3868 13.6482C15.1801 13.8249 14.9632 13.9683 14.7362 14.0782C14.5101 14.1873 14.2801 14.263 14.0461 14.3052C13.8112 14.3465 13.5741 14.3544 13.3349 14.3291C13.0958 14.3038 12.8611 14.2449 12.631 14.1522C12.4 14.0585 12.1749 13.9317 11.9557 13.7718C11.7375 13.611 11.5313 13.4171 11.3372 13.1901ZM12.304 12.3634C12.5024 12.5955 12.7036 12.7795 12.9077 12.9156C13.1128 13.0507 13.3163 13.138 13.5185 13.1774C13.7198 13.2158 13.9182 13.2058 14.1138 13.1473C14.3104 13.088 14.4999 12.9803 14.6823 12.8243C14.8647 12.6683 15 12.4983 15.0881 12.3141C15.1773 12.1291 15.2185 11.9342 15.2118 11.7294C15.2052 11.5227 15.1506 11.3081 15.0479 11.0854C14.9462 10.8618 14.7961 10.634 14.5976 10.402C14.3992 10.1699 14.1975 9.9863 13.9924 9.85114C13.7883 9.7151 13.5852 9.62831 13.3829 9.59077C13.1808 9.55135 12.9814 9.56131 12.7848 9.62067C12.5892 9.67916 12.4002 9.7864 12.2178 9.94238C12.0354 10.0984 11.8996 10.2689 11.8105 10.4539C11.7223 10.638 11.682 10.833 11.6896 11.0388C11.6963 11.2436 11.7505 11.4578 11.8522 11.6813C11.9549 11.904 12.1055 12.1314 12.304 12.3634Z" fill="#00D100"/>
<path d="M21.9259 2.78564L24.7167 6.93546L23.8328 1.99566L25.0319 1.49886L25.9019 7.32986L24.2501 8.01421L21.5215 4.03559L22.3913 8.78428L20.7394 9.46863L17.2475 4.72384L18.4929 4.2079L21.3484 8.33094L20.4016 3.41716L21.9259 2.78564Z" fill="#00D100"/>
</svg>
