<svg width="71" height="71" viewBox="0 0 71 71" fill="none" xmlns="http://www.w3.org/2000/svg">
<path d="M40.9038 1.92122L39.1401 1.71217L38.5935 6.32389L37.3383 6.17511L37.8849 1.56339L36.1213 1.35434L36.2479 0.285822L41.0304 0.852697L40.9038 1.92122Z" fill="#00D100"/>
<path d="M43.7592 7.2969L42.6363 6.87932L44.6999 1.3306L45.8227 1.74818L44.8342 4.40632C44.9593 4.20388 45.0957 4.03411 45.2434 3.89701C45.3911 3.7599 45.5473 3.65726 45.7121 3.58908C45.8773 3.51965 46.0502 3.48508 46.2308 3.48537C46.4131 3.48487 46.5998 3.52017 46.791 3.59128C47.0135 3.67401 47.1948 3.78697 47.335 3.93015C47.4765 4.07381 47.5763 4.24535 47.6344 4.44479C47.6925 4.64422 47.7082 4.86984 47.6814 5.12163C47.6564 5.37263 47.5883 5.64748 47.4772 5.94616L46.5842 8.34748L45.4613 7.9299L46.2846 5.71603C46.5458 5.01369 46.409 4.56307 45.8741 4.36415C45.7304 4.31071 45.5939 4.28767 45.4645 4.29505C45.3356 4.30117 45.2152 4.33607 45.1034 4.39973C44.9927 4.46386 44.8919 4.55722 44.8008 4.67982C44.7101 4.80116 44.6318 4.95057 44.5658 5.12803L43.7592 7.2969Z" fill="#00D100"/>
<path d="M53.5 10.5196C53.3107 10.6946 53.1073 10.8296 52.8898 10.9247C52.674 11.0195 52.4513 11.0742 52.2217 11.089C51.9927 11.1028 51.7615 11.0756 51.5278 11.0076C51.2946 10.9414 51.0666 10.8338 50.8438 10.6849C50.6598 10.5618 50.4999 10.4244 50.3641 10.2726C50.2293 10.1215 50.1195 9.96063 50.0347 9.79003C49.9518 9.61906 49.8936 9.43981 49.8602 9.25227C49.828 9.06547 49.822 8.87538 49.8422 8.68201C49.8632 8.48752 49.9099 8.29178 49.9823 8.09479C50.0566 7.89742 50.1582 7.70232 50.2872 7.50947C50.4154 7.31774 50.5562 7.15043 50.7095 7.00754C50.8635 6.86355 51.0255 6.74489 51.1954 6.65159C51.3663 6.55902 51.5434 6.49216 51.7265 6.45102C51.9096 6.40987 52.0951 6.39517 52.2829 6.40691C52.4719 6.41939 52.6614 6.45868 52.8513 6.52479C53.0413 6.5909 53.2272 6.68473 53.4089 6.80629C53.6805 6.9879 53.8958 7.19845 54.0548 7.43794C54.2146 7.67633 54.3162 7.93201 54.3599 8.20499C54.4053 8.4776 54.3914 8.76103 54.3181 9.05529C54.2456 9.34843 54.1122 9.64019 53.918 9.93057C53.8883 9.9749 53.8572 10.019 53.8246 10.063C53.7938 10.1066 53.7601 10.1498 53.7234 10.1927L51.0702 8.41812C50.9949 8.56667 50.9453 8.71156 50.9214 8.85279C50.8983 8.99291 50.9009 9.12697 50.9291 9.25496C50.9582 9.38184 51.012 9.50044 51.0906 9.61076C51.1703 9.72182 51.275 9.82071 51.4047 9.90743C51.7892 10.1646 52.1757 10.16 52.564 9.89362L53.5 10.5196ZM53.1922 8.94712C53.3265 8.65517 53.3678 8.39564 53.316 8.1685C53.266 7.941 53.1241 7.74905 52.8902 7.59265C52.7705 7.51259 52.6501 7.45768 52.5288 7.42792C52.4076 7.39816 52.2878 7.39262 52.1694 7.4113C52.051 7.42999 51.9347 7.47327 51.8203 7.54114C51.7067 7.60791 51.5976 7.69779 51.4932 7.8108L53.1922 8.94712Z" fill="#00D100"/>
<path d="M66.515 19.2303L61.6459 22.2321L60.9826 21.1561L64.9476 18.7117L60.2048 19.8946L59.4806 18.7199L62.6781 15.0265L58.7113 17.472L58.0753 16.4403L62.9443 13.4385L64.0086 15.1648L60.9702 18.6779L65.4811 17.5534L66.515 19.2303Z" fill="#00D100"/>
<path d="M67.6097 24.0916L67.2308 22.9299L68.2271 22.6049L68.606 23.7667L67.6097 24.0916ZM62.974 25.5908L62.6026 24.4518L66.7953 23.0845L67.1667 24.2235L62.974 25.5908Z" fill="#00D100"/>
<path d="M64.2142 29.9908L64.0717 28.8013L68.4505 28.277L68.5929 29.4666L67.2763 29.6242C67.5135 29.6428 67.7269 29.6864 67.9164 29.755C68.1059 29.8236 68.2686 29.9156 68.4046 30.0309C68.542 30.1461 68.6518 30.284 68.7342 30.4447C68.818 30.6065 68.872 30.7887 68.8963 30.9913C68.9245 31.227 68.907 31.4399 68.8438 31.6301C68.7808 31.8216 68.6739 31.9888 68.5232 32.1317C68.3725 32.2747 68.179 32.3918 67.9429 32.4832C67.7082 32.5758 67.4327 32.641 67.1163 32.6789L64.5724 32.9834L64.43 31.7939L66.7753 31.5131C67.5193 31.4241 67.8574 31.0962 67.7896 30.5296C67.7713 30.3773 67.7293 30.2454 67.6636 30.1337C67.5992 30.0219 67.5131 29.9309 67.4053 29.8605C67.2977 29.7915 67.1685 29.7445 67.0178 29.7196C66.8684 29.6945 66.6997 29.6932 66.5117 29.7157L64.2142 29.9908Z" fill="#00D100"/>
<path d="M64.5218 38.5472C64.4545 38.1702 64.4339 37.8376 64.4602 37.5495C64.5043 37.0662 64.6792 36.7126 64.9848 36.4888C65.2916 36.2664 65.7245 36.1807 66.2835 36.2317L68.1557 36.4025L68.2059 35.8528L69.1539 35.9393L69.1038 36.489L70.1156 36.5813L70.0067 37.7744L68.9949 37.6821L68.8797 38.9448L67.9317 38.8583L68.0469 37.5956L66.1727 37.4246C65.9204 37.4016 65.7316 37.4312 65.6062 37.5135C65.4822 37.5959 65.411 37.7387 65.3924 37.9418C65.3849 38.0241 65.3848 38.1212 65.392 38.233C65.4005 38.3449 65.4172 38.4776 65.442 38.6312L64.5218 38.5472Z" fill="#00D100"/>
<path d="M66.8695 48.6415L67.3688 47.5262L68.3253 47.9544L67.826 49.0697L66.8695 48.6415ZM62.4277 46.6398L62.9172 45.5464L66.9422 47.3484L66.4527 48.4418L62.4277 46.6398Z" fill="#00D100"/>
<path d="M63.7002 53.8778C63.5164 54.1446 63.3235 54.3623 63.1216 54.5308C62.919 54.7004 62.7132 54.8194 62.5043 54.8876C62.2957 54.9576 62.0878 54.9763 61.8804 54.9436C61.6723 54.9119 61.47 54.8284 61.2735 54.693L61.944 53.7196C62.0285 53.7778 62.1145 53.8152 62.2019 53.8317C62.2893 53.8482 62.377 53.8431 62.4651 53.8163C62.5524 53.7906 62.638 53.7427 62.7219 53.6726C62.8062 53.6044 62.8869 53.5142 62.964 53.4022C63.0321 53.3034 63.0852 53.2064 63.1232 53.1112C63.1613 53.016 63.1833 52.9276 63.1894 52.8459C63.1954 52.7643 63.1857 52.6903 63.16 52.6241C63.1337 52.559 63.0914 52.5064 63.0332 52.4663C62.9618 52.4171 62.8887 52.3975 62.8138 52.4075C62.7401 52.4182 62.6645 52.4479 62.5872 52.4967C62.5092 52.5465 62.4294 52.6106 62.348 52.6889C62.2676 52.7679 62.1848 52.8517 62.0995 52.9403L61.8899 53.1529C61.8061 53.2393 61.7158 53.3293 61.619 53.4229C61.5225 53.5183 61.4205 53.6075 61.3131 53.6906C61.2057 53.7737 61.0925 53.8463 60.9736 53.9085C60.8547 53.9706 60.7311 54.0126 60.6028 54.0343C60.4745 54.056 60.3419 54.0522 60.2052 54.0227C60.0684 53.9933 59.9276 53.9286 59.7826 53.8288C59.6004 53.7032 59.4639 53.5534 59.3734 53.3793C59.2821 53.2063 59.2373 53.0128 59.2391 52.7986C59.2412 52.5864 59.2904 52.3563 59.3866 52.1085C59.481 51.8611 59.6231 51.5995 59.8129 51.3239C60.0126 51.034 60.217 50.7984 60.4261 50.617C60.6345 50.4368 60.8445 50.3094 61.0561 50.2349C61.268 50.1624 61.4802 50.1434 61.6927 50.1781C61.9063 50.2135 62.1168 50.3027 62.3244 50.4456L61.6539 51.419C61.4716 51.2935 61.287 51.2618 61.1 51.3241C60.9141 51.3871 60.7296 51.5514 60.5466 51.8172C60.4664 51.9336 60.4033 52.0439 60.3574 52.1483C60.3118 52.2544 60.2846 52.3515 60.2758 52.4394C60.2664 52.5284 60.2751 52.6073 60.3022 52.6761C60.3285 52.746 60.3735 52.8029 60.4372 52.8468C60.5152 52.9005 60.5927 52.9231 60.6697 52.9147C60.7479 52.907 60.8282 52.8773 60.9107 52.8257C60.9936 52.7759 61.0799 52.7083 61.1696 52.6227C61.2593 52.5372 61.3546 52.4434 61.4557 52.3414L61.6653 52.1287C61.7419 52.0504 61.8262 51.9668 61.9182 51.8779C62.0101 51.7891 62.1077 51.705 62.211 51.6255C62.3143 51.5461 62.4236 51.4757 62.5388 51.4142C62.6532 51.3538 62.7722 51.3127 62.8957 51.2909C63.0203 51.2698 63.1482 51.2722 63.2795 51.2978C63.4111 51.3253 63.5461 51.3868 63.6844 51.4821C63.859 51.6023 63.9907 51.7473 64.0795 51.9169C64.1683 52.0865 64.2139 52.2742 64.2163 52.4798C64.2179 52.6866 64.1757 52.9077 64.0897 53.1431C64.004 53.3803 63.8741 53.6252 63.7002 53.8778Z" fill="#00D100"/>
<path d="M49.8234 60.9047L51.3377 59.9427L55.6819 62.6183L53.2216 58.7458L54.2446 58.0958L57.312 62.9239L55.6981 63.9492L51.5983 61.4381L53.9138 65.0828L52.8908 65.7327L49.8234 60.9047Z" fill="#00D100"/>
<path d="M48.0529 65.1713C48.1373 65.4592 48.1869 65.7378 48.2019 66.0072C48.2159 66.2781 48.1989 66.5353 48.1507 66.7787C48.1028 67.0233 48.0241 67.2527 47.9146 67.4668C47.805 67.6809 47.6685 67.8743 47.5052 68.0472C47.3423 68.2214 47.1533 68.3733 46.9384 68.5029C46.7223 68.6329 46.4837 68.7361 46.2226 68.8126C45.9616 68.889 45.7056 68.9307 45.4548 68.9375C45.2026 68.9446 44.961 68.9188 44.7298 68.8601C44.4977 68.803 44.2785 68.7137 44.072 68.5922C43.8642 68.4711 43.6742 68.3204 43.502 68.1402C43.3288 67.9617 43.1757 67.7544 43.0426 67.5182C42.9083 67.2825 42.7991 67.0213 42.7152 66.7347C42.6312 66.4481 42.5822 66.1693 42.5682 65.8983C42.5528 65.6277 42.5697 65.3699 42.6188 65.1249C42.667 64.8815 42.7459 64.6528 42.8555 64.4387C42.9638 64.225 43.1 64.0308 43.2643 63.8563C43.4276 63.6834 43.6173 63.532 43.8335 63.402C44.0484 63.2724 44.2864 63.1693 44.5474 63.0929C44.8084 63.0164 45.065 62.9746 45.3172 62.9674C45.5681 62.9607 45.8089 62.986 46.0397 63.0434C46.2708 63.1022 46.4903 63.1921 46.6981 63.3132C46.9058 63.4344 47.0956 63.5844 47.2675 63.7633C47.4398 63.9435 47.5931 64.1515 47.7274 64.3872C47.8605 64.6233 47.969 64.8847 48.0529 65.1713ZM46.8322 65.5289C46.7464 65.2358 46.6383 64.9855 46.508 64.7777C46.3764 64.5703 46.2265 64.4072 46.0583 64.2884C45.8905 64.1708 45.7054 64.0986 45.5031 64.0717C45.2994 64.0452 45.0824 64.0657 44.8521 64.1332C44.6218 64.2006 44.4287 64.3003 44.2727 64.4321C44.1156 64.5642 43.998 64.7251 43.9202 64.9146C43.8414 65.1058 43.8032 65.324 43.8055 65.5692C43.8066 65.8148 43.8501 66.0841 43.9359 66.3772C44.0217 66.6702 44.1304 66.9204 44.262 67.1278C44.3923 67.3355 44.542 67.498 44.7111 67.6152C44.8793 67.734 45.0652 67.8067 45.2689 67.8332C45.4713 67.86 45.6876 67.8397 45.9179 67.7723C46.1483 67.7048 46.342 67.605 46.4992 67.4728C46.6551 67.341 46.7718 67.1797 46.8493 66.9889C46.9272 66.7994 46.9656 66.5818 46.9645 66.3362C46.9621 66.091 46.918 65.8219 46.8322 65.5289Z" fill="#00D100"/>
<path d="M34.8476 69.3327L36.6229 69.2851L36.4985 64.6428L37.762 64.6089L37.8865 69.2512L39.6618 69.2036L39.6907 70.2792L34.8764 70.4083L34.8476 69.3327Z" fill="#00D100"/>
<path d="M26.6848 63.3533L27.8187 63.7399L25.908 69.3431L24.7741 68.9565L26.6848 63.3533Z" fill="#00D100"/>
<path d="M20.1823 65.9712L21.2634 66.5409L20.7748 67.4681L19.6937 66.8984L20.1823 65.9712ZM22.4642 61.6666L23.524 62.2251L21.4681 66.1266L20.4083 65.5681L22.4642 61.6666Z" fill="#00D100"/>
<path d="M13.2668 60.8224L17.1725 58.2933L18.472 59.3262L16.8774 63.692L15.8909 62.908L17.3343 59.3979L14.2313 61.5889L13.2668 60.8224Z" fill="#00D100"/>
<path d="M10.6501 53.7029C10.883 53.5925 11.1175 53.5245 11.3536 53.4988C11.5878 53.473 11.8167 53.4873 12.0403 53.5419C12.2628 53.5973 12.4754 53.6924 12.6779 53.8272C12.8807 53.9601 13.0661 54.131 13.2341 54.3398C13.3728 54.5123 13.4843 54.6912 13.5685 54.8767C13.6519 55.0612 13.7085 55.2475 13.7384 55.4357C13.7664 55.6237 13.7683 55.8121 13.744 56.001C13.7189 56.1889 13.6678 56.3721 13.5906 56.5506C13.5124 56.7299 13.4093 56.9027 13.2812 57.069C13.1513 57.2351 12.996 57.3909 12.8153 57.5363C12.6355 57.6809 12.4511 57.7984 12.2621 57.8889C12.072 57.9802 11.882 58.045 11.692 58.0832C11.5011 58.1203 11.3122 58.1312 11.1252 58.1157C10.9381 58.1001 10.7567 58.0587 10.581 57.9913C10.4045 57.9228 10.2354 57.8287 10.0739 57.7087C9.91243 57.5888 9.76314 57.4437 9.62607 57.2733C9.4213 57.0188 9.27887 56.7535 9.19877 56.4774C9.11764 56.2021 9.0971 55.9277 9.13716 55.6542C9.17535 55.3805 9.27342 55.1142 9.43138 54.8553C9.5883 54.5973 9.80285 54.3588 10.075 54.1398C10.1166 54.1064 10.1595 54.0736 10.2038 54.0414C10.2462 54.009 10.2913 53.9779 10.3391 53.948L12.3399 56.435C12.4562 56.3158 12.5469 56.1924 12.6119 56.0647C12.6759 55.938 12.7136 55.8093 12.7249 55.6787C12.7351 55.5489 12.7193 55.4197 12.6773 55.2909C12.6344 55.1611 12.5641 55.0354 12.4663 54.9138C12.1763 54.5533 11.8062 54.4421 11.3559 54.5802L10.6501 53.7029ZM10.4733 55.2954C10.2578 55.5338 10.1408 55.7691 10.1223 56.0013C10.1019 56.2333 10.1799 56.459 10.3563 56.6782C10.4465 56.7904 10.5451 56.8788 10.6519 56.9435C10.7586 57.0081 10.8713 57.0493 10.9898 57.0669C11.1084 57.0844 11.2324 57.0779 11.3618 57.0474C11.4902 57.0177 11.6211 56.9645 11.7546 56.888L10.4733 55.2954Z" fill="#00D100"/>
<path d="M2.74193 43.7581L7.56902 44.0504C7.84825 44.0659 8.09743 44.1087 8.31656 44.1787C8.53658 44.2471 8.73006 44.3451 8.89702 44.4728C9.06525 44.6001 9.20843 44.7572 9.32654 44.9443C9.44593 45.131 9.54378 45.35 9.62009 45.6014C9.67896 45.7953 9.72231 46.0023 9.75011 46.2224L8.82386 46.5036C8.80989 46.4117 8.79422 46.328 8.77686 46.2524C8.76077 46.1765 8.74285 46.106 8.7231 46.0409C8.68862 45.9274 8.64768 45.8269 8.60026 45.7396C8.55412 45.6519 8.5003 45.5756 8.43878 45.5107C8.37726 45.4457 8.30742 45.3924 8.22925 45.3506C8.15069 45.3076 8.06259 45.2744 7.96494 45.2511L4.08179 48.1712L3.71574 46.9655L6.73811 44.9485L3.09984 44.937L2.74193 43.7581Z" fill="#00D100"/>
<path d="M4.63765 36.3639C4.89192 36.4061 5.12331 36.484 5.33182 36.5976C5.5389 36.71 5.7187 36.8524 5.8712 37.0248C6.02238 37.1972 6.1427 37.3966 6.23217 37.6228C6.32288 37.8477 6.37766 38.0938 6.39652 38.3611C6.41209 38.5819 6.40154 38.7925 6.36489 38.9929C6.32813 39.192 6.26836 39.3773 6.18556 39.5489C6.10133 39.7192 5.99537 39.8751 5.86766 40.0164C5.73986 40.1564 5.59336 40.2777 5.42817 40.3802C5.26164 40.4829 5.07837 40.566 4.87834 40.6295C4.67689 40.6919 4.46046 40.7312 4.22903 40.7475C3.99894 40.7637 3.78045 40.7551 3.57358 40.7216C3.36538 40.6881 3.17235 40.6329 2.99449 40.5559C2.81654 40.4775 2.65518 40.3787 2.51042 40.2592C2.36566 40.1398 2.24034 40.0022 2.13447 39.8466C2.0285 39.6897 1.94339 39.5159 1.87916 39.3253C1.81492 39.1347 1.77511 38.9303 1.75973 38.7122C1.73675 38.3863 1.77112 38.0872 1.86284 37.8147C1.95324 37.5423 2.09291 37.3053 2.28185 37.1035C2.46936 36.9004 2.70182 36.7377 2.97922 36.6152C3.2553 36.4928 3.56757 36.4193 3.91604 36.3947C3.96924 36.391 4.0232 36.3885 4.07792 36.3873C4.13121 36.3849 4.18602 36.3851 4.24235 36.3878L4.46691 39.5719C4.63043 39.5403 4.7753 39.4906 4.90151 39.4229C5.0264 39.3553 5.13073 39.2711 5.21451 39.1703C5.29697 39.0696 5.35768 38.9543 5.39665 38.8246C5.43552 38.6935 5.44947 38.5502 5.4385 38.3946C5.40595 37.9331 5.16541 37.6306 4.71687 37.4871L4.63765 36.3639ZM3.58396 37.571C3.27098 37.6439 3.04065 37.7704 2.89295 37.9506C2.74384 38.1295 2.67918 38.3593 2.69897 38.6399C2.7091 38.7836 2.73957 38.9124 2.79039 39.0265C2.84121 39.1405 2.91027 39.2385 2.9976 39.3206C3.08492 39.4027 3.19045 39.4681 3.31419 39.5168C3.43659 39.5657 3.57445 39.5967 3.72776 39.61L3.58396 37.571Z" fill="#00D100"/>
<path d="M6.44112 30.9519C6.49139 31.3316 6.49689 31.6647 6.45761 31.9514C6.39174 32.4322 6.2011 32.7775 5.88571 32.9873C5.56917 33.1956 5.13284 33.2617 4.5767 33.1855L2.7141 32.9303L2.63917 33.4772L1.69598 33.348L1.77091 32.8011L0.764308 32.6632L0.926916 31.4763L1.93351 31.6142L2.10562 30.3579L3.04881 30.4871L2.8767 31.7434L4.74129 31.9989C4.99227 32.0332 5.18223 32.0122 5.31114 31.9356C5.43874 31.8589 5.51638 31.7195 5.54407 31.5174C5.55529 31.4355 5.55982 31.3385 5.55767 31.2265C5.5542 31.1143 5.54353 30.981 5.52568 30.8265L6.44112 30.9519Z" fill="#00D100"/>
<path d="M8.33989 18.4082L9.10432 17.4015L9.47544 17.6834C9.60605 17.7825 9.74162 17.8553 9.88214 17.9018C10.0235 17.9472 10.1619 17.9644 10.2974 17.9535C10.433 17.9425 10.5623 17.9034 10.6854 17.8362C10.8084 17.7689 10.9175 17.6726 11.0127 17.5473C11.1086 17.421 11.1725 17.2895 11.2042 17.1529C11.2349 17.0154 11.2364 16.8801 11.2087 16.7469C11.1809 16.6137 11.1258 16.4856 11.0434 16.3627C10.9598 16.239 10.8522 16.1271 10.7206 16.0272L7.85032 13.8476L8.61475 12.8409L11.4977 15.0302C11.6804 15.1689 11.8355 15.3185 11.9631 15.479C12.0906 15.6395 12.1911 15.807 12.2645 15.9816C12.3378 16.1562 12.3849 16.3367 12.4056 16.5232C12.4253 16.709 12.4186 16.8964 12.3855 17.0855C12.3523 17.2747 12.2929 17.4631 12.2073 17.6509C12.1227 17.8394 12.0119 18.024 11.8748 18.2045C11.7385 18.3839 11.5905 18.5403 11.4308 18.6734C11.2729 18.8064 11.1073 18.9142 10.934 18.9969C10.7615 19.0785 10.5832 19.1348 10.399 19.1657C10.2138 19.1958 10.0268 19.1995 9.83813 19.1767C9.65027 19.153 9.46191 19.1012 9.27305 19.0214C9.08419 18.9416 8.89844 18.8323 8.71579 18.6936L8.33989 18.4082Z" fill="#00D100"/>
<path d="M14.1212 15.0312L10.4814 10.6161L12.665 8.8159C12.9129 8.6115 13.161 8.45968 13.4092 8.36044C13.6585 8.26035 13.8995 8.21203 14.1322 8.21548C14.365 8.21706 14.5858 8.27004 14.7946 8.37443C15.0033 8.47882 15.1916 8.63286 15.3596 8.83657C15.5063 9.01455 15.6111 9.20033 15.6739 9.39392C15.7359 9.58647 15.7566 9.77933 15.7361 9.97247C15.7158 10.1637 15.6547 10.3515 15.5526 10.5359C15.4508 10.7184 15.3093 10.8894 15.1281 11.0491C15.3142 10.9164 15.5225 10.8536 15.7529 10.8606C15.9836 10.8658 16.2367 10.937 16.5124 11.0744L18.0177 11.8188L16.936 12.7107L15.4272 11.9716C15.3169 11.9174 15.2183 11.8785 15.1316 11.855C15.0439 11.8305 14.9609 11.822 14.8825 11.8296C14.8041 11.8372 14.7265 11.8615 14.6496 11.9024C14.5738 11.9425 14.4901 12.0002 14.3985 12.0757L13.7581 12.6037L15.0965 14.2271L14.1212 15.0312ZM14.2049 10.9134C14.3202 10.8184 14.412 10.7202 14.4805 10.6188C14.5481 10.5164 14.5916 10.414 14.6109 10.3117C14.6304 10.2075 14.6257 10.1043 14.5967 10.002C14.5669 9.89876 14.5121 9.79877 14.4323 9.70206C14.2746 9.51071 14.0914 9.41636 13.8828 9.41901C13.6741 9.42166 13.4515 9.52052 13.2149 9.71559L12.1208 10.6176L13.1093 11.8167L14.2049 10.9134Z" fill="#00D100"/>
<path d="M21.2588 9.77647L20.1361 10.357L17.5088 5.27612L18.6316 4.69555L21.2588 9.77647Z" fill="#00D100"/>
</svg>
