<svg viewBox="0 0 65 60" fill="none" xmlns="http://www.w3.org/2000/svg">
<path d="M17.4876 37.3346C16.7149 35.9358 15.9971 34.6649 15.3263 33.3522C13.3426 29.5316 11.3484 25.7371 9.45596 21.8773C8.23959 19.3928 8.81626 18.0644 11.2981 16.741C18.3939 12.9641 25.8838 10.0562 33.2798 6.92904C34.8143 6.27125 36.4089 5.80397 38.0296 5.34713C40.1852 4.72582 41.5293 5.33903 42.2968 7.43204C43.3044 10.1357 44.158 12.8838 45.0925 15.6188C45.86 17.8632 46.664 20.0919 47.4497 22.3285C47.6638 22.9287 47.8961 23.5211 48.1127 24.077C42.8492 30.615 26.9743 37.7228 17.4876 37.3346Z" fill="#8170B1"/>
<path d="M34.376 34.2045C28.5119 36.7182 22.1937 38.3237 17.4595 38.1257L16.9975 38.1075L16.0474 36.3955C15.5489 35.4847 15.0582 34.5922 14.5935 33.7101L13.3615 31.3405C11.8032 28.3106 10.2267 25.2886 8.72317 22.2352C7.34758 19.4298 8.00773 17.5898 10.9306 16.0341C16.685 12.9619 22.7996 10.4273 28.695 7.98671C30.1277 7.39417 31.5422 6.80946 32.9671 6.19865C34.4912 5.56696 36.0597 5.08924 37.7899 4.58542C40.3632 3.82837 42.1275 4.71557 43.0437 7.15568C43.6963 8.93031 44.2863 10.7102 44.884 12.5083C45.2025 13.453 45.5288 14.416 45.8473 15.3607C46.586 17.4877 47.3169 19.5963 48.0739 21.7155L48.2045 22.0704C48.3506 22.4618 48.5047 22.8716 48.643 23.2448L49.0215 24.2286L48.7423 24.5862C45.89 28.1227 40.3679 31.636 34.376 34.2045ZM17.9709 36.5441C26.8938 36.6766 41.7484 30.2657 47.1868 23.9339L47.1476 23.8425C47.0014 23.4511 46.8474 23.0413 46.6934 22.6316L46.5629 22.2767C45.8059 20.1576 45.0672 18.0306 44.3284 15.9037C44.0021 14.9407 43.6836 13.996 43.3573 13.033C42.7674 11.2531 42.1853 9.49153 41.5222 7.74301C40.8905 6.06755 40.0162 5.64222 38.2233 6.15127C36.5296 6.63944 35.0159 7.09366 33.5727 7.7123C32.1478 8.32311 30.7151 8.91565 29.3006 9.50035C23.4313 11.9514 17.3715 14.4625 11.6641 17.493C9.47713 18.6467 9.1588 19.5184 10.1611 21.554C11.6646 24.6073 13.2151 27.6189 14.7916 30.641L16.0237 33.0106C16.4883 33.8927 16.9633 34.7487 17.4619 35.6595L17.9709 36.5441Z" fill="#483189"/>
<path d="M18.8719 41.2189C19.4593 42.8918 19.6133 43.4529 20.1354 44.8726C23.1524 46.1094 26.1955 46.4484 29.3011 46.0254C36.4102 45.054 42.7231 42.3263 47.8849 37.2158C49.4925 35.6185 50.7242 33.7498 51.7157 31.4218C51.3607 30.1899 50.4106 29.3862 49.9616 27.7838C50.5227 27.0243 51.637 25.487 52.3781 24.6936C53.7586 23.172 56.0657 23.4589 57.1097 25.2387C58.0311 26.8332 58.347 28.5792 58.1045 30.4348C57.6506 34.0677 56.0954 37.1995 53.6685 39.8617C50.5266 43.3278 46.7164 45.891 42.4861 47.8774C37.8068 50.0778 32.9657 51.6989 27.7696 52.0881C23.2181 52.4173 18.9458 51.6321 15.1718 48.8816C13.7807 47.8561 12.7784 46.5773 12.1963 44.9671C11.3453 42.6288 12.7988 40.6217 15.2651 40.7755C16.1342 40.8355 17.9167 41.1094 18.8719 41.2189Z" fill="#8170B1"/>
<path d="M40.8319 49.5162C36.1552 51.5209 31.9692 52.6017 27.8013 52.9178C22.5791 53.2966 18.2989 52.1904 14.6789 49.5469C13.1416 48.4327 12.0428 46.9791 11.4059 45.241C10.8995 43.8578 11.0612 42.4694 11.8258 41.428C12.5799 40.4127 13.8404 39.8724 15.2863 39.9663C15.9518 40.0054 17.1184 40.154 18.071 40.3079L19.4672 40.4879L19.6265 40.9603C19.8849 41.7145 20.0676 42.2416 20.2347 42.7323C20.4018 43.2229 20.5532 43.677 20.7672 44.2773C23.4658 45.3262 26.2427 45.6496 29.1865 45.2527C36.5462 44.2604 42.4728 41.4387 47.3032 36.665C48.7411 35.2269 49.8815 33.5487 50.8261 31.4138C50.6877 31.0406 50.4763 30.6987 50.2231 30.3099C49.8499 29.6914 49.427 29.0076 49.1529 28.0655L49.0511 27.6766L49.5052 27.0711C50.1341 26.2177 51.0735 24.9284 51.7572 24.2028C52.5766 23.2893 53.751 22.8507 54.9281 22.9733C56.1129 23.1141 57.1595 23.79 57.7807 24.8861C58.7752 26.6006 59.1433 28.5188 58.8799 30.578C58.4235 34.2553 56.8657 37.5829 54.2482 40.4565C51.2394 43.779 47.5023 46.4622 42.797 48.6522C42.1211 48.942 41.4713 49.2421 40.8319 49.5162ZM13.9241 41.7828C13.5952 41.9237 13.3343 42.1221 13.1307 42.404C12.6871 42.9834 12.6193 43.8342 12.943 44.6902C13.4729 46.1282 14.3395 47.2921 15.6288 48.2315C18.933 50.6427 22.8635 51.6394 27.6916 51.2997C32.2248 50.9784 36.8076 49.6627 42.1183 47.1699C46.6045 45.0739 50.1745 42.5055 53.0581 39.3448C55.438 36.7244 56.8628 33.6917 57.2905 30.3511C57.5174 28.6103 57.225 27.0705 56.4002 25.6509C56.0452 25.0245 55.4371 24.6148 54.7742 24.5314C54.1191 24.4662 53.4719 24.722 52.9787 25.2362C52.3707 25.8861 51.4417 27.1493 50.8702 27.9349C51.0686 28.4986 51.3452 28.9422 51.6376 29.4224C51.9717 29.9496 52.3032 30.5211 52.5042 31.1918L52.5773 31.4632L52.4729 31.7242C51.4187 34.2088 50.1401 36.1193 48.4673 37.7662C43.4568 42.7253 37.0447 45.7766 29.4242 46.8159C26.1123 47.2625 22.8866 46.8504 19.8434 45.6031L19.5041 45.4674L19.3815 45.1308C19.0813 44.3296 18.9246 43.8128 18.7106 43.2126C18.5905 42.8316 18.4443 42.4401 18.2694 41.9312L17.8362 41.8791C16.9175 41.7539 15.8136 41.6 15.1742 41.5713C14.7122 41.5531 14.2894 41.6262 13.9241 41.7828Z" fill="#483189"/>
<path d="M51.7314 31.4574C50.7398 33.7854 49.5264 35.6463 47.9006 37.2515C42.7388 42.3619 36.4337 45.1079 29.3168 46.0611C26.2294 46.4763 23.1864 46.1372 20.151 44.9082L17.4963 37.353C26.983 37.7411 42.858 30.6334 48.1032 24.1032L51.7314 31.4574Z" fill="white"/>
<path d="M38.8218 44.3223C35.9537 45.5518 32.8142 46.4002 29.4475 46.8702C26.1357 47.3168 22.91 46.9047 19.8668 45.6574L19.5275 45.5217L16.3533 36.5024L17.5434 36.5546C26.5682 36.9245 42.237 30.1429 47.5005 23.6049L48.2886 22.6184L52.6137 31.4471L52.4598 31.7942C51.4056 34.2788 50.1269 36.1893 48.4541 37.8362C45.6749 40.5846 42.4572 42.764 38.8218 44.3223ZM20.8115 44.2794C23.5101 45.3283 26.2687 45.6595 29.2308 45.2548C36.5904 44.2625 42.5171 41.4408 47.3475 36.6671C48.7932 35.2472 49.897 33.5847 50.8495 31.4681L47.9391 25.5362C41.9735 31.8994 27.8862 37.9813 18.6605 38.1517L20.8115 44.2794Z" fill="#483189"/>
</svg>
