<svg width="58" height="120" viewBox="0 0 58 120" fill="none" xmlns="http://www.w3.org/2000/svg">
<path d="M57.3799 106.58C57.3799 113.49 44.6599 119.1 29.0299 119.1C13.4099 119.1 0.689941 113.48 0.689941 106.58C0.689941 99.6696 13.4099 94.0596 29.0299 94.0596C44.6599 94.0496 57.3799 99.6696 57.3799 106.58Z" fill="#B99C0B"/>
<path d="M29.1197 104.419C29.6597 104.419 30.1697 104.459 30.6597 104.539C31.1597 104.619 31.6297 104.729 32.0697 104.879C32.4997 105.029 32.9197 105.219 33.2797 105.439C33.6597 105.659 33.9897 105.909 34.2797 106.189C34.5697 106.479 34.8197 106.789 35.0097 107.129C35.2197 107.469 35.3597 107.839 35.4497 108.229H32.0097C31.9197 107.949 31.7797 107.699 31.6097 107.489C31.4297 107.279 31.2197 107.109 30.9697 106.959C30.7197 106.819 30.4397 106.709 30.1197 106.639C29.8097 106.569 29.4697 106.539 29.1097 106.539C28.6097 106.539 28.1597 106.599 27.7797 106.729C27.3897 106.859 27.0697 107.049 26.7897 107.299C26.5297 107.549 26.3197 107.859 26.1897 108.229C26.0497 108.599 25.9797 109.029 25.9797 109.529C25.9797 110.029 26.0497 110.459 26.1897 110.849C26.3197 111.229 26.5197 111.539 26.7797 111.799C27.0397 112.049 27.3697 112.249 27.7597 112.379C28.1497 112.509 28.5997 112.579 29.0997 112.579C29.5397 112.579 29.9497 112.539 30.3197 112.459C30.6897 112.369 31.0097 112.249 31.2997 112.099C31.5697 111.939 31.7997 111.749 31.9697 111.519C32.1397 111.289 32.2397 111.039 32.2697 110.759H28.9897V109.209H35.5697V114.459H32.3397V112.169C32.1497 112.559 31.9197 112.899 31.6197 113.209C31.3297 113.519 30.9897 113.779 30.6097 113.989C30.2297 114.199 29.8097 114.369 29.3397 114.479C28.8797 114.599 28.3797 114.649 27.8597 114.649C27.3497 114.649 26.8597 114.599 26.3897 114.489C25.9297 114.379 25.4997 114.219 25.0997 114.019C24.6997 113.809 24.3397 113.549 24.0197 113.259C23.6997 112.959 23.4297 112.609 23.1997 112.239C22.9697 111.859 22.8097 111.449 22.6797 110.999C22.5597 110.549 22.4897 110.069 22.4897 109.549C22.4897 109.029 22.5697 108.549 22.7197 108.089C22.8697 107.639 23.0797 107.219 23.3597 106.839C23.6297 106.459 23.9697 106.129 24.3597 105.819C24.7497 105.519 25.1997 105.269 25.6797 105.059C26.1797 104.849 26.6997 104.699 27.2897 104.589C27.8597 104.479 28.4697 104.419 29.1197 104.419Z" fill="white"/>
<path d="M29.0403 20.7998C34.4306 20.7998 38.8003 16.4301 38.8003 11.0398C38.8003 5.64949 34.4306 1.27979 29.0403 1.27979C23.65 1.27979 19.2803 5.64949 19.2803 11.0398C19.2803 16.4301 23.65 20.7998 29.0403 20.7998Z" fill="#FFFADC"/>
<path d="M29.0401 21.2096C34.6501 21.2096 39.2101 16.6496 39.2101 11.0396C39.2101 5.42963 34.6401 0.869629 29.0401 0.869629C23.4401 0.869629 18.8701 5.43963 18.8701 11.0396C18.8701 16.6396 23.4301 21.2096 29.0401 21.2096ZM29.0401 1.68963C34.2001 1.68963 38.3901 5.88963 38.3901 11.0396C38.3901 16.1896 34.1901 20.3896 29.0401 20.3896C23.8901 20.3896 19.6901 16.1896 19.6901 11.0396C19.6901 5.88963 23.8801 1.68963 29.0401 1.68963Z" fill="#B99C0B"/>
<path d="M17.7399 60.5696C17.7399 62.3296 16.3099 63.7496 14.5599 63.7496C12.7999 63.7496 11.3799 62.3196 11.3799 60.5696V33.0696C11.3799 29.7596 14.0599 27.0796 17.3699 27.0796H40.7099C44.0199 27.0796 46.6999 29.7596 46.6999 33.0696V60.5696C46.6999 62.3296 45.2699 63.7496 43.5199 63.7496C41.7599 63.7496 40.3399 62.3196 40.3399 60.5696" fill="#FFFADC"/>
<path d="M14.55 64.1594C16.53 64.1594 18.14 62.5494 18.14 60.5694H17.33C17.33 62.0994 16.08 63.3494 14.55 63.3494C13.02 63.3494 11.77 62.0994 11.77 60.5694V33.0694C11.77 29.9894 14.28 27.4794 17.36 27.4794H40.7C43.78 27.4794 46.29 29.9894 46.29 33.0694V60.5694C46.29 62.0994 45.04 63.3494 43.51 63.3494C41.98 63.3494 40.73 62.0994 40.73 60.5694H39.92C39.92 62.5494 41.53 64.1594 43.51 64.1594C45.49 64.1594 47.1 62.5494 47.1 60.5694V33.0694C47.1 29.5394 44.23 26.6694 40.7 26.6694H17.36C13.83 26.6694 10.96 29.5394 10.96 33.0694V60.5694C10.96 62.5494 12.57 64.1594 14.55 64.1594Z" fill="#B99C0B"/>
<path d="M17.7402 33.3496V96.6296C17.7402 98.8396 19.5302 100.62 21.7302 100.62C23.9402 100.62 25.7202 98.8296 25.7202 96.6296V61.8496C25.7202 61.0196 26.3902 60.3496 27.2202 60.3496H30.8502C31.6802 60.3496 32.3502 61.0196 32.3502 61.8496V96.6196C32.3502 98.8296 34.1402 100.61 36.3402 100.61C38.5502 100.61 40.3302 98.8196 40.3302 96.6196V33.3496" fill="#FFFADC"/>
<path d="M21.7301 101.029C24.1601 101.029 26.1301 99.0594 26.1301 96.6294V61.8495C26.1301 61.2495 26.6201 60.7595 27.2201 60.7595H30.8501C31.4501 60.7595 31.9401 61.2495 31.9401 61.8495V96.6195C31.9401 99.0495 33.9101 101.019 36.3401 101.019C38.7701 101.019 40.7401 99.0495 40.7401 96.6195V33.3495C40.7401 33.1295 40.5601 32.9395 40.3301 32.9395C40.1101 32.9395 39.9201 33.1195 39.9201 33.3495V96.6294C39.9201 98.6095 38.3101 100.219 36.3301 100.219C34.3501 100.219 32.7401 98.6095 32.7401 96.6294V61.8495C32.7401 60.7995 31.8901 59.9495 30.8401 59.9495H27.2101C26.1601 59.9495 25.3101 60.7995 25.3101 61.8495V96.6195C25.3101 98.5995 23.7001 100.209 21.7201 100.209C19.7401 100.209 18.1301 98.5995 18.1301 96.6195V33.3495C18.1301 33.1295 17.9501 32.9395 17.7201 32.9395C17.4901 32.9395 17.3101 33.1195 17.3101 33.3495V96.6294C17.3301 99.0494 19.3101 101.029 21.7301 101.029Z" fill="#B99C0B"/>
</svg>
