<svg width="57" height="120" viewBox="0 0 57 120" fill="none" xmlns="http://www.w3.org/2000/svg">
<path d="M28.4198 119.1C44.0771 119.1 56.7698 113.495 56.7698 106.58C56.7698 99.6655 44.0771 94.0601 28.4198 94.0601C12.7626 94.0601 0.0698242 99.6655 0.0698242 106.58C0.0698242 113.495 12.7626 119.1 28.4198 119.1Z" fill="#B18456"/>
<path d="M34.2196 110.88C34.3796 111.16 34.4596 111.48 34.4596 111.81C34.4596 112.22 34.3396 112.59 34.0796 112.92C33.8296 113.25 33.4796 113.52 33.0196 113.76C32.5696 113.99 32.0096 114.16 31.3796 114.28C30.7396 114.4 30.0396 114.46 29.2696 114.46H22.3696V104.64H29.1896C29.9196 104.64 30.5696 104.69 31.1496 104.8C31.7296 104.91 32.2196 105.07 32.6296 105.28C33.0296 105.49 33.3396 105.75 33.5596 106.05C33.7796 106.36 33.8896 106.7 33.8896 107.09C33.8896 107.41 33.8096 107.7 33.6796 107.96C33.5396 108.23 33.3396 108.45 33.0996 108.65C32.8596 108.84 32.5596 109 32.2196 109.12C31.8796 109.24 31.5096 109.32 31.0996 109.35C31.5896 109.38 32.0296 109.47 32.4396 109.6C32.8496 109.73 33.1996 109.9 33.4996 110.12C33.8096 110.34 34.0496 110.6 34.2196 110.88ZM30.5196 112.27C30.8396 112.1 30.9996 111.83 30.9996 111.46C30.9996 111.09 30.8396 110.82 30.5196 110.65C30.1996 110.48 29.7296 110.39 29.0996 110.39H25.8396V112.53H29.0996C29.7296 112.52 30.1996 112.44 30.5196 112.27ZM25.8396 106.57V108.64H28.7796C29.0296 108.64 29.2696 108.62 29.4796 108.57C29.6896 108.52 29.8696 108.45 30.0196 108.36C30.1596 108.27 30.2696 108.16 30.3596 108.03C30.4396 107.89 30.4696 107.74 30.4696 107.57C30.4696 107.24 30.3296 106.99 30.0296 106.82C29.7396 106.65 29.3296 106.57 28.7896 106.57H25.8396Z" fill="white"/>
<path d="M28.4099 20.79C33.8002 20.79 38.1699 16.4203 38.1699 11.03C38.1699 5.63972 33.8002 1.27002 28.4099 1.27002C23.0196 1.27002 18.6499 5.63972 18.6499 11.03C18.6499 16.4203 23.0196 20.79 28.4099 20.79Z" fill="#F9E0C7"/>
<path d="M28.4097 21.1999C22.7997 21.1999 18.2397 16.6399 18.2397 11.0299C18.2397 5.41986 22.8097 0.859863 28.4097 0.859863C34.0097 0.859863 38.5797 5.41986 38.5797 11.0299C38.5797 16.6399 34.0197 21.1999 28.4097 21.1999ZM28.4097 1.67986C23.2497 1.67986 19.0497 5.87986 19.0497 11.0399C19.0497 16.1999 23.2497 20.3999 28.4097 20.3999C33.5697 20.3999 37.7697 16.1999 37.7697 11.0399C37.7697 5.87986 33.5697 1.67986 28.4097 1.67986Z" fill="#B18456"/>
<path d="M39.7097 60.5696C39.7097 62.3296 41.1397 63.7596 42.8997 63.7596C44.6597 63.7596 46.0897 62.3296 46.0897 60.5696V33.0596C46.0897 29.7496 43.4097 27.0596 40.0897 27.0596H16.7397C13.4297 27.0596 10.7397 29.7396 10.7397 33.0596V60.5696C10.7397 62.3296 12.1697 63.7596 13.9297 63.7596C15.6897 63.7596 17.1197 62.3296 17.1197 60.5696" fill="#F9E0C7"/>
<path d="M42.8998 64.1597C40.9198 64.1597 39.3098 62.5497 39.3098 60.5697H40.1198C40.1198 62.0997 41.3698 63.3497 42.8998 63.3497C44.4298 63.3497 45.6798 62.0997 45.6798 60.5697V33.0597C45.6798 29.9797 43.1698 27.4697 40.0898 27.4697H16.7398C13.6598 27.4697 11.1498 29.9797 11.1498 33.0597V60.5697C11.1498 62.0997 12.3998 63.3497 13.9298 63.3497C15.4598 63.3497 16.7098 62.0997 16.7098 60.5697H17.5198C17.5198 62.5497 15.9098 64.1597 13.9298 64.1597C11.9498 64.1597 10.3398 62.5497 10.3398 60.5697V33.0597C10.3398 29.5297 13.2098 26.6597 16.7398 26.6597H40.0898C43.6198 26.6597 46.4898 29.5297 46.4898 33.0597V60.5697C46.4898 62.5497 44.8798 64.1597 42.8998 64.1597Z" fill="#B18456"/>
<path d="M39.7101 33.3496V96.6396C39.7101 98.8496 37.9201 100.63 35.7201 100.63C33.5101 100.63 31.7301 98.8396 31.7301 96.6396V61.8496C31.7301 61.0196 31.0601 60.3496 30.2301 60.3496H26.6001C25.7701 60.3496 25.1001 61.0196 25.1001 61.8496V96.6296C25.1001 98.8396 23.3101 100.62 21.1101 100.62C18.9001 100.62 17.1201 98.8296 17.1201 96.6296V33.3496" fill="#F9E0C7"/>
<path d="M35.72 101.03C33.29 101.03 31.32 99.0598 31.32 96.6298V61.8498C31.32 61.2498 30.83 60.7598 30.23 60.7598H26.6C26 60.7598 25.51 61.2498 25.51 61.8498V96.6298C25.51 99.0598 23.54 101.03 21.11 101.03C18.68 101.03 16.71 99.0598 16.71 96.6298V33.3398H17.52V96.6298C17.52 98.6098 19.13 100.22 21.11 100.22C23.09 100.22 24.7 98.6098 24.7 96.6298V61.8498C24.7 60.7998 25.55 59.9498 26.6 59.9498H30.23C31.28 59.9498 32.13 60.7998 32.13 61.8498V96.6298C32.13 98.6098 33.74 100.22 35.72 100.22C37.7 100.22 39.31 98.6098 39.31 96.6298V33.3398H40.12V96.6298C40.12 99.0598 38.15 101.03 35.72 101.03Z" fill="#B18456"/>
</svg>
