<svg width="58" height="120" viewBox="0 0 58 120" fill="none" xmlns="http://www.w3.org/2000/svg">
<path d="M57.0699 106.59C57.0699 113.49 44.3499 119.11 28.7299 119.11C13.0999 119.11 0.379883 113.49 0.379883 106.59C0.379883 99.6801 13.0999 94.0601 28.7299 94.0601C44.3599 94.0601 57.0699 99.6801 57.0699 106.59Z" fill="#8C8B8C"/>
<path d="M28.6598 104.44C29.5498 104.44 30.3498 104.52 31.0598 104.67C31.7698 104.82 32.3798 105.05 32.8698 105.34C33.3698 105.63 33.7398 105.99 34.0098 106.4C34.2698 106.82 34.3998 107.29 34.3998 107.82H31.0898C31.0898 107.61 31.0298 107.41 30.9098 107.25C30.7998 107.08 30.6298 106.93 30.4098 106.82C30.1898 106.7 29.9298 106.61 29.6298 106.55C29.3198 106.49 28.9698 106.45 28.5998 106.45C28.2898 106.45 27.9898 106.47 27.7098 106.52C27.4298 106.56 27.1698 106.63 26.9598 106.72C26.7398 106.8 26.5698 106.91 26.4398 107.04C26.3198 107.16 26.2498 107.31 26.2498 107.49C26.2498 107.66 26.3098 107.8 26.4198 107.9C26.5398 108.01 26.7098 108.09 26.9498 108.16C27.1798 108.23 27.4698 108.29 27.8098 108.33C28.1698 108.38 28.5698 108.43 29.0498 108.47L29.5198 108.52C29.7998 108.55 30.0898 108.58 30.3898 108.62C30.6898 108.65 30.9898 108.7 31.2898 108.75C31.5898 108.8 31.8798 108.86 32.1698 108.93C32.4598 109.01 32.7398 109.09 33.0098 109.19C33.2698 109.29 33.5098 109.42 33.7298 109.55C33.9598 109.69 34.1398 109.85 34.2998 110.03C34.4698 110.22 34.5898 110.43 34.6898 110.66C34.7698 110.9 34.8198 111.17 34.8198 111.46C34.8198 111.98 34.6798 112.44 34.3998 112.83C34.1198 113.24 33.7098 113.57 33.1898 113.84C32.6598 114.11 32.0298 114.31 31.2698 114.46C30.5298 114.6 29.6798 114.67 28.7398 114.67C27.7398 114.67 26.8598 114.59 26.0898 114.44C25.3198 114.28 24.6798 114.06 24.1598 113.75C23.6298 113.45 23.2398 113.1 22.9798 112.66C22.7198 112.23 22.5898 111.75 22.5898 111.2H25.8998C25.8998 111.43 25.9698 111.63 26.0898 111.82C26.2198 112 26.4098 112.16 26.6498 112.28C26.8898 112.4 27.1898 112.5 27.5398 112.57C27.8898 112.63 28.2898 112.67 28.7298 112.67C29.1098 112.67 29.4498 112.65 29.7698 112.6C30.0898 112.55 30.3698 112.48 30.6098 112.38C30.8498 112.29 31.0298 112.17 31.1698 112.03C31.2998 111.89 31.3798 111.73 31.3798 111.54C31.3798 111.35 31.3098 111.2 31.1998 111.09C31.0798 110.97 30.9098 110.88 30.6698 110.82C30.4398 110.74 30.1498 110.69 29.8198 110.65C29.4698 110.61 29.0798 110.57 28.6298 110.52L27.9998 110.46C27.7298 110.43 27.4498 110.4 27.1498 110.37C26.8598 110.34 26.5598 110.3 26.2698 110.25C25.9798 110.2 25.6898 110.15 25.3998 110.08C25.1198 110.01 24.8498 109.93 24.5798 109.83C24.3298 109.73 24.0798 109.62 23.8698 109.49C23.6498 109.36 23.4698 109.2 23.3098 109.02C23.1498 108.85 23.0198 108.64 22.9298 108.42C22.8398 108.19 22.7998 107.93 22.7998 107.64C22.7998 107.3 22.8698 106.97 22.9998 106.68C23.1298 106.39 23.3198 106.12 23.5598 105.88C23.8098 105.65 24.0998 105.44 24.4598 105.25C24.8098 105.07 25.1998 104.92 25.6298 104.8C26.0598 104.68 26.5298 104.59 27.0398 104.53C27.5698 104.47 28.0998 104.44 28.6598 104.44Z" fill="white"/>
<path d="M28.7302 20.79C34.1205 20.79 38.4902 16.4203 38.4902 11.03C38.4902 5.63972 34.1205 1.27002 28.7302 1.27002C23.3399 1.27002 18.9702 5.63972 18.9702 11.03C18.9702 16.4203 23.3399 20.79 28.7302 20.79Z" fill="#F5F4F5"/>
<path d="M28.7301 21.1999C23.1201 21.1999 18.5601 16.6399 18.5601 11.0299C18.5601 5.41986 23.1201 0.859863 28.7301 0.859863C34.3401 0.859863 38.9001 5.41986 38.9001 11.0299C38.9001 16.6399 34.3401 21.1999 28.7301 21.1999ZM28.7301 1.66986C23.5701 1.66986 19.3701 5.86986 19.3701 11.0299C19.3701 16.1899 23.5701 20.3899 28.7301 20.3899C33.8901 20.3899 38.0901 16.1899 38.0901 11.0299C38.0901 5.86986 33.8901 1.66986 28.7301 1.66986Z" fill="#8C8B8C"/>
<path d="M40.0298 60.5696C40.0298 62.3296 41.4598 63.7596 43.2198 63.7596C44.9798 63.7596 46.4098 62.3296 46.4098 60.5696V33.0596C46.4098 29.7496 43.7298 27.0596 40.4098 27.0596H17.0498C13.7398 27.0596 11.0498 29.7396 11.0498 33.0596V60.5696C11.0498 62.3296 12.4798 63.7596 14.2398 63.7596C15.9998 63.7596 17.4298 62.3296 17.4298 60.5696" fill="#F5F4F5"/>
<path d="M43.2099 64.1697C41.2299 64.1697 39.6199 62.5597 39.6199 60.5797H40.4299C40.4299 62.1097 41.6799 63.3597 43.2099 63.3597C44.7399 63.3597 45.9899 62.1097 45.9899 60.5797V33.0597C45.9899 29.9797 43.4799 27.4697 40.3999 27.4697H17.0499C13.9699 27.4697 11.4599 29.9797 11.4599 33.0597V60.5697C11.4599 62.0997 12.7099 63.3497 14.2399 63.3497C15.7699 63.3497 17.0199 62.0997 17.0199 60.5697H17.8299C17.8299 62.5497 16.2199 64.1597 14.2399 64.1597C12.2599 64.1597 10.6499 62.5497 10.6499 60.5697V33.0597C10.6499 29.5297 13.5199 26.6597 17.0499 26.6597H40.3999C43.9299 26.6597 46.7999 29.5297 46.7999 33.0597V60.5697C46.8099 62.5497 45.1899 64.1697 43.2099 64.1697Z" fill="#8C8B8C"/>
<path d="M40.0299 33.3398V96.6398C40.0299 98.8498 38.2399 100.63 36.0399 100.63C33.8299 100.63 32.0499 98.8398 32.0499 96.6398V61.8598C32.0499 61.0298 31.3799 60.3598 30.5499 60.3598H26.9199C26.0899 60.3598 25.4199 61.0298 25.4199 61.8598V96.6398C25.4199 98.8498 23.6299 100.63 21.4299 100.63C19.2199 100.63 17.4399 98.8398 17.4399 96.6398V33.3398" fill="#F5F4F5"/>
<path d="M36.03 101.04C33.6 101.04 31.63 99.0698 31.63 96.6398V61.8598C31.63 61.2598 31.14 60.7698 30.54 60.7698H26.91C26.31 60.7698 25.82 61.2598 25.82 61.8598V96.6398C25.82 99.0698 23.85 101.04 21.42 101.04C18.99 101.04 17.02 99.0698 17.02 96.6398V33.3398H17.83V96.6398C17.83 98.6198 19.44 100.23 21.42 100.23C23.4 100.23 25.01 98.6198 25.01 96.6398V61.8598C25.01 60.8098 25.86 59.9598 26.91 59.9598H30.54C31.59 59.9598 32.44 60.8098 32.44 61.8598V96.6398C32.44 98.6198 34.05 100.23 36.03 100.23C38.01 100.23 39.62 98.6198 39.62 96.6398V33.3398H40.43V96.6398C40.43 99.0698 38.46 101.04 36.03 101.04Z" fill="#8C8B8C"/>
</svg>
