<svg width="57" height="132" viewBox="0 0 57 132" fill="none" xmlns="http://www.w3.org/2000/svg">
<g clip-path="url(#clip0_515_546)">
<path d="M28.35 131.11C44.0073 131.11 56.7 125.504 56.7 118.59C56.7 111.675 44.0073 106.07 28.35 106.07C12.6927 106.07 0 111.675 0 118.59C0 125.504 12.6927 131.11 28.35 131.11Z" fill="#1D1D1B"/>
<path d="M27.78 119.04C27.93 119.49 28.01 119.98 28.01 120.5C28.01 121.02 27.93 121.5 27.78 121.96C27.63 122.41 27.42 122.83 27.14 123.21C26.87 123.59 26.53 123.92 26.13 124.23C25.75 124.53 25.3 124.78 24.81 124.99C24.32 125.2 23.79 125.35 23.2 125.46C22.63 125.57 22.02 125.62 21.38 125.62C20.73 125.62 20.12 125.57 19.54 125.46C18.97 125.35 18.43 125.19 17.94 124.99C17.45 124.78 17.01 124.53 16.62 124.23C16.23 123.93 15.9 123.59 15.61 123.21C15.34 122.83 15.12 122.41 14.97 121.96C14.83 121.51 14.75 121.02 14.75 120.5C14.75 119.98 14.83 119.49 14.97 119.04C15.12 118.59 15.34 118.17 15.61 117.79C15.89 117.41 16.22 117.08 16.62 116.78C17.01 116.48 17.46 116.22 17.94 116.02C18.43 115.81 18.96 115.66 19.54 115.55C20.12 115.44 20.73 115.39 21.38 115.39C22.02 115.39 22.63 115.44 23.21 115.55C23.78 115.66 24.32 115.82 24.81 116.02C25.31 116.23 25.75 116.48 26.13 116.78C26.52 117.08 26.86 117.41 27.14 117.79C27.42 118.17 27.63 118.59 27.78 119.04ZM24.3 121.8C24.43 121.43 24.51 121 24.51 120.51C24.51 120.02 24.43 119.58 24.3 119.2C24.16 118.83 23.96 118.52 23.7 118.27C23.43 118.02 23.11 117.83 22.71 117.7C22.33 117.58 21.87 117.51 21.38 117.51C20.87 117.51 20.42 117.57 20.04 117.7C19.65 117.83 19.33 118.02 19.05 118.27C18.79 118.52 18.59 118.83 18.45 119.2C18.32 119.58 18.25 120.01 18.25 120.51C18.25 121 18.32 121.43 18.45 121.8C18.59 122.18 18.79 122.49 19.05 122.74C19.32 122.99 19.64 123.18 20.04 123.3C20.43 123.43 20.88 123.49 21.38 123.49C21.88 123.49 22.33 123.43 22.71 123.3C23.1 123.18 23.42 122.98 23.7 122.74C23.97 122.49 24.16 122.18 24.3 121.8Z" fill="white"/>
<path d="M35.4799 115.39C36.0199 115.39 36.5299 115.42 37.0299 115.51C37.5299 115.59 37.9999 115.7 38.4299 115.85C38.8699 116 39.2799 116.19 39.6499 116.41C40.0299 116.63 40.3499 116.88 40.6499 117.17C40.9399 117.45 41.1899 117.76 41.3899 118.1C41.5899 118.44 41.7399 118.81 41.8199 119.21H38.3799C38.2999 118.92 38.1499 118.67 37.9799 118.46C37.8099 118.25 37.5899 118.08 37.3399 117.94C37.0999 117.8 36.8099 117.69 36.4999 117.62C36.1799 117.55 35.8399 117.52 35.4899 117.52C34.9799 117.52 34.5399 117.58 34.1499 117.71C33.7599 117.83 33.4399 118.03 33.1699 118.27C32.8999 118.52 32.6999 118.83 32.5599 119.2C32.4299 119.58 32.3599 120.01 32.3599 120.51C32.3599 121 32.4299 121.44 32.5599 121.82C32.6999 122.2 32.8999 122.52 33.1599 122.77C33.4199 123.02 33.7399 123.22 34.1399 123.35C34.5299 123.48 34.9799 123.54 35.4799 123.54C35.9099 123.54 36.3299 123.5 36.6899 123.42C37.0699 123.34 37.3899 123.21 37.6699 123.06C37.9499 122.9 38.1799 122.71 38.3499 122.48C38.5199 122.25 38.6099 122 38.6399 121.72H35.3499V120.17H41.9299V125.43H38.6999V123.14C38.5199 123.52 38.2799 123.87 37.9899 124.18C37.6999 124.49 37.3599 124.75 36.9799 124.97C36.5899 125.18 36.1699 125.35 35.7099 125.46C35.2399 125.57 34.7499 125.63 34.2299 125.63C33.7099 125.63 33.2199 125.58 32.7599 125.47C32.2899 125.36 31.8699 125.2 31.4599 124.99C31.0699 124.78 30.7099 124.53 30.3899 124.23C30.0699 123.93 29.7999 123.59 29.5699 123.21C29.3399 122.83 29.1699 122.41 29.0399 121.96C28.9199 121.51 28.8599 121.03 28.8599 120.52C28.8599 120 28.9399 119.52 29.0799 119.06C29.2299 118.61 29.4499 118.19 29.7199 117.81C29.9999 117.43 30.3299 117.09 30.7199 116.79C31.1099 116.49 31.5599 116.23 32.0399 116.03C32.5299 115.82 33.0599 115.67 33.6399 115.56C34.2299 115.44 34.8399 115.39 35.4799 115.39Z" fill="white"/>
<path d="M28.3401 32.7998C33.7304 32.7998 38.1001 28.4301 38.1001 23.0398C38.1001 17.6495 33.7304 13.2798 28.3401 13.2798C22.9498 13.2798 18.5801 17.6495 18.5801 23.0398C18.5801 28.4301 22.9498 32.7998 28.3401 32.7998Z" fill="white"/>
<path d="M28.3401 33.3198C22.6701 33.3198 18.0601 28.7098 18.0601 23.0398C18.0601 17.3698 22.6701 12.7598 28.3401 12.7598C34.0101 12.7598 38.6201 17.3698 38.6201 23.0398C38.6201 28.7098 34.0101 33.3198 28.3401 33.3198ZM28.3401 13.7998C23.2401 13.7998 19.1001 17.9498 19.1001 23.0398C19.1001 28.1298 23.2501 32.2798 28.3401 32.2798C33.4301 32.2798 37.5801 28.1298 37.5801 23.0398C37.5801 17.9498 33.4401 13.7998 28.3401 13.7998Z" fill="#1D1D1B"/>
<path d="M39.6399 72.5798C39.6399 74.3398 41.0699 75.7698 42.8299 75.7698C44.5899 75.7698 46.0199 74.3398 46.0199 72.5798V45.0698C46.0199 41.7598 43.3399 39.0698 40.0199 39.0698H16.6699C13.3599 39.0698 10.6699 41.7498 10.6699 45.0698V72.5798C10.6699 74.3398 12.0999 75.7698 13.8599 75.7698C15.6199 75.7698 17.0499 74.3398 17.0499 72.5798" fill="white"/>
<path d="M42.83 76.1699C40.85 76.1699 39.24 74.5599 39.24 72.5799H40.05C40.05 74.1099 41.3 75.3599 42.83 75.3599C44.36 75.3599 45.61 74.1099 45.61 72.5799V45.0699C45.61 41.9899 43.1 39.4799 40.02 39.4799H16.67C13.59 39.4799 11.08 41.9899 11.08 45.0699V72.5799C11.08 74.1099 12.33 75.3599 13.86 75.3599C15.39 75.3599 16.64 74.1099 16.64 72.5799H17.45C17.45 74.5599 15.84 76.1699 13.86 76.1699C11.88 76.1699 10.27 74.5599 10.27 72.5799V45.0699C10.27 41.5399 13.14 38.6699 16.67 38.6699H40.02C43.55 38.6699 46.42 41.5399 46.42 45.0699V72.5799C46.42 74.5599 44.81 76.1699 42.83 76.1699Z" fill="#1D1D1B"/>
<path d="M39.6403 45.3501V108.64C39.6403 110.85 37.8503 112.63 35.6503 112.63C33.4403 112.63 31.6603 110.84 31.6603 108.64V73.8601C31.6603 73.0301 30.9903 72.3601 30.1603 72.3601H26.5303C25.7003 72.3601 25.0303 73.0301 25.0303 73.8601V108.64C25.0303 110.85 23.2403 112.63 21.0403 112.63C18.8303 112.63 17.0503 110.84 17.0503 108.64V45.3501" fill="white"/>
<path d="M35.6501 113.04C33.2201 113.04 31.2501 111.07 31.2501 108.64V73.8599C31.2501 73.2599 30.7601 72.7699 30.1601 72.7699H26.5301C25.9301 72.7699 25.4401 73.2599 25.4401 73.8599V108.64C25.4401 111.07 23.4701 113.04 21.0401 113.04C18.6101 113.04 16.6401 111.07 16.6401 108.64V45.3499C16.6401 45.1299 16.8201 44.9399 17.0501 44.9399C17.2701 44.9399 17.4601 45.1199 17.4601 45.3499V108.64C17.4601 110.62 19.0701 112.23 21.0501 112.23C23.0301 112.23 24.6401 110.62 24.6401 108.64V73.8599C24.6401 72.8099 25.4901 71.9599 26.5401 71.9599H30.1701C31.2201 71.9599 32.0701 72.8099 32.0701 73.8599V108.64C32.0701 110.62 33.6801 112.23 35.6601 112.23C37.6401 112.23 39.2501 110.62 39.2501 108.64V45.3499C39.2501 45.1299 39.4301 44.9399 39.6601 44.9399C39.8801 44.9399 40.0701 45.1199 40.0701 45.3499V108.64C40.0501 111.06 38.0801 113.04 35.6501 113.04Z" fill="#1D1D1B"/>
</g>
<defs>
<clipPath id="clip0_515_546">
<rect width="56.69" height="131.11" fill="white"/>
</clipPath>
</defs>
</svg>
