<svg viewBox="0 0 61 59" fill="none" xmlns="http://www.w3.org/2000/svg">
<path opacity="0.2" d="M55.3753 43.2501C56.5425 43.2512 57.6953 42.9927 58.7503 42.4936V54.5001C58.7503 55.0969 58.5133 55.6692 58.0913 56.0911C57.6694 56.5131 57.0971 56.7501 56.5003 56.7501H16.0003C15.4036 56.7501 14.8313 56.5131 14.4093 56.0911C13.9874 55.6692 13.7503 55.0969 13.7503 54.5001V42.4936C12.55 43.0615 11.2256 43.3166 9.90026 43.2354C8.57489 43.1541 7.29159 42.739 6.16969 42.0287C5.04779 41.3183 4.12372 40.3358 3.48341 39.1726C2.84309 38.0093 2.50732 36.703 2.50732 35.3751C2.50732 34.0473 2.84309 32.741 3.48341 31.5777C4.12372 30.4144 5.04779 29.4319 6.16969 28.7216C7.29159 28.0113 8.57489 27.5962 9.90026 27.5149C11.2256 27.4336 12.55 27.6888 13.7503 28.2567V16.2501C13.7503 15.6534 13.9874 15.0811 14.4093 14.6591C14.8313 14.2372 15.4036 14.0001 16.0003 14.0001H29.1319C28.5634 12.7998 28.3077 11.4752 28.3885 10.1495C28.4694 8.82387 28.8843 7.54019 29.5945 6.41791C30.3048 5.29562 31.2873 4.3712 32.4508 3.73063C33.6142 3.09006 34.9208 2.75415 36.2489 2.75415C37.5771 2.75415 38.8836 3.09006 40.0471 3.73063C41.2105 4.3712 42.1931 5.29562 42.9033 6.41791C43.6136 7.54019 44.0284 8.82387 44.1093 10.1495C44.1902 11.4752 43.9345 12.7998 43.366 14.0001H56.5003C57.0971 14.0001 57.6694 14.2372 58.0913 14.6591C58.5133 15.0811 58.7503 15.6534 58.7503 16.2501V28.2567C57.6833 27.7518 56.5163 27.4933 55.3359 27.5003C54.1554 27.5072 52.9916 27.7795 51.9305 28.2969C50.8695 28.8144 49.9384 29.5637 49.206 30.4896C48.4736 31.4154 47.9588 32.4941 47.6996 33.6458C47.4403 34.7974 47.4433 35.9926 47.7083 37.143C47.9733 38.2934 48.4936 39.3694 49.2306 40.2916C49.9676 41.2138 50.9025 41.9584 51.9661 42.4705C53.0297 42.9826 54.1948 43.2491 55.3753 43.2501Z" fill="#8A63D2"/>
<path d="M59.9512 40.5895C59.6303 40.3871 59.2636 40.2692 58.885 40.2466C58.5063 40.2239 58.1281 40.2974 57.7855 40.4601C56.9282 40.8656 55.9822 41.0477 55.0356 40.9895C54.089 40.9314 53.1725 40.6348 52.3712 40.1274C51.57 39.62 50.91 38.9182 50.4527 38.0874C49.9955 37.2565 49.7557 36.3235 49.7557 35.3751C49.7557 34.4267 49.9955 33.4937 50.4527 32.6629C50.91 31.832 51.57 31.1303 52.3712 30.6229C53.1725 30.1155 54.089 29.8189 55.0356 29.7607C55.9822 29.7025 56.9282 29.8847 57.7855 30.2901C58.1285 30.4529 58.5072 30.5262 58.8861 30.5033C59.2651 30.4804 59.6321 30.3619 59.953 30.1589C60.2739 29.956 60.5382 29.6751 60.7213 29.3425C60.9044 29.0099 61.0003 28.6364 61.0002 28.2567V16.2501C61.0002 15.0566 60.5261 13.9121 59.6822 13.0681C58.8383 12.2242 57.6937 11.7501 56.5002 11.7501H46.3133C46.3554 11.3766 46.3761 11.001 46.3752 10.6251C46.3729 9.24191 46.0883 7.87372 45.5389 6.60428C44.9896 5.33484 44.187 4.19085 43.1802 3.24231C41.7858 1.93274 40.0489 1.04499 38.1707 0.681881C36.2926 0.318772 34.3499 0.495163 32.5679 1.19062C30.7858 1.88608 29.2372 3.07215 28.1015 4.61146C26.9657 6.15077 26.2893 7.98033 26.1505 9.88825C26.1074 10.5088 26.1205 11.132 26.1899 11.7501H16.0002C14.8067 11.7501 13.6621 12.2242 12.8182 13.0681C11.9743 13.9121 11.5002 15.0566 11.5002 16.2501V25.312C11.1267 25.2699 10.7511 25.2493 10.3752 25.2501C8.9924 25.2524 7.6246 25.5369 6.3556 26.0863C5.0866 26.6356 3.94312 27.4383 2.99521 28.4451C2.0405 29.4536 1.30537 30.6491 0.83628 31.9562C0.367186 33.2633 0.17433 34.6535 0.2699 36.0389C0.431135 38.4784 1.46768 40.7776 3.18891 42.5138C4.91014 44.2501 7.20034 45.3065 9.63834 45.4889C10.2589 45.532 10.8821 45.5189 11.5002 45.4495V54.5001C11.5002 55.6936 11.9743 56.8382 12.8182 57.6821C13.6621 58.526 14.8067 59.0001 16.0002 59.0001H56.5002C57.6937 59.0001 58.8383 58.526 59.6822 57.6821C60.5261 56.8382 61.0002 55.6936 61.0002 54.5001V42.4936C61.0004 42.1134 60.9044 41.7394 60.7209 41.4064C60.5374 41.0735 60.2726 40.7924 59.9512 40.5895ZM56.5002 54.5001H16.0002V42.4936C16.0003 42.1139 15.9044 41.7403 15.7213 41.4077C15.5382 41.0751 15.2739 40.7943 14.953 40.5913C14.6321 40.3883 14.2651 40.2699 13.8861 40.2469C13.5072 40.224 13.1285 40.2973 12.7855 40.4601C11.9282 40.8656 10.9822 41.0477 10.0356 40.9895C9.08901 40.9314 8.17248 40.6348 7.37123 40.1274C6.56999 39.62 5.91004 38.9182 5.45274 38.0874C4.99545 37.2565 4.75565 36.3235 4.75565 35.3751C4.75565 34.4267 4.99545 33.4937 5.45274 32.6629C5.91004 31.832 6.56999 31.1303 7.37123 30.6229C8.17248 30.1155 9.08901 29.8189 10.0356 29.7607C10.9822 29.7025 11.9282 29.8847 12.7855 30.2901C13.1285 30.4529 13.5072 30.5262 13.8861 30.5033C14.2651 30.4804 14.6321 30.3619 14.953 30.1589C15.2739 29.956 15.5382 29.6751 15.7213 29.3425C15.9044 29.0099 16.0003 28.6364 16.0002 28.2567V16.2501H29.1318C29.5115 16.2502 29.885 16.1543 30.2176 15.9712C30.5502 15.7881 30.8311 15.5238 31.034 15.2029C31.237 14.882 31.3555 14.515 31.3784 14.136C31.4013 13.7571 31.328 13.3784 31.1652 13.0354C30.7597 12.1781 30.5776 11.2321 30.6358 10.2855C30.694 9.33892 30.9906 8.42239 31.4979 7.62114C32.0053 6.81989 32.7071 6.15995 33.538 5.70265C34.3688 5.24536 35.3018 5.00556 36.2502 5.00556C37.1986 5.00556 38.1316 5.24536 38.9625 5.70265C39.7933 6.15995 40.4951 6.81989 41.0025 7.62114C41.5099 8.42239 41.8064 9.33892 41.8646 10.2855C41.9228 11.2321 41.7407 12.1781 41.3352 13.0354C41.1724 13.3784 41.0991 13.7571 41.122 14.136C41.145 14.515 41.2634 14.882 41.4664 15.2029C41.6694 15.5238 41.9502 15.7881 42.2828 15.9712C42.6154 16.1543 42.989 16.2502 43.3687 16.2501H56.5002V25.3148C55.8821 25.244 55.2588 25.2308 54.6383 25.2754C52.0197 25.4609 49.5754 26.6562 47.8211 28.6092C46.0668 30.5622 45.1396 33.1203 45.2352 35.7438C45.3308 38.3673 46.4416 40.8511 48.3334 42.6713C50.2252 44.4915 52.75 45.5057 55.3752 45.5001C55.7511 45.501 56.1267 45.4803 56.5002 45.4382V54.5001Z" fill="#0F0F0F"/>
</svg>
