<svg viewBox="0 0 20 20" fill="currentColor" xmlns="http://www.w3.org/2000/svg">
<rect width="20" height="20" rx="10" transform="matrix(1 0 0 -1 0 20)" fill="#8A63D2"/>
<path d="M10.6 15C10.6 15.3314 10.3314 15.6 10 15.6C9.66863 15.6 9.4 15.3314 9.4 15L10.6 15ZM9.57574 4.57574C9.81005 4.34142 10.1899 4.34142 10.4243 4.57574L14.2426 8.39411C14.477 8.62843 14.477 9.00833 14.2426 9.24264C14.0083 9.47696 13.6284 9.47696 13.3941 9.24264L10 5.84853L6.60589 9.24264C6.37157 9.47696 5.99167 9.47696 5.75736 9.24264C5.52304 9.00833 5.52304 8.62843 5.75736 8.39411L9.57574 4.57574ZM9.4 15L9.4 5L10.6 5L10.6 15L9.4 15Z" fill="white"/>
</svg>
