<svg width="71" height="71" viewBox="0 0 71 71" fill="none" xmlns="http://www.w3.org/2000/svg">
<path d="M40.947 1.89892L39.1824 1.69826L38.6577 6.31252L37.4018 6.1697L37.9265 1.55544L36.1619 1.35477L36.2835 0.285664L41.0686 0.829813L40.947 1.89892Z" fill="#161616"/>
<path d="M43.5758 7.22772L42.447 6.82625L44.4309 1.24857L45.5597 1.65004L44.6093 4.32205C44.7314 4.11785 44.8654 3.94614 45.0111 3.80694C45.1569 3.66773 45.3116 3.56286 45.4754 3.49233C45.6396 3.42055 45.812 3.38351 45.9925 3.38121C46.1748 3.3781 46.362 3.41073 46.5542 3.4791C46.7778 3.55863 46.9608 3.66898 47.103 3.81015C47.2465 3.95177 47.3488 4.12186 47.4097 4.32045C47.4707 4.51903 47.4896 4.7444 47.4664 4.99655C47.445 5.24789 47.3808 5.52367 47.2741 5.82391L46.4155 8.23777L45.2868 7.8363L46.0783 5.61088C46.3294 4.90487 46.1861 4.45625 45.6485 4.26501C45.504 4.21362 45.3672 4.19254 45.2379 4.20177C45.1091 4.20974 44.9893 4.24635 44.8783 4.31161C44.7686 4.37732 44.6691 4.47211 44.5798 4.596C44.4909 4.71863 44.4147 4.86914 44.3512 5.04753L43.5758 7.22772Z" fill="#161616"/>
<path d="M53.1265 10.1879C52.9415 10.3673 52.7414 10.5072 52.5262 10.6075C52.3128 10.7074 52.0915 10.7675 51.8622 10.7878C51.6337 10.807 51.4018 10.7854 51.1666 10.723C50.9319 10.6624 50.7014 10.5603 50.4751 10.4167C50.2882 10.2981 50.125 10.1646 49.9856 10.016C49.8472 9.86824 49.7336 9.71008 49.6448 9.54156C49.5577 9.37263 49.4953 9.19482 49.4574 9.00813C49.4207 8.82216 49.4102 8.63228 49.4258 8.43847C49.4421 8.24354 49.4841 8.04673 49.5517 7.84806C49.6212 7.64897 49.7182 7.45149 49.8425 7.25561C49.9661 7.06085 50.1028 6.89021 50.2526 6.74369C50.4032 6.59605 50.5623 6.47355 50.7299 6.3762C50.8986 6.27956 51.074 6.20848 51.256 6.16295C51.4381 6.11743 51.6232 6.09828 51.8113 6.10552C52.0004 6.11347 52.1908 6.14821 52.3823 6.20974C52.5738 6.27128 52.7619 6.36063 52.9465 6.4778C53.2223 6.65284 53.4426 6.85817 53.6073 7.09379C53.7727 7.32828 53.8805 7.58145 53.9307 7.85331C53.9826 8.12475 53.9755 8.40843 53.9093 8.70436C53.8438 8.99916 53.7175 9.29403 53.5303 9.58898C53.5017 9.63401 53.4716 9.67889 53.4401 9.72361C53.4104 9.76793 53.3777 9.81194 53.3421 9.85565L50.647 8.14523C50.5753 8.29554 50.5292 8.44157 50.5087 8.58333C50.489 8.72397 50.4948 8.85792 50.5261 8.9852C50.5582 9.11135 50.6148 9.22863 50.696 9.33703C50.7784 9.44615 50.8854 9.5425 51.0171 9.62609C51.4078 9.87401 51.794 9.86014 52.1758 9.58449L53.1265 10.1879ZM52.7812 8.62321C52.9084 8.32813 52.9434 8.06767 52.8862 7.84185C52.8308 7.61561 52.6843 7.42711 52.4468 7.27636C52.3252 7.1992 52.2035 7.14719 52.0815 7.12035C51.9596 7.0935 51.8397 7.09083 51.7218 7.11235C51.6039 7.13386 51.4886 7.17992 51.3759 7.25052C51.2639 7.31999 51.1571 7.41246 51.0554 7.52794L52.7812 8.62321Z" fill="#161616"/>
<path d="M65.8979 17.9236L61.1724 21.1466L60.4602 20.1024L64.3083 17.4778L59.6251 18.878L58.8475 17.738L61.8713 13.9011L58.0215 16.5268L57.3386 15.5255L62.0641 12.3025L63.2068 13.9779L60.3336 17.6274L64.7879 16.2961L65.8979 17.9236Z" fill="#161616"/>
<path d="M67.1372 22.5947L66.6939 21.4559L67.6705 21.0757L68.1138 22.2145L67.1372 22.5947ZM62.5928 24.3511L62.1582 23.2347L66.2677 21.6347L66.7023 22.7511L62.5928 24.3511Z" fill="#161616"/>
<path d="M63.9396 28.2898L63.7168 27.1127L68.0498 26.2925L68.2726 27.4696L66.9698 27.7162C67.2077 27.7187 67.4235 27.7477 67.6172 27.8033C67.811 27.8589 67.9796 27.9396 68.1231 28.0454C68.2679 28.151 68.3869 28.2812 68.48 28.4359C68.5746 28.5917 68.6409 28.7698 68.6788 28.9702C68.7229 29.2034 68.72 29.417 68.6698 29.6111C68.62 29.8064 68.5247 29.9805 68.384 30.1334C68.2433 30.2862 68.0582 30.4162 67.8288 30.5234C67.601 30.6317 67.3305 30.7154 67.0174 30.7747L64.5001 31.2512L64.2773 30.0741L66.5981 29.6348C67.3344 29.4954 67.6494 29.1454 67.5433 28.5847C67.5148 28.434 67.4639 28.3052 67.3908 28.1983C67.3189 28.0911 67.2268 28.0061 67.1145 27.9432C67.0024 27.8817 66.8704 27.8436 66.7183 27.8289C66.5676 27.814 66.3992 27.8242 66.2132 27.8594L63.9396 28.2898Z" fill="#161616"/>
<path d="M64.8016 36.4967C64.7044 36.1263 64.6575 35.7964 64.6607 35.5071C64.6662 35.0218 64.8123 34.6554 65.0991 34.4079C65.3872 34.1618 65.8119 34.0419 66.3732 34.0483L68.2531 34.0694L68.2593 33.5175L69.2113 33.5282L69.2051 34.0801L70.221 34.0916L70.2075 35.2895L69.1916 35.2781L69.1773 36.546L68.2254 36.5353L68.2396 35.2673L66.3578 35.2462C66.1044 35.2433 65.9186 35.2879 65.8002 35.3799C65.6832 35.4719 65.6235 35.6199 65.6212 35.8239C65.6203 35.9066 65.6278 36.0033 65.6439 36.1142C65.6614 36.2251 65.6886 36.356 65.7255 36.5071L64.8016 36.4967Z" fill="#161616"/>
<path d="M68.1719 45.483L68.5458 44.3196L69.5435 44.6403L69.1696 45.8037L68.1719 45.483ZM63.5372 43.9808L63.9038 42.8403L68.1023 44.1897L67.7357 45.3302L63.5372 43.9808Z" fill="#161616"/>
<path d="M65.7774 50.5818C65.6277 50.8692 65.463 51.1089 65.2833 51.3009C65.103 51.4941 64.9133 51.6374 64.7144 51.7307C64.516 51.8258 64.3119 51.8698 64.1021 51.8627C63.8917 51.8568 63.6806 51.7988 63.469 51.6885L64.0151 50.6402C64.1061 50.6877 64.196 50.7142 64.2848 50.7198C64.3736 50.7255 64.46 50.7096 64.5441 50.6723C64.6276 50.6361 64.7067 50.5781 64.7814 50.4982C64.8566 50.4201 64.9257 50.3208 64.9885 50.2002C65.0439 50.0938 65.0847 49.991 65.1108 49.8918C65.1369 49.7926 65.148 49.7022 65.1439 49.6204C65.1399 49.5386 65.1212 49.4665 65.0876 49.4039C65.0534 49.3425 65.005 49.2955 64.9424 49.2628C64.8655 49.2228 64.7905 49.2123 64.7175 49.2313C64.6456 49.251 64.5742 49.2898 64.5035 49.3477C64.4322 49.4067 64.3609 49.4801 64.2896 49.5677C64.2196 49.656 64.1477 49.7494 64.0739 49.8477L63.8919 50.0845C63.8194 50.1805 63.7408 50.2808 63.6561 50.3856C63.5721 50.4921 63.4818 50.5932 63.3854 50.6888C63.289 50.7844 63.1856 50.8704 63.0752 50.9466C62.9648 51.0229 62.8472 51.0797 62.7226 51.117C62.5979 51.1543 62.4659 51.1667 62.3266 51.1543C62.1872 51.1418 62.0395 51.0949 61.8834 51.0136C61.6871 50.9114 61.5334 50.7794 61.4221 50.6177C61.3103 50.4572 61.2421 50.2706 61.2177 50.0579C61.1937 49.847 61.2143 49.6127 61.2794 49.3549C61.3427 49.0977 61.4517 48.8208 61.6063 48.5239C61.769 48.2118 61.9429 47.9529 62.1282 47.7472C62.3129 47.5427 62.5057 47.3906 62.7065 47.2908C62.908 47.1927 63.1162 47.1479 63.3314 47.1562C63.5477 47.1652 63.7676 47.2279 63.9911 47.3443L63.445 48.3926C63.2487 48.2903 63.0616 48.2816 62.8837 48.3663C62.7069 48.4516 62.544 48.6373 62.3949 48.9235C62.3296 49.0488 62.2806 49.1661 62.2478 49.2753C62.2155 49.3863 62.2004 49.4859 62.2025 49.5742C62.204 49.6637 62.2224 49.7409 62.2577 49.8059C62.2924 49.8721 62.344 49.9231 62.4126 49.9588C62.4966 50.0025 62.5763 50.0155 62.6517 49.9976C62.7283 49.9804 62.8044 49.9411 62.88 49.8798C62.9561 49.8202 63.0335 49.7425 63.112 49.6466C63.1905 49.5507 63.2737 49.4459 63.3614 49.3323L63.5434 49.0955C63.6098 49.0084 63.6832 48.9151 63.7636 48.8156C63.844 48.7162 63.9306 48.6207 64.0233 48.5292C64.1161 48.4377 64.2159 48.3544 64.3227 48.2792C64.4289 48.2053 64.5419 48.1499 64.6618 48.1131C64.7829 48.077 64.9101 48.0636 65.0435 48.073C65.1775 48.0841 65.319 48.1285 65.468 48.2061C65.656 48.3041 65.8045 48.4318 65.9134 48.5893C66.0223 48.7467 66.0906 48.9274 66.1182 49.1312C66.1452 49.3362 66.1304 49.5608 66.0739 49.8049C66.0179 50.0509 65.9191 50.3099 65.7774 50.5818Z" fill="#161616"/>
<path d="M53.3977 58.7622L54.755 57.5891L59.4438 59.6006L56.4436 56.1295L57.3606 55.3369L61.101 59.6644L59.6545 60.9148L55.2315 59.0303L58.0551 62.2972L57.1382 63.0897L53.3977 58.7622Z" fill="#161616"/>
<path d="M52.3947 63.1251C52.5223 63.3966 52.6143 63.6642 52.6705 63.928C52.726 64.1936 52.7487 64.4504 52.7385 64.6982C52.7289 64.9473 52.6864 65.1861 52.611 65.4145C52.5357 65.6429 52.4306 65.855 52.2958 66.051C52.1616 66.2481 51.9983 66.4273 51.8059 66.5884C51.6123 66.7501 51.3924 66.8888 51.1462 67.0045C50.9001 67.1202 50.6536 67.2007 50.4067 67.246C50.1587 67.2918 49.9159 67.3035 49.6785 67.281C49.4404 67.2603 49.21 67.2058 48.9873 67.1175C48.7634 67.0297 48.5524 66.9101 48.3545 66.7585C48.156 66.6088 47.9728 66.4275 47.805 66.2146C47.636 66.0024 47.488 65.7611 47.3609 65.4908C47.2339 65.2205 47.1426 64.9525 47.087 64.6869C47.0302 64.4219 47.0073 64.1646 47.0181 63.9149C47.0283 63.667 47.0711 63.4289 47.1464 63.2005C47.2206 62.9727 47.3254 62.7599 47.4608 62.5622C47.5956 62.3662 47.7598 62.1874 47.9534 62.0257C48.1458 61.8646 48.3651 61.7262 48.6113 61.6105C48.8574 61.4948 49.1045 61.414 49.3526 61.3681C49.5994 61.3229 49.8413 61.3108 50.0782 61.3321C50.3156 61.3546 50.5463 61.4097 50.7702 61.4975C50.9941 61.5852 51.2048 61.7043 51.4021 61.8546C51.6 62.0062 51.7835 62.1881 51.9525 62.4003C52.1203 62.6132 52.2677 62.8548 52.3947 63.1251ZM51.2435 63.6661C51.1137 63.3897 50.9684 63.159 50.8077 62.9737C50.6457 62.7891 50.4726 62.6509 50.2881 62.5594C50.1042 62.469 49.9102 62.4261 49.7061 62.4307C49.5008 62.4358 49.2895 62.4895 49.0723 62.5915C48.8551 62.6936 48.6796 62.8218 48.5458 62.976C48.4108 63.1308 48.3195 63.3078 48.2717 63.507C48.2232 63.708 48.219 63.9295 48.2591 64.1715C48.2979 64.414 48.3823 64.6734 48.5121 64.9497C48.642 65.2261 48.7879 65.4566 48.9498 65.6412C49.1105 65.8265 49.2834 65.964 49.4686 66.0538C49.653 66.1454 49.8479 66.1886 50.0532 66.1834C50.2573 66.1788 50.468 66.1255 50.6852 66.0234C50.9024 65.9214 51.0785 65.7929 51.2135 65.6381C51.3472 65.4839 51.4377 65.3066 51.485 65.1061C51.5328 64.9069 51.5372 64.686 51.4984 64.4435C51.4584 64.2016 51.3734 63.9424 51.2435 63.6661Z" fill="#161616"/>
<path d="M40.1788 69.2084L41.9236 68.8771L41.0573 64.3146L42.2991 64.0788L43.1654 68.6413L44.9102 68.31L45.111 69.3671L40.3795 70.2655L40.1788 69.2084Z" fill="#161616"/>
<path d="M31.862 64.6476L33.0486 64.8128L32.2326 70.6762L31.046 70.5111L31.862 64.6476Z" fill="#161616"/>
<path d="M26.4781 68.5515L27.6529 68.888L27.3644 69.8955L26.1896 69.559L26.4781 68.5515ZM27.831 63.8711L28.9827 64.2009L27.7685 68.4405L26.6168 68.1107L27.831 63.8711Z" fill="#161616"/>
<path d="M19.0921 65.1138L22.3584 61.7999L23.8506 62.5272L23.2378 67.1346L22.1052 66.5825L22.7553 62.8433L20.1996 65.6536L19.0921 65.1138Z" fill="#161616"/>
<path d="M15.2541 58.8936C15.4561 58.7336 15.6692 58.6145 15.8935 58.5363C16.1158 58.4583 16.342 58.4208 16.5722 58.4235C16.8015 58.4273 17.03 58.4721 17.2577 58.5578C17.4852 58.6416 17.7043 58.7662 17.9151 58.9318C18.0891 59.0686 18.2381 59.2178 18.3619 59.3796C18.4847 59.5405 18.5819 59.7093 18.6534 59.8859C18.7231 60.0627 18.7674 60.2458 18.7863 60.4354C18.8042 60.6241 18.7957 60.8141 18.7607 61.0053C18.7249 61.1977 18.6634 61.3893 18.5762 61.5801C18.487 61.7713 18.3708 61.958 18.2275 62.1405C18.085 62.3218 17.9318 62.4779 17.768 62.6086C17.6034 62.7405 17.4329 62.8464 17.2564 62.9264C17.0788 63.0057 16.8972 63.0588 16.7115 63.0858C16.5257 63.1129 16.3397 63.1134 16.1533 63.0873C15.9658 63.0604 15.7799 63.0068 15.5956 62.9263C15.4112 62.8459 15.233 62.7381 15.0611 62.603C14.8042 62.4012 14.6057 62.1748 14.4654 61.9239C14.3243 61.674 14.2425 61.4113 14.2198 61.1358C14.1953 60.8605 14.2309 60.5789 14.3264 60.2911C14.4212 60.0044 14.5764 59.7237 14.7923 59.449C14.8252 59.4071 14.8596 59.3654 14.8955 59.3241C14.9295 59.283 14.9664 59.2425 15.0063 59.2025L17.5162 61.1746C17.6026 61.0323 17.6631 60.8916 17.6977 60.7526C17.7315 60.6147 17.7392 60.4808 17.7207 60.351C17.7015 60.2223 17.6569 60.0999 17.587 59.9839C17.516 59.8671 17.4191 59.7605 17.2965 59.6641C16.9327 59.3783 16.547 59.3533 16.1395 59.5893L15.2541 58.8936ZM15.4408 60.485C15.2845 60.7659 15.2236 61.0215 15.2579 61.2519C15.2903 61.4826 15.4171 61.6848 15.6384 61.8586C15.7516 61.9476 15.8675 62.0115 15.9861 62.0505C16.1048 62.0894 16.2238 62.1041 16.3432 62.0945C16.4627 62.0849 16.582 62.0507 16.7012 61.9917C16.8196 61.9338 16.9352 61.8525 17.048 61.7479L15.4408 60.485Z" fill="#161616"/>
<path d="M11.7123 53.1375L6.76954 56.0203L5.34375 53.5757C5.18186 53.2982 5.07189 53.0289 5.01384 52.7679C4.95512 52.5058 4.94616 52.2602 4.98697 52.0311C5.02595 51.8016 5.11373 51.5922 5.25032 51.4029C5.38691 51.2136 5.56922 51.0525 5.79727 50.9195C5.99652 50.8033 6.19673 50.7297 6.3979 50.6989C6.59791 50.6686 6.79159 50.6792 6.97893 50.7304C7.16445 50.7812 7.33998 50.8718 7.50553 51.0021C7.66925 51.132 7.81537 51.2991 7.94386 51.5036C7.84281 51.2986 7.81428 51.0829 7.85825 50.8566C7.9004 50.6298 8.01141 50.3914 8.19128 50.1414L9.16802 48.7753L9.87437 49.9863L8.90238 51.3566C8.83116 51.4568 8.77698 51.5479 8.73983 51.6297C8.70153 51.7123 8.67983 51.7928 8.67474 51.8714C8.66965 51.95 8.68111 52.0306 8.70913 52.113C8.73648 52.1943 8.78005 52.2862 8.83983 52.3887L9.258 53.1057L11.0755 52.0457L11.7123 53.1375ZM7.66149 52.393C7.58626 52.264 7.50411 52.1575 7.41505 52.0736C7.32484 51.9904 7.23079 51.931 7.13289 51.8955C7.03318 51.8595 6.93053 51.8476 6.82496 51.8598C6.71823 51.8727 6.61074 51.9107 6.50247 51.9738C6.28825 52.0987 6.16568 52.2644 6.13476 52.4707C6.10384 52.6771 6.16563 52.9127 6.32014 53.1776L7.03454 54.4025L8.37691 53.6196L7.66149 52.393Z" fill="#161616"/>
<path d="M6.64105 41.5679L7.10527 43.3008L3.25109 46.644L7.68283 45.4568L7.99645 46.6275L2.47126 48.1076L1.97651 46.2607L5.60042 43.1014L1.42949 44.2187L1.11587 43.048L6.64105 41.5679Z" fill="#161616"/>
<path d="M6.75238 21.172L7.40833 20.0915L7.80667 20.3333C7.94686 20.4184 8.08924 20.4768 8.23383 20.5084C8.3791 20.5389 8.51857 20.5417 8.65225 20.5168C8.78592 20.4918 8.91047 20.4395 9.0259 20.3599C9.14134 20.2802 9.23988 20.1731 9.32153 20.0387C9.40387 19.903 9.45374 19.7656 9.47116 19.6265C9.48743 19.4866 9.47487 19.3518 9.43347 19.2222C9.39207 19.0926 9.32399 18.9709 9.22922 18.8572C9.13332 18.7428 9.0147 18.6428 8.87338 18.557L5.79265 16.6867L6.44859 15.6062L9.543 17.4848C9.73903 17.6038 9.90882 17.7365 10.0523 17.8829C10.1959 18.0293 10.3132 18.1855 10.4042 18.3516C10.4953 18.5176 10.5608 18.6923 10.6008 18.8757C10.6396 19.0583 10.6524 19.2455 10.639 19.437C10.6257 19.6286 10.5862 19.8222 10.5204 20.0178C10.4558 20.2141 10.3647 20.4091 10.2471 20.6029C10.1302 20.7955 9.99917 20.9663 9.8541 21.1154C9.71087 21.2639 9.55736 21.3883 9.39357 21.4886C9.23047 21.5876 9.05893 21.6621 8.87893 21.7119C8.6978 21.7611 8.51223 21.7841 8.32223 21.7811C8.13291 21.7769 7.9402 21.7449 7.74408 21.6851C7.54797 21.6253 7.35189 21.5359 7.15585 21.4169L6.75238 21.172Z" fill="#161616"/>
<path d="M11.9913 17.4871L7.87632 13.5112L9.84274 11.4759C10.066 11.2449 10.2954 11.066 10.5308 10.9394C10.7672 10.8118 11.0012 10.7366 11.2327 10.7137C11.4643 10.689 11.6896 10.7167 11.9088 10.7969C12.128 10.877 12.3326 11.0088 12.5224 11.1922C12.6883 11.3525 12.8134 11.5253 12.8977 11.7105C12.981 11.8949 13.0234 12.0841 13.0248 12.2784C13.0263 12.4707 12.9867 12.6642 12.9061 12.8589C12.8255 13.0517 12.7042 13.2377 12.5423 13.4168C12.7122 13.2639 12.9121 13.178 13.1418 13.159C13.3715 13.138 13.6311 13.1802 13.9205 13.2856L15.5003 13.8553L14.5261 14.8636L12.9436 14.2996C12.8279 14.2582 12.7255 14.2307 12.6367 14.2171C12.5468 14.2027 12.4634 14.2036 12.3864 14.22C12.3093 14.2364 12.2349 14.2693 12.1632 14.3186C12.0923 14.367 12.0157 14.4339 11.9332 14.5192L11.3565 15.1161L12.8696 16.5781L11.9913 17.4871ZM11.6097 13.3861C11.7134 13.2788 11.7936 13.1708 11.8502 13.0624C11.9058 12.953 11.9375 12.8463 11.9451 12.7425C11.9527 12.6367 11.9364 12.5347 11.896 12.4364C11.8547 12.3371 11.789 12.244 11.6989 12.1569C11.5205 11.9846 11.3278 11.9115 11.1208 11.9377C10.9138 11.9639 10.7038 12.0873 10.4907 12.3078L9.50541 13.3276L10.623 14.4074L11.6097 13.3861Z" fill="#161616"/>
<path d="M18.333 11.6086L17.2914 12.3247L14.0511 7.61101L15.0927 6.89497L18.333 11.6086Z" fill="#161616"/>
</svg>
