<svg viewBox="0 0 20 16" fill="currentColor" xmlns="http://www.w3.org/2000/svg">
<path fill-rule="evenodd" clip-rule="evenodd" d="M12.972 0C13.7087 0 14.4871 0.257465 15.2001 0.541668L15.7219 0.755562C16.9696 1.27841 17.6707 2.37561 18.2144 3.58075C19.0967 5.5365 19.7097 8.14383 19.9216 10.1263C20.0226 11.0671 20.0473 12.0137 19.8661 12.6505C19.671 13.3308 19.0076 13.812 18.3629 14.1903L18.0441 14.3715L17.7133 14.5557C17.543 14.6508 17.3677 14.7448 17.1934 14.8369L16.6765 15.1043L15.9665 15.4578L15.3951 15.7391C15.2784 15.802 15.1502 15.8409 15.0182 15.8533C14.8862 15.8658 14.753 15.8516 14.6265 15.8116C14.5001 15.7716 14.383 15.7067 14.2821 15.6205C14.1813 15.5344 14.0987 15.4289 14.0394 15.3103C13.9801 15.1917 13.9452 15.0624 13.9369 14.93C13.9285 14.7977 13.9468 14.665 13.9906 14.5398C14.0345 14.4147 14.1031 14.2996 14.1923 14.2015C14.2815 14.1033 14.3895 14.0241 14.5099 13.9685L15.2922 13.5823L14.7178 12.9792C13.3414 13.5437 11.7203 13.8635 9.99827 13.8635C8.27622 13.8635 6.65518 13.5447 5.27873 12.9792L4.70438 13.5813L5.48965 13.9675C5.60604 14.0256 5.70984 14.1061 5.79512 14.2044C5.8804 14.3026 5.9455 14.4167 5.9867 14.5401C6.02789 14.6635 6.04438 14.7938 6.03521 14.9236C6.02605 15.0533 5.99141 15.18 5.93328 15.2964C5.87516 15.4128 5.79467 15.5166 5.69643 15.6019C5.59819 15.6872 5.48411 15.7523 5.3607 15.7935C5.11148 15.8767 4.83942 15.8574 4.60437 15.74L4.06567 15.4727C3.66759 15.2746 3.26852 15.0786 2.8744 14.8716L1.95544 14.3715L1.63757 14.1903C0.992919 13.812 0.32846 13.3308 0.134371 12.6505C-0.0478352 12.0137 -0.0220887 11.068 0.0779267 10.1253C0.289841 8.14383 0.902806 5.5365 1.78512 3.58075C2.32877 2.37561 3.02987 1.27841 4.27758 0.755562C5.10543 0.408974 6.10856 0 7.02751 0C7.62463 0 8.09401 0.549589 8.00786 1.13582C8.66684 1.03832 9.33212 0.989661 9.99827 0.990252C10.6825 0.990252 11.351 1.03976 11.9926 1.13681C11.9735 0.996182 11.9846 0.853105 12.0249 0.71705C12.0653 0.580994 12.1341 0.455062 12.2268 0.34759C12.3194 0.240117 12.4339 0.153556 12.5625 0.0936336C12.6912 0.0337116 12.8301 0.00179625 12.972 0ZM6.77995 6.43664C6.32034 6.43664 5.87956 6.61921 5.55458 6.9442C5.22959 7.26919 5.04701 7.70997 5.04701 8.16957C5.04701 8.62918 5.22959 9.06996 5.55458 9.39495C5.87956 9.71994 6.32034 9.90252 6.77995 9.90252C7.23955 9.90252 7.68033 9.71994 8.00532 9.39495C8.33031 9.06996 8.51289 8.62918 8.51289 8.16957C8.51289 7.70997 8.33031 7.26919 8.00532 6.9442C7.68033 6.61921 7.23955 6.43664 6.77995 6.43664ZM13.2166 6.43664C12.757 6.43664 12.3162 6.61921 11.9912 6.9442C11.6662 7.26919 11.4836 7.70997 11.4836 8.16957C11.4836 8.62918 11.6662 9.06996 11.9912 9.39495C12.3162 9.71994 12.757 9.90252 13.2166 9.90252C13.6762 9.90252 14.117 9.71994 14.442 9.39495C14.7669 9.06996 14.9495 8.62918 14.9495 8.16957C14.9495 7.70997 14.7669 7.26919 14.442 6.9442C14.117 6.61921 13.6762 6.43664 13.2166 6.43664Z" fill="#0F0F0F"/>
</svg>
