<svg width="30" height="19" viewBox="0 0 30 19" fill="none" xmlns="http://www.w3.org/2000/svg">
<path d="M14.3026 11.4382C14.3026 12.0449 14.2718 12.6513 14.2024 13.2538C14.1665 13.5665 14.1207 13.8774 14.0654 14.094C13.9074 14.7113 13.6821 15.2746 13.3876 15.7843C13.0932 16.2957 12.7351 16.748 12.3112 17.1482C11.889 17.5485 11.4132 17.8866 10.8818 18.1607C10.352 18.4332 9.77342 18.6419 9.14786 18.7846C8.52063 18.9277 7.85618 18.9999 7.15146 18.9999C6.45006 18.9999 5.78589 18.9277 5.15838 18.7846C4.52949 18.6416 3.95087 18.4332 3.42281 18.1607C2.89642 17.8866 2.41863 17.5485 1.99669 17.1482C1.57279 16.748 1.21307 16.2955 0.91862 15.7843C0.619172 15.2746 0.393893 14.7113 0.235836 14.094C0.0791674 13.4751 0 12.8107 0 12.0976V10.6293H3.93059V12.079C3.93059 12.5887 4.00448 13.0613 4.15587 13.4968C4.30726 13.9324 4.52421 14.3074 4.80671 14.6221C5.08921 14.9365 5.42894 15.1838 5.82589 15.3621C6.2245 15.5404 6.6684 15.6296 7.15618 15.6296C7.65063 15.6296 8.09646 15.5388 8.49313 15.3571C8.89175 15.1771 9.22981 14.9282 9.50731 14.6104C9.78481 14.291 9.99843 13.9107 10.1481 13.4735C10.2979 13.0363 10.3718 12.5618 10.3718 12.0474V0.842529H14.3024V0.859474C14.161 2.36643 14.0349 3.11477 13.5018 3.53033C13.1032 3.84145 12.4743 3.96089 11.4415 4.06506C11.3962 4.06839 11.3962 4.13728 11.4432 4.14062C12.4287 4.24145 13.046 4.35256 13.4462 4.6334C13.8815 4.93479 14.0632 5.43229 14.1885 6.3198C14.2687 6.88786 14.3024 7.46148 14.3024 8.0351V11.4382H14.3026Z" fill="url(#paint0_linear_407_328)"/>
<path d="M14.7882 12.0858H16.8827C17.251 12.0858 17.5671 12.1127 17.8313 12.1666C18.0938 12.2205 18.3274 12.3147 18.531 12.4524C18.7329 12.5885 18.9163 12.7702 19.0777 13.0008C19.2391 13.2311 19.3988 13.5222 19.5571 13.8702L21.7149 18.6267H26.0725L23.9347 13.8636C23.5444 12.9891 23.0802 12.3147 22.5388 11.8452C22.1016 11.4635 21.6071 11.2213 21.0588 11.1169C21.0135 11.1069 21.0169 11.0446 21.0621 11.0413C21.6558 10.9891 22.2008 10.8646 22.7002 10.6696C23.3074 10.4307 23.8255 10.1013 24.2561 9.68074C24.6816 9.26018 25.0147 8.75573 25.2466 8.17045C25.4788 7.5835 25.5947 6.93266 25.5947 6.21432C25.5947 5.39348 25.4466 4.65181 25.1525 3.9893C24.858 3.32485 24.4361 2.75984 23.8827 2.29401C23.326 1.8265 22.6533 1.46817 21.861 1.21594C21.0655 0.96205 20.1691 0.835938 19.1702 0.835938H14.3446C14.321 0.835938 14.3043 0.857882 14.306 0.879549C14.4354 2.25373 14.5532 2.9904 14.9821 3.41929C15.2932 3.73041 15.771 3.88013 16.5326 3.98597C17.0221 4.05486 17.5165 4.0818 18.0093 4.0818H18.7107C19.6643 4.0818 20.3944 4.28541 20.8988 4.69236C21.4049 5.09764 21.6574 5.68626 21.6574 6.45821C21.6574 6.84683 21.5919 7.19322 21.4591 7.49767C21.3263 7.80211 21.1344 8.05934 20.8855 8.26962C20.6316 8.47823 20.3255 8.63795 19.9605 8.7474C19.656 8.8399 16.3185 8.89379 14.7882 8.91046V12.0858Z" fill="url(#paint1_linear_407_328)"/>
<path d="M29.9936 0.914752C29.9936 0.914752 29.9666 0.842529 29.928 0.842529H26.1386C26.1016 0.842529 26.073 0.871141 26.073 0.908085V11.4265C26.073 12.0404 26.1099 12.6543 26.2008 13.2599C26.3066 13.9646 26.4547 14.4102 26.7508 14.7063C27.1375 15.0949 27.7852 15.231 28.9222 15.3454C28.9694 15.3504 28.9694 15.4177 28.9239 15.4227C27.8911 15.5268 27.2672 15.6446 26.8669 15.9591C26.3455 16.366 26.2161 17.1077 26.078 18.5794C26.0763 18.5927 26.0763 18.6063 26.0747 18.6196H29.9344C29.9714 18.6196 30 18.591 30 18.5541V7.3212L29.9936 0.914752Z" fill="url(#paint2_linear_407_328)"/>
<defs>
<linearGradient id="paint0_linear_407_328" x1="1.43734" y1="14.1685" x2="41.6533" y2="-6.25467" gradientUnits="userSpaceOnUse">
<stop stop-color="#8A63D2"/>
<stop offset="0.3358" stop-color="#594FE3"/>
<stop offset="0.7854" stop-color="#1D37F7"/>
<stop offset="1" stop-color="#052DFF"/>
</linearGradient>
<linearGradient id="paint1_linear_407_328" x1="3.49356" y1="18.2175" x2="43.7095" y2="-2.20562" gradientUnits="userSpaceOnUse">
<stop stop-color="#8A63D2"/>
<stop offset="0.3358" stop-color="#594FE3"/>
<stop offset="0.7854" stop-color="#1D37F7"/>
<stop offset="1" stop-color="#052DFF"/>
</linearGradient>
<linearGradient id="paint2_linear_407_328" x1="5.0994" y1="21.3796" x2="45.3153" y2="0.956457" gradientUnits="userSpaceOnUse">
<stop stop-color="#8A63D2"/>
<stop offset="0.3358" stop-color="#594FE3"/>
<stop offset="0.7854" stop-color="#1D37F7"/>
<stop offset="1" stop-color="#052DFF"/>
</linearGradient>
</defs>
</svg>
