<svg width="976" height="1006" viewBox="0 0 976 1006" fill="none" xmlns="http://www.w3.org/2000/svg">
<path opacity="0.0344828" d="M177.347 446.261L342.395 416.484C355.981 414.033 365.181 401.316 363.293 387.597L339.91 217.649C336.614 193.698 366.796 180.711 382.062 199.511L487.32 329.138C496.346 340.255 512.61 342.017 523.681 333.078L652.786 228.84C671.511 213.722 698.413 232.893 690.359 255.615L633.206 416.838C628.592 429.852 635.026 444.263 647.82 449.572L803.256 514.069C825.318 523.223 822.03 555.462 798.604 559.688L633.555 589.465C619.97 591.916 610.77 604.633 612.657 618.352L636.041 788.3C639.336 812.251 609.155 825.238 593.889 806.438L488.631 676.811C479.604 665.694 463.341 663.932 452.269 672.871L323.164 777.109C304.44 792.227 277.537 773.056 285.592 750.334L342.745 589.111C347.358 576.097 340.925 561.686 328.131 556.377L172.695 491.88C150.633 482.726 153.92 450.487 177.347 446.261Z" stroke="#B79AEC" stroke-width="2"/>
<path opacity="0.0689655" d="M185.502 430.362L348.431 409.956C362.121 408.242 371.955 396.028 370.766 382.217L356.345 214.733C354.269 190.631 385.05 179.274 399.338 198.87L495.869 331.253C504.313 342.834 520.447 345.468 531.95 337.143L663.445 241.986C682.909 227.9 708.778 248.506 699.579 270.767L635.651 425.46C630.379 438.216 636.07 452.965 648.577 458.956L797.414 530.259C818.978 540.59 814.055 572.629 790.449 575.586L627.52 595.992C613.829 597.707 603.995 609.92 605.184 623.731L619.606 791.215C621.681 815.317 590.9 826.674 576.612 807.079L480.082 674.696C471.637 663.114 455.504 660.481 444 668.805L312.506 763.963C293.042 778.048 267.172 757.443 276.372 735.182L340.3 580.488C345.571 567.732 339.88 552.984 327.374 546.992L178.537 475.69C156.972 465.359 161.896 433.319 185.502 430.362Z" stroke="#B79AEC" stroke-width="2"/>
<path opacity="0.103448" d="M194.422 415.186L354.725 403.84C368.483 402.867 378.926 391.186 378.44 377.318L372.665 212.793C371.816 188.604 403.106 178.9 416.377 199.236L504.207 333.815C512.045 345.826 527.998 349.321 539.899 341.635L673.24 255.512C693.389 242.498 718.145 264.482 707.824 286.223L637.626 434.103C631.709 446.568 636.64 461.617 648.824 468.274L790.792 545.845C811.798 557.323 805.249 589.084 781.529 590.763L621.225 602.108C607.468 603.082 597.024 614.762 597.511 628.631L603.285 793.156C604.134 817.344 572.845 827.049 559.573 806.713L471.744 672.134C463.905 660.123 447.953 656.627 436.052 664.314L302.71 750.436C282.561 763.45 257.806 741.467 268.126 719.726L338.324 571.846C344.242 559.38 339.31 544.331 327.126 537.674L185.159 460.104C164.152 448.626 170.702 416.865 194.422 415.186Z" stroke="#B79AEC" stroke-width="2"/>
<path opacity="0.137931" d="M204.055 400.77L361.254 398.145C375.041 397.915 386.067 386.796 386.286 372.905L388.817 211.809C389.198 187.597 420.907 179.563 433.125 200.582L512.311 336.808C519.522 349.212 535.244 353.555 547.506 346.528L682.164 269.363C702.942 257.457 726.505 280.757 715.09 301.921L639.137 442.738C632.587 454.881 636.743 470.193 648.571 477.498L783.436 560.786C803.827 573.379 795.663 604.783 771.896 605.179L614.696 607.804C600.91 608.034 589.883 619.153 589.665 633.044L587.133 794.14C586.753 818.352 555.044 826.386 542.826 805.367L463.64 669.141C456.429 656.737 440.707 652.394 428.445 659.421L293.786 736.586C273.009 748.492 249.446 725.192 260.861 704.029L336.814 563.211C343.364 551.068 339.208 535.756 327.38 528.452L192.515 445.163C172.124 432.57 180.287 401.167 204.055 400.77Z" stroke="#B79AEC" stroke-width="2"/>
<path opacity="0.172414" d="M214.348 387.149L367.992 392.878C381.769 393.392 393.351 382.863 394.276 368.983L404.75 211.756C406.36 187.586 438.399 181.234 449.53 202.878L520.16 340.213C526.723 352.973 542.166 358.145 554.752 351.798L690.21 283.483C711.558 272.717 733.855 297.267 721.375 317.796L640.188 451.341C633.022 463.13 636.387 478.665 647.826 486.597L775.394 575.047C795.112 588.719 785.351 619.685 761.602 618.8L607.958 613.07C594.181 612.557 582.599 623.086 581.674 636.966L571.2 794.193C569.59 818.363 537.551 824.715 526.42 803.071L455.79 665.736C449.227 652.976 433.784 647.804 421.197 654.151L285.74 722.466C264.392 733.232 242.095 708.682 254.575 688.153L335.761 554.608C342.928 542.819 339.563 527.283 328.123 519.352L200.556 430.901C180.837 417.23 190.599 386.263 214.348 387.149Z" stroke="#B79AEC" stroke-width="2"/>
<path opacity="0.206897" d="M225.246 374.356L374.913 388.048C388.644 389.304 400.753 379.39 402.383 365.558L420.414 212.609C423.251 188.545 455.531 183.882 465.544 206.09L527.735 344.011C533.633 357.089 548.751 363.07 561.623 357.419L697.375 297.817C719.233 288.22 740.195 313.949 726.681 333.788L640.79 459.887C633.022 471.291 635.585 487.01 646.604 495.546L766.717 588.596C785.708 603.308 774.368 633.758 750.704 631.593L601.037 617.901C587.306 616.645 575.198 626.559 573.567 640.392L555.536 793.34C552.7 817.404 520.42 822.067 510.406 799.859L448.215 661.939C442.318 648.861 427.2 642.879 414.327 648.531L278.575 708.133C256.717 717.73 235.755 692.001 249.269 672.161L335.16 546.063C342.928 534.658 340.365 518.94 329.346 510.403L209.233 417.353C190.242 402.641 201.582 372.191 225.246 374.356Z" stroke="#B79AEC" stroke-width="2"/>
<path opacity="0.241379" d="M236.692 362.418L381.992 383.658C395.638 385.653 408.244 376.38 410.579 362.629L435.761 214.339C439.818 190.445 472.252 187.474 481.121 210.184L535.017 348.18C540.234 361.537 554.981 368.305 568.102 363.363L703.659 312.309C725.966 303.908 745.527 330.739 731.015 349.835L640.949 468.35C632.598 479.339 634.347 495.2 644.917 504.318L757.455 601.403C775.667 617.114 762.771 646.968 739.258 643.531L593.958 622.291C580.312 620.296 567.706 629.569 565.371 643.319L540.189 791.61C536.132 815.504 503.698 818.475 494.829 795.765L440.933 657.769C435.716 644.412 420.968 637.644 407.848 642.586L272.291 693.64C249.984 702.041 230.423 675.21 244.935 656.114L335.001 537.599C343.352 526.61 341.603 510.749 331.033 501.631L218.495 404.546C200.283 388.834 213.179 358.981 236.692 362.418Z" stroke="#B79AEC" stroke-width="2"/>
<path opacity="0.275862" d="M248.629 351.36L389.204 379.714C402.728 382.441 415.8 373.833 418.836 360.201L450.746 216.915C456.015 193.256 488.515 191.975 496.216 215.122L541.988 352.701C546.512 366.296 560.847 373.825 574.176 369.606L709.065 326.908C731.76 319.724 749.858 347.578 734.385 365.878L640.677 476.709C631.762 487.253 632.689 503.214 642.779 512.888L747.661 613.445C765.044 630.111 750.62 659.29 727.322 654.591L586.747 626.237C573.223 623.51 560.151 632.118 557.115 645.75L525.205 789.036C519.936 812.695 487.436 813.976 479.734 790.829L433.962 653.25C429.439 639.655 415.104 632.126 401.774 636.345L266.886 679.043C244.191 686.227 226.093 658.373 241.566 640.073L335.274 529.242C344.189 518.698 343.262 502.737 333.172 493.063L228.29 392.506C210.907 375.84 225.331 346.661 248.629 351.36Z" stroke="#B79AEC" stroke-width="2"/>
<path opacity="0.310345" d="M260.997 341.199L396.522 376.214C409.886 379.667 423.394 371.746 427.125 358.268L465.325 220.299C471.793 196.939 504.275 197.342 510.788 220.864L548.632 357.548C552.452 371.342 566.334 379.603 579.834 376.115L713.598 341.555C736.617 335.608 753.197 364.401 736.803 381.855L639.982 484.938C630.524 495.008 630.622 511.026 640.206 521.229L737.388 624.697C753.894 642.271 737.971 670.697 714.953 664.75L579.428 629.735C566.064 626.282 552.557 634.203 548.825 647.681L510.625 785.649C504.157 809.01 471.675 808.607 465.162 785.085L427.318 648.401C423.498 634.607 409.616 626.345 396.116 629.833L262.352 664.393C239.333 670.341 222.753 641.548 239.147 624.094L335.968 521.01C345.426 510.94 345.328 494.923 335.744 484.72L238.562 381.251C222.056 363.678 237.979 335.251 260.997 341.199Z" stroke="#B79AEC" stroke-width="2"/>
<path opacity="0.344828" d="M273.737 331.953L403.922 373.162C417.09 377.331 430.999 370.119 435.42 356.83L479.459 224.46C487.111 201.461 519.491 203.539 524.798 227.369L554.936 362.7C558.043 376.652 571.435 385.617 585.065 382.867L717.267 356.202C740.547 351.507 755.558 381.152 738.286 397.711L638.879 493.019C628.9 502.587 628.165 518.618 637.215 529.321L726.69 635.146C742.274 653.578 724.888 681.174 702.213 673.996L572.028 632.787C558.86 628.619 544.951 635.831 540.53 649.119L496.491 781.489C488.839 804.488 456.459 802.41 451.152 778.58L421.014 643.249C417.907 629.297 404.514 620.333 390.885 623.082L258.682 649.747C235.403 654.442 220.392 624.798 237.663 608.238L337.071 512.93C347.05 503.362 347.785 487.331 338.735 476.628L249.26 370.803C233.675 352.371 251.062 324.775 273.737 331.953Z" stroke="#B79AEC" stroke-width="2"/>
<path opacity="0.37931" d="M286.789 323.634L411.379 370.557C424.314 375.429 438.591 368.946 443.693 355.884L493.109 229.358C501.926 206.783 534.121 210.521 538.209 234.595L560.886 368.133C563.275 382.203 576.141 391.838 589.862 389.833L720.085 370.797C743.56 367.365 756.958 397.771 738.853 413.39L637.379 500.931C626.903 509.968 625.333 525.967 633.825 537.142L715.622 644.776C730.242 664.015 711.43 690.704 689.161 682.316L564.571 635.393C551.635 630.521 537.358 637.004 532.257 650.066L482.84 776.592C474.023 799.167 441.828 795.429 437.74 771.356L415.064 637.818C412.674 623.747 399.808 614.112 386.087 616.118L255.865 635.154C232.389 638.585 218.991 608.18 237.096 592.561L338.571 505.02C349.047 495.982 350.617 479.983 342.124 468.808L260.328 361.174C245.707 341.935 264.519 315.247 286.789 323.634Z" stroke="#B79AEC" stroke-width="2"/>
<path opacity="0.413793" d="M300.093 316.248L418.868 368.396C431.535 373.958 446.145 368.223 451.917 355.422L506.24 234.95C516.2 212.862 548.131 218.244 550.99 242.494L566.471 373.82C568.139 387.968 580.447 398.241 594.22 396.981L722.065 385.286C745.671 383.126 757.418 414.2 738.527 428.834L635.497 508.651C624.549 517.132 622.144 533.054 630.056 544.67L704.238 653.578C717.856 673.57 697.661 699.275 675.858 689.703L557.083 637.554C544.415 631.992 529.805 637.728 524.033 650.528L469.71 771C459.75 793.088 427.819 787.706 424.961 763.456L409.479 632.13C407.811 617.982 395.503 607.709 381.73 608.969L253.886 620.664C230.279 622.824 218.533 591.75 237.423 577.116L340.454 497.299C351.401 488.818 353.806 472.896 345.894 461.28L271.712 352.372C258.095 332.38 278.29 306.675 300.093 316.248Z" stroke="#B79AEC" stroke-width="2"/>
<path opacity="0.448276" d="M313.587 309.798L426.363 366.674C438.729 372.91 453.636 367.941 460.066 355.438L518.819 241.197C529.897 219.655 561.484 226.662 563.107 251.02L571.682 379.738C572.627 393.924 584.346 404.8 598.132 404.286L723.224 399.621C746.896 398.739 756.958 430.386 737.332 443.994L633.246 516.163C621.854 524.061 618.617 539.861 625.927 551.885L692.593 661.546C705.171 682.235 683.64 706.883 662.363 696.152L549.587 639.276C537.221 633.039 522.315 638.009 515.885 650.512L457.131 764.753C446.053 786.295 414.466 779.288 412.843 754.93L404.268 626.212C403.323 612.026 391.604 601.15 377.818 601.664L252.727 606.329C229.054 607.211 218.992 575.564 238.619 561.956L342.705 489.787C354.096 481.889 357.333 466.089 350.023 454.065L283.357 344.404C270.779 323.715 292.31 299.067 313.587 309.798Z" stroke="#B79AEC" stroke-width="2"/>
<path opacity="0.482759" d="M327.214 304.284L433.843 365.387C445.873 372.28 461.039 368.092 468.113 355.922L530.816 248.052C542.985 227.118 574.151 235.726 574.534 260.126L576.51 385.86C576.733 400.045 587.836 411.488 601.597 411.718L723.582 413.755C747.255 414.15 755.606 446.274 735.296 458.817L630.642 523.448C618.836 530.739 614.772 546.371 621.46 558.771L680.741 668.678C692.245 690.007 669.43 713.524 648.737 701.665L542.107 640.562C530.078 633.669 514.912 637.858 507.838 650.027L445.134 757.897C432.966 778.832 401.8 770.224 401.416 745.823L399.44 620.089C399.217 605.904 388.115 594.461 374.353 594.231L252.369 592.194C228.696 591.799 220.345 559.675 240.655 547.132L345.308 482.502C357.115 475.21 361.178 459.578 354.491 447.179L295.21 337.272C283.705 315.942 306.521 292.426 327.214 304.284Z" stroke="#B79AEC" stroke-width="2"/>
<path opacity="0.517241" d="M340.913 299.702L441.283 364.529C452.944 372.06 468.331 368.667 476.032 356.866L542.204 255.473C555.432 235.204 586.101 245.387 585.246 269.763L580.95 392.162C580.453 406.307 590.914 418.281 604.613 419.251L723.16 427.641C746.77 429.312 753.389 461.816 732.45 473.257L627.702 530.49C615.511 537.151 610.628 552.57 616.676 565.31L668.734 674.975C679.135 696.886 655.091 719.2 635.038 706.248L534.667 641.421C523.006 633.89 507.62 637.283 499.918 649.084L433.746 750.478C420.519 770.746 389.849 760.563 390.704 736.187L395.001 613.788C395.497 599.644 385.036 587.669 371.337 586.7L252.79 578.309C229.181 576.638 222.562 544.135 243.501 532.694L348.248 475.46C360.44 468.799 365.322 453.381 359.274 440.64L307.216 330.975C296.816 309.065 320.859 286.75 340.913 299.702Z" stroke="#B79AEC" stroke-width="2"/>
<path opacity="0.551724" d="M354.627 296.041L448.662 364.09C459.922 372.239 475.49 369.654 483.801 358.256L552.96 263.41C567.212 243.864 597.312 255.594 595.22 279.879L584.996 398.616C583.785 412.682 593.581 425.151 607.181 426.854L721.986 441.233C745.467 444.174 750.34 476.959 728.828 487.264L624.442 537.272C611.898 543.282 606.208 558.44 611.6 571.487L656.626 680.442C665.896 702.873 640.683 723.918 621.324 709.908L527.289 641.859C516.029 633.71 500.461 636.295 492.15 647.693L422.991 742.539C408.739 762.085 378.639 750.355 380.731 726.07L390.955 607.333C392.166 593.267 382.37 580.798 368.77 579.095L253.965 564.716C230.484 561.775 225.611 528.99 247.123 518.684L351.509 468.677C364.053 462.667 369.743 447.509 364.351 434.462L319.325 325.506C310.055 303.076 335.268 282.031 354.627 296.041Z" stroke="#B79AEC" stroke-width="2"/>
<path opacity="0.586207" d="M368.298 293.29L455.955 364.064C466.784 372.807 482.493 371.041 491.393 360.08L563.062 271.819C578.301 253.051 607.758 266.296 604.438 290.424L588.646 405.198C586.726 419.148 595.838 432.074 609.302 434.503L720.084 454.49C743.372 458.691 746.491 491.66 724.465 500.8L620.88 543.781C608.016 549.119 601.532 563.973 606.253 577.29L644.467 685.09C652.582 707.979 626.265 727.687 607.653 712.659L519.995 641.886C509.167 633.143 493.457 634.909 484.557 645.87L412.889 734.131C397.649 752.899 368.193 739.654 371.512 715.526L387.305 600.751C389.224 586.802 380.113 573.876 366.648 571.447L255.866 551.46C232.578 547.259 229.459 514.29 251.485 505.15L355.071 462.169C367.934 456.831 374.418 441.977 369.698 428.66L331.483 320.86C323.369 297.97 349.685 278.263 368.298 293.29Z" stroke="#B79AEC" stroke-width="2"/>
<path opacity="0.62069" d="M381.871 291.433L463.143 364.438C473.511 373.752 489.32 372.813 498.787 362.323L572.493 280.648C588.679 262.712 617.421 277.439 612.883 301.344L591.898 411.882C589.278 425.678 597.687 439.024 610.98 442.17L717.486 467.369C740.519 472.818 741.881 505.873 719.4 513.819L617.033 550.002C603.885 554.65 596.623 569.154 600.66 582.705L632.309 688.927C639.247 712.213 611.896 730.521 594.079 714.517L512.807 641.511C502.439 632.198 486.63 633.136 477.163 643.627L403.458 725.301C387.271 743.238 358.529 728.511 363.067 704.606L384.053 594.068C386.672 580.271 378.264 566.925 364.97 563.78L258.465 538.581C235.432 533.131 234.07 500.076 256.55 492.13L358.917 455.947C372.066 451.3 379.327 436.795 375.29 423.245L343.642 317.023C336.704 293.737 364.055 275.429 381.871 291.433Z" stroke="#B79AEC" stroke-width="2"/>
<path opacity="0.655172" d="M395.293 290.449L470.206 365.202C480.085 375.06 495.95 374.957 505.96 364.969L581.238 289.851C598.328 272.797 626.286 288.97 620.543 312.587L594.752 418.641C591.443 432.249 599.132 445.977 612.22 449.827L714.223 479.832C736.937 486.514 736.546 519.558 713.673 526.286L612.92 555.923C599.523 559.864 591.503 573.975 594.846 587.722L620.198 691.97C625.942 715.588 597.629 732.436 580.657 715.5L505.744 640.747C495.865 630.889 479.999 630.992 469.99 640.981L394.712 716.098C377.622 733.152 349.664 716.979 355.407 693.362L381.198 587.308C384.507 573.7 376.818 559.972 363.73 556.122L261.727 526.117C239.013 519.435 239.404 486.392 262.277 479.663L363.03 450.026C376.427 446.085 384.447 431.974 381.103 418.227L355.752 313.98C350.008 290.361 378.321 273.513 395.293 290.449Z" stroke="#B79AEC" stroke-width="2"/>
<path opacity="0.689655" d="M408.512 290.305L477.123 366.334C486.486 376.71 502.366 377.446 512.891 367.991L589.286 299.367C607.233 283.245 634.34 300.825 627.408 324.09L597.211 425.443C593.223 438.827 600.179 452.9 613.029 457.442L710.329 491.834C732.664 499.729 730.529 532.666 707.326 538.156L608.56 561.524C594.953 564.743 586.196 578.417 588.837 592.324L608.183 694.226C612.717 718.112 583.52 733.446 567.438 715.625L498.827 639.596C489.464 629.22 473.584 628.485 463.059 637.939L386.664 706.563C368.717 722.685 341.61 705.105 348.542 681.84L378.739 580.488C382.727 567.103 375.771 553.03 362.921 548.488L265.621 514.096C243.286 506.201 245.421 473.264 268.624 467.775L367.39 444.406C380.997 441.187 389.754 427.513 387.113 413.606L367.767 311.704C363.233 287.818 392.43 272.484 408.512 290.305Z" stroke="#B79AEC" stroke-width="2"/>
<path opacity="0.724138" d="M421.478 290.995L483.876 367.839C492.699 378.705 508.548 380.281 519.561 371.39L596.628 309.166C615.384 294.023 641.572 312.968 633.471 335.819L599.276 432.28C594.623 445.408 600.834 459.788 613.413 465.007L705.841 503.359C727.736 512.444 723.872 545.181 700.404 549.415L603.973 566.812C590.194 569.298 580.725 582.494 582.656 596.522L596.307 695.736C599.621 719.825 569.622 733.593 554.472 714.935L492.074 638.091C483.251 627.226 467.402 625.649 456.389 634.54L379.322 696.764C360.566 711.907 334.378 692.962 342.479 670.111L376.674 573.65C381.327 560.523 375.116 546.143 362.537 540.923L270.109 502.571C248.214 493.486 252.078 460.749 275.546 456.516L371.977 439.118C385.756 436.632 395.225 423.437 393.294 409.409L379.643 310.194C376.329 286.105 406.328 272.338 421.478 290.995Z" stroke="#B79AEC" stroke-width="2"/>
<path opacity="0.758621" d="M434.145 292.48L490.447 369.694C498.705 381.019 514.48 383.437 525.949 375.137L603.26 319.19C622.773 305.07 647.977 325.336 638.73 347.711L600.954 439.122C595.649 451.958 601.105 466.609 613.381 472.49L700.795 514.367C722.193 524.618 716.619 557.062 692.951 560.026L599.179 571.77C585.267 573.513 575.114 586.19 576.329 600.301L584.614 696.514C586.7 720.741 555.982 732.895 541.805 713.452L485.503 636.237C477.245 624.913 461.47 622.494 450.001 630.795L372.69 686.742C353.177 700.862 327.973 680.596 337.22 658.221L374.996 566.81C380.301 553.973 374.845 539.323 362.569 533.442L275.155 491.565C253.757 481.314 259.331 448.87 282.999 445.906L376.771 434.162C390.683 432.419 400.836 419.742 399.621 405.631L391.336 309.418C389.25 285.191 419.968 273.037 434.145 292.48Z" stroke="#B79AEC" stroke-width="2"/>
<path opacity="0.793103" d="M446.467 294.726L496.821 371.882C504.491 383.635 520.146 386.892 532.041 379.21L609.18 329.387C629.395 316.33 653.551 337.871 643.184 359.71L602.25 445.941C596.31 458.455 601.002 473.34 612.944 479.865L695.234 524.828C716.075 536.215 708.816 568.276 685.016 569.961L594.198 576.388C580.193 577.379 569.386 589.499 569.883 603.655L573.144 696.582C573.997 720.882 542.65 731.38 529.484 711.205L479.13 634.048C471.459 622.295 455.805 619.038 443.91 626.721L366.771 676.543C346.555 689.6 322.4 668.059 332.767 646.22L373.701 559.989C379.641 547.475 374.949 532.591 363.007 526.065L280.717 481.103C259.876 469.715 267.135 437.654 290.935 435.97L381.753 429.542C395.757 428.551 406.565 416.431 406.068 402.276L402.806 309.348C401.953 285.049 433.3 274.55 446.467 294.726Z" stroke="#B79AEC" stroke-width="2"/>
<path opacity="0.827586" d="M458.402 297.7L502.98 374.388C510.042 386.538 525.532 390.628 537.818 383.588L614.387 339.711C635.249 327.756 658.294 350.521 646.835 371.765L603.171 452.718C596.612 464.88 600.532 479.961 612.112 487.113L689.195 534.717C709.425 547.21 700.511 578.801 676.644 579.2L589.049 580.662C574.994 580.897 563.564 592.422 563.341 606.584L561.937 695.972C561.555 720.278 529.67 729.084 517.548 708.231L472.97 631.543C465.908 619.393 450.418 615.303 438.133 622.343L361.563 666.22C340.701 678.175 317.657 655.41 329.116 634.166L372.779 553.213C379.339 541.051 375.418 525.97 363.838 518.819L286.755 471.214C266.526 458.721 275.44 427.13 299.306 426.731L386.902 425.269C400.957 425.034 412.387 413.509 412.609 399.347L414.014 309.959C414.396 285.653 446.281 276.847 458.402 297.7Z" stroke="#B79AEC" stroke-width="2"/>
<path opacity="0.862069" d="M469.911 301.363L508.911 377.195C515.346 389.708 530.625 394.624 543.266 388.248L618.887 350.111C640.337 339.293 662.209 363.23 649.69 383.823L603.726 459.431C596.565 471.209 599.708 486.451 610.897 494.209L682.724 544.011C702.287 557.575 691.751 588.612 667.887 587.722L583.754 584.585C569.69 584.06 557.672 594.957 556.731 609.086L551.027 694.711C549.411 718.958 517.082 726.041 506.039 704.568L467.039 628.736C460.604 616.223 445.325 611.307 432.684 617.683L357.063 655.82C335.613 666.638 313.741 642.701 326.26 622.108L372.225 546.5C379.385 534.722 376.242 519.48 365.053 511.722L293.226 461.92C273.663 448.356 284.199 417.319 308.064 418.209L392.196 421.346C406.26 421.871 418.278 410.974 419.219 396.845L424.923 311.22C426.539 286.973 458.868 279.89 469.911 301.363Z" stroke="#B79AEC" stroke-width="2"/>
<path opacity="0.896552" d="M480.959 305.678L514.6 380.285C520.391 393.127 535.414 398.857 548.373 393.168L622.686 360.54C644.665 350.891 665.305 375.944 651.76 395.83L603.924 466.058C596.182 477.424 598.544 492.791 609.314 501.135L675.863 552.69C694.707 567.288 682.588 597.69 658.793 595.513L578.335 588.152C564.304 586.869 551.734 597.104 550.077 611.162L540.449 692.832C537.605 716.954 504.929 722.289 494.992 700.253L461.351 625.647C455.56 612.805 440.537 607.074 427.578 612.764L353.265 645.391C331.286 655.041 310.646 629.987 324.191 610.101L372.027 539.873C379.769 528.507 377.407 513.14 366.637 504.796L300.088 453.241C281.244 438.643 293.363 408.242 317.158 410.418L397.616 417.779C411.647 419.063 424.217 408.827 425.874 394.769L435.502 313.099C438.346 288.977 471.022 283.642 480.959 305.678Z" stroke="#B79AEC" stroke-width="2"/>
<path opacity="0.931035" d="M491.509 310.604L520.034 383.639C525.165 396.775 539.887 403.307 553.126 398.321L625.794 370.952C648.238 362.5 667.589 388.61 653.055 407.736L603.776 472.58C595.473 483.507 597.049 498.963 607.374 507.871L668.656 560.738C686.731 576.33 673.07 606.018 649.411 602.559L572.811 591.362C558.855 589.322 545.772 598.866 543.403 612.814L530.234 690.367C526.17 714.3 493.243 717.867 484.441 695.328L455.916 622.292C450.785 609.156 436.063 602.624 422.824 607.61L350.156 634.979C327.712 643.432 308.361 617.321 322.896 598.195L372.174 533.351C380.478 522.425 378.901 506.969 368.576 498.061L307.294 445.194C289.219 429.601 302.88 399.914 326.539 403.372L403.139 414.57C417.095 416.61 430.178 407.066 432.547 393.117L445.716 315.565C449.78 291.632 482.707 288.065 491.509 310.604Z" stroke="#B79AEC" stroke-width="2"/>
<path opacity="0.965517" d="M501.535 316.097L525.204 387.24C529.66 400.635 544.037 407.951 557.517 403.684L628.225 381.302C651.071 374.071 669.076 401.177 653.592 419.491L603.294 478.979C594.451 489.438 595.239 504.948 605.095 514.397L661.15 568.14C678.407 584.686 663.249 613.583 639.794 608.853L567.204 594.211C553.366 591.42 539.809 600.246 536.736 614.047L520.411 687.35C515.138 711.03 482.061 712.816 474.415 689.835L450.746 618.692C446.29 605.297 431.913 597.981 418.433 602.248L347.726 624.63C324.88 631.862 306.874 604.755 322.359 586.441L372.656 526.953C381.5 516.494 380.711 500.984 370.855 491.535L314.8 437.792C297.543 421.246 312.702 392.349 336.156 397.079L408.746 411.721C422.584 414.512 436.141 405.687 439.214 391.885L455.539 318.582C460.812 294.903 493.889 293.116 501.535 316.097Z" stroke="#B79AEC" stroke-width="2"/>
<path d="M511.007 322.114L530.099 391.067C533.869 404.684 547.857 412.766 561.536 409.231L629.992 391.545C653.175 385.555 669.782 413.591 653.39 431.044L602.491 485.235C593.13 495.202 593.129 510.729 602.491 520.696L653.39 574.887C669.782 592.34 653.175 620.376 629.992 614.387L561.536 596.7C547.857 593.166 533.869 601.248 530.099 614.864L511.007 683.818C504.539 707.179 471.412 707.179 464.944 683.818L445.852 614.864C442.082 601.248 428.094 593.166 414.414 596.7L345.959 614.387C322.776 620.376 306.168 592.34 322.561 574.887L373.46 520.696C382.821 510.729 382.821 495.202 373.46 485.235L322.561 431.044C306.168 413.591 322.776 385.555 345.959 391.545L414.414 409.231C428.094 412.766 442.082 404.684 445.852 391.067L464.944 322.113C471.412 298.752 504.539 298.752 511.007 322.114Z" stroke="#B79AEC" stroke-width="2"/>
</svg>
