<svg viewBox="0 0 20 18" fill="currentColor" xmlns="http://www.w3.org/2000/svg">
<path fill-rule="evenodd" clip-rule="evenodd" d="M17.9283 0.116888C18.1742 0.0133899 18.4434 -0.0223058 18.7078 0.0135155C18.9722 0.0493369 19.2221 0.155366 19.4316 0.320567C19.6411 0.485768 19.8025 0.704101 19.899 0.952842C19.9955 1.20158 20.0235 1.47164 19.9802 1.7349L17.7234 15.4243C17.5044 16.7448 16.0556 17.502 14.8446 16.8443C13.8316 16.294 12.327 15.4462 10.9737 14.5615C10.297 14.1187 8.22427 12.7007 8.47901 11.6917C8.69793 10.829 12.1807 7.58699 14.1709 5.65951C14.952 4.90225 14.5958 4.46541 13.6734 5.16197C11.3827 6.89143 7.70483 9.52144 6.48884 10.2618C5.41614 10.9146 4.8569 11.026 4.1882 10.9146C2.96823 10.7116 1.83682 10.3971 0.913377 10.014C-0.33446 9.49656 -0.27376 7.78103 0.912382 7.2815L17.9283 0.116888Z" fill="#0F0F0F"/>
</svg>
