<svg viewBox="0 0 66 55" fill="none" xmlns="http://www.w3.org/2000/svg">
<path d="M49.5841 13.4999L24.6946 2.49742C24.059 2.2164 23.3455 2.16477 22.6761 2.35135C22.0066 2.53793 21.4227 2.95115 21.0241 3.52042L14.0386 13.4999" stroke="#0F0F0F" stroke-width="4.5" stroke-linecap="round"/>
<path d="M61.5 13.5H4.5C4.10218 13.5 3.72064 13.658 3.43934 13.9393C3.15804 14.2206 3 14.6022 3 15V51C3 51.3978 3.15804 51.7794 3.43934 52.0607C3.72064 52.342 4.10218 52.5 4.5 52.5H61.5C61.8978 52.5 62.2794 52.342 62.5607 52.0607C62.842 51.7794 63 51.3978 63 51V15C63 14.6022 62.842 14.2206 62.5607 13.9393C62.2794 13.658 61.8978 13.5 61.5 13.5Z" fill="#DCD5EE" stroke="#0F0F0F" stroke-width="4.5"/>
</svg>
