<svg viewBox="0 0 58 64" fill="none" xmlns="http://www.w3.org/2000/svg">
<path d="M29 54L9.94744 21H48.0526L29 54Z" fill="#DCD5EE"/>
<path d="M29 53C29.63 53 30.212 52.703 31.379 52.109L40.769 47.339C44.924 45.227 47 44.171 47 42.5V21.5M29 53C28.37 53 27.788 52.703 26.621 52.109L17.231 47.339C13.076 45.227 11 44.171 11 42.5V21.5M29 53V32V53ZM47 21.5C47 19.829 44.924 18.77 40.769 16.661L31.379 11.891C30.212 11.297 29.63 11 29 11C28.37 11 27.788 11.297 26.621 11.891L17.231 16.661C13.076 18.773 11 19.829 11 21.5M47 21.5C47 23.171 44.924 24.23 40.769 26.339L31.379 31.109C30.212 31.703 29.627 32 29 32M11 21.5C11 23.171 13.076 24.23 17.231 26.339L26.621 31.109C27.788 31.703 28.373 32 29 32" fill="#DCD5EE"/>
<path d="M29 53C29.63 53 30.212 52.703 31.379 52.109L40.769 47.339C44.924 45.227 47 44.171 47 42.5V21.5M29 53C28.37 53 27.788 52.703 26.621 52.109L17.231 47.339C13.076 45.227 11 44.171 11 42.5V21.5M29 53V32M47 21.5C47 19.829 44.924 18.77 40.769 16.661L31.379 11.891C30.212 11.297 29.63 11 29 11C28.37 11 27.788 11.297 26.621 11.891L17.231 16.661C13.076 18.773 11 19.829 11 21.5M47 21.5C47 23.171 44.924 24.23 40.769 26.339L31.379 31.109C30.212 31.703 29.627 32 29 32M11 21.5C11 23.171 13.076 24.23 17.231 26.339L26.621 31.109C27.788 31.703 28.373 32 29 32" stroke="#0F0F0F" stroke-width="3.5" stroke-linecap="round" stroke-linejoin="round"/>
<path d="M32.57 60.728L46.652 53.912C52.883 50.9 56 49.388 56 47V17C56 14.612 52.883 13.103 46.652 10.088L32.57 3.272C30.818 2.423 29.942 2 29 2C28.058 2 27.182 2.423 25.43 3.272L11.348 10.088C5.117 13.1 2 14.612 2 17V47C2 49.388 5.117 50.897 11.348 53.912L25.43 60.728C27.182 61.577 28.058 62 29 62C29.942 62 30.818 61.577 32.57 60.728Z" stroke="#0F0F0F" stroke-width="3.5" stroke-linecap="round" stroke-linejoin="round"/>
</svg>
