<svg width="914" height="903" viewBox="0 0 914 903" fill="none" xmlns="http://www.w3.org/2000/svg">
<g filter="url(#filter0_d_73_5659)">
<path d="M134.21 404.919C167.12 358.919 216.44 338.069 216.44 338.069C218.05 337.399 211.19 274.379 211.05 269.909C208.97 196.289 221.18 119.689 276.52 66.5288C345.7 0.118454 471.22 -13.6415 550.58 42.3085C549.58 41.5685 576.69 20.1985 578.98 18.8285C593.792 9.88946 610.505 4.57516 627.76 3.31846C697.2 -1.68154 760.88 52.8788 786.93 118.879C812.98 184.879 807 335.259 759.21 378.629" stroke="white" stroke-width="5.05" stroke-miterlimit="10"/>
<path d="M104.54 484.719C106.251 466.602 110.909 448.885 118.33 432.269C119.037 430.689 119.777 429.142 120.55 427.629" stroke="white" stroke-width="5.05" stroke-miterlimit="10"/>
<path d="M190.36 676.157C182.36 668.887 174.95 661.487 168.16 654.047" stroke="#CCDDE2" stroke-width="5.05" stroke-miterlimit="10"/>
<path d="M857 459.949C857.06 464.949 857 470.049 856.76 475.159C855.34 506.769 848.57 539.439 831.65 566.059C828.57 570.971 825.134 575.65 821.37 580.059C785.37 575.309 780 538.589 738.37 517.829C688.5 492.899 606.84 501.829 606.84 501.829L647.07 464.719C644.92 352.959 562.87 359.819 562.87 359.819L558.7 370.029C561.867 360.782 565.07 352.159 568.31 344.159L568.49 343.739C606.49 249.359 645.86 237.659 676.49 224.029C683.807 222.291 691.3 221.398 698.82 221.369C777.13 220.949 823.09 300.699 843.19 364.899C848.19 380.899 855.88 415.119 856.91 453.599C856.93 455.659 857 457.809 857 459.949Z" fill="#CFD2DA"/>
<path d="M901 878.83C894.92 887.2 884.89 891.76 874.55 891.76H755.75C751.185 891.825 746.656 890.934 742.456 889.145C738.255 887.355 734.476 884.707 731.36 881.37C730.938 880.942 730.543 880.488 730.18 880.01C726.457 875.398 724.129 869.819 723.47 863.93C722.87 858.52 726.89 853.71 732.33 853.93C734.391 854.009 736.354 854.834 737.854 856.249C739.354 857.665 740.291 859.576 740.49 861.63C740.49 862.06 740.58 862.48 740.64 862.9C741.08 865.34 742.153 867.623 743.75 869.52C745.163 871.19 746.937 872.517 748.938 873.402C750.938 874.287 753.114 874.707 755.3 874.63H875.06C877.204 874.666 879.33 874.239 881.293 873.375C883.256 872.512 885.008 871.234 886.43 869.63C888.033 867.774 889.127 865.534 889.604 863.129C890.081 860.724 889.924 858.236 889.15 855.91L835.66 696.86C835.223 695.64 834.706 694.45 834.11 693.3C830.97 686.667 825.993 681.074 819.77 677.185C813.547 673.296 806.338 671.274 799 671.36C776.48 671.63 747.89 671.69 745.2 671.69C685.27 671.47 658 671.47 643 671.87C644.029 668.184 645.89 664.783 648.44 661.93C648.44 661.93 648.5 661.87 648.5 661.84C652.158 657.941 657.165 655.584 662.5 655.25C684.72 653.43 706.72 650.11 728.09 644.31C765.8 634.09 801.77 616.56 826.76 588.37C838.924 574.724 848.119 558.698 853.76 541.31C858.138 527.503 860.897 513.234 861.98 498.79C862.367 494.23 862.607 489.636 862.7 485.01V484.8C862.7 483.74 862.76 482.65 862.76 481.59C862.896 475 862.595 468.409 861.86 461.86C868.39 461.911 874.644 464.5 879.3 469.08C879.708 470.157 880.01 471.273 880.2 472.41C880.381 473.487 880.471 474.577 880.47 475.67V605.02C880.481 613.855 878.737 622.604 875.34 630.759C871.942 638.915 866.96 646.315 860.68 652.53C850.28 662.83 847.32 678.46 852.25 692.21L905.41 850.39C907.016 855.135 907.454 860.198 906.686 865.149C905.919 870.1 903.968 874.793 901 878.83Z" fill="#3772FF"/>
<path d="M168.17 874.837V512.207H190.36V874.987L168.17 874.837Z" fill="#2E2E2E"/>
<path d="M608 501.544C798.618 480.963 771.169 592.407 822 578.853" stroke="white" stroke-width="5.05" stroke-miterlimit="10"/>
<path d="M520.29 517.797C492.15 524.897 464.77 535.147 441.41 552.187C402.21 580.747 384.29 634.027 400.31 680.187C400.31 680.247 463.31 861.977 463.31 861.977H446.73C443.157 861.976 439.619 862.682 436.32 864.055C433.021 865.428 430.027 867.441 427.51 869.977C422.58 874.877 420.15 883.047 420.15 890.547H569.38L512.67 705.047C511.256 700.475 510.938 695.633 511.742 690.915C512.546 686.197 514.449 681.734 517.298 677.888C520.147 674.042 523.861 670.921 528.141 668.777C532.42 666.633 537.144 665.526 541.93 665.547C574.24 666.457 604.25 667.697 636.93 666.277" stroke="white" stroke-width="5.05" stroke-miterlimit="10"/>
<path d="M857.23 476.668V476.468C855.78 437.468 853.82 398.988 843.15 364.868C823.05 300.668 777.09 220.918 698.78 221.338C691.26 221.367 683.767 222.26 676.45 223.998C624.83 236.268 588.98 289.158 568.45 343.708L568.27 344.128C566.31 349.361 564.497 354.581 562.83 359.788C561.7 363.292 560.306 366.705 558.66 369.998C552.371 382.671 542.402 393.151 530.059 400.065C517.715 406.979 503.572 410.005 489.48 408.748C394.68 400.128 269.74 395.208 230.39 461.818" stroke="white" stroke-width="5.05" stroke-miterlimit="10"/>
<path d="M702.1 404.129C688.3 420.789 673.77 436.879 658.75 452.439C628 484.319 601.47 518.179 553.75 520.439C515.68 522.269 479.44 507.659 443.44 497.529C404.93 486.699 385.44 478.039 349.55 467.099C339.214 463.961 328.491 462.278 317.69 462.099L281.56 462.379" stroke="white" stroke-width="5.05" stroke-miterlimit="10"/>
<path d="M561.18 864.32C564.62 862.777 568.35 861.986 572.12 862H588.74C588.74 862 554 794.47 526.22 749.52" stroke="white" stroke-width="5.05" stroke-miterlimit="10"/>
<path d="M584 666.43L700.2 891.76H568.76H544.92" stroke="white" stroke-width="5.05" stroke-miterlimit="10"/>
<path d="M901 878.83C894.92 887.2 884.89 891.76 874.55 891.76H755.75C745.9 891.76 736.29 887.68 730.15 879.98C726.427 875.368 724.099 869.789 723.44 863.9C722.84 858.49 726.86 853.68 732.3 853.9C734.361 853.979 736.324 854.804 737.824 856.219C739.324 857.635 740.261 859.546 740.46 861.6C740.703 864.504 741.842 867.261 743.72 869.49C745.154 871.134 746.932 872.444 748.927 873.327C750.923 874.21 753.088 874.644 755.27 874.6H875.06C877.204 874.636 879.33 874.209 881.293 873.345C883.255 872.482 885.008 871.204 886.43 869.6C888.033 867.744 889.127 865.504 889.604 863.099C890.08 860.694 889.924 858.206 889.15 855.88L835.66 696.86C832.951 689.33 827.967 682.83 821.398 678.261C814.829 673.692 807.001 671.28 799 671.36C776.48 671.63 747.89 671.69 745.2 671.69C678.47 671.48 652.2 671.48 638.28 671.99C638.063 671.988 637.849 671.944 637.649 671.86C637.449 671.776 637.268 671.653 637.116 671.499C636.964 671.345 636.843 671.163 636.762 670.962C636.68 670.761 636.638 670.546 636.64 670.33C636.62 664.156 638.885 658.193 643 653.59C643.016 653.578 643.03 653.563 643.04 653.546C643.05 653.529 643.057 653.509 643.06 653.49C646.723 649.6 651.727 647.248 657.06 646.91C679.28 645.09 701.28 641.77 722.65 635.97C760.36 625.75 796.33 608.22 821.32 580.03C833.484 566.384 842.679 550.358 848.32 532.97C852.686 519.168 855.434 504.906 856.51 490.47C856.903 485.896 857.143 481.303 857.23 476.69V476.47C857.23 475.42 857.29 474.33 857.29 473.27C857.426 466.68 857.125 460.089 856.39 453.54C867.27 453.48 878.24 461.39 880.14 472.43C880.321 473.507 880.411 474.597 880.41 475.69V605.02C880.42 613.855 878.677 622.604 875.279 630.759C871.882 638.915 866.899 646.315 860.62 652.53C850.22 662.83 847.26 678.46 852.19 692.21L905.35 850.39C906.964 855.131 907.412 860.191 906.655 865.142C905.898 870.093 903.958 874.788 901 878.83Z" stroke="white" stroke-width="5.05" stroke-miterlimit="10"/>
<path d="M330.24 484.731H20.73C13.1471 484.731 7 490.878 7 498.461V498.471C7 506.054 13.1471 512.201 20.73 512.201H330.24C337.823 512.201 343.97 506.054 343.97 498.471V498.461C343.97 490.878 337.823 484.731 330.24 484.731Z" stroke="white" stroke-width="5.05" stroke-miterlimit="10"/>
<path d="M242.59 876.559H117.44C113.193 876.559 109.75 880.002 109.75 884.249C109.75 888.496 113.193 891.939 117.44 891.939H242.59C246.837 891.939 250.28 888.496 250.28 884.249C250.28 880.002 246.837 876.559 242.59 876.559Z" stroke="white" stroke-width="5.05" stroke-miterlimit="10"/>
<path d="M150.86 472.401V473.781C151.06 483.271 159.99 484.721 167.69 484.781L316.55 484.681C323.07 484.681 328.45 479.681 328.46 473.541V473.281C328.34 467.281 323.1 462.391 316.66 462.381C316.66 462.381 233.38 462.081 168.88 461.891C167.72 465.271 164.78 467.891 161.11 470.031C157.953 471.686 154.423 472.502 150.86 472.401Z" stroke="white" stroke-width="5.05" stroke-miterlimit="10"/>
<path d="M69.0001 338.699C69.0311 340.279 69.4831 341.822 70.3101 343.169L139.31 459.059C140.203 460.452 141.375 461.646 142.751 462.565C144.128 463.484 145.68 464.108 147.31 464.399C150.067 464.942 152.924 464.632 155.5 463.509C159.73 461.629 162.17 457.839 162.09 453.999C162.075 453.516 162.025 453.034 161.94 452.559C161.728 451.5 161.335 450.485 160.78 449.559L91.7801 333.669C88.7801 328.599 81.4401 326.609 75.5401 329.219C71.3301 331.059 68.8901 334.849 69.0001 338.699Z" stroke="white" stroke-width="5.05" stroke-miterlimit="10"/>
<path d="M255.58 462.38C255.58 462.38 263.89 454.47 283 441.91" stroke="white" stroke-width="5.05" stroke-miterlimit="10"/>
<path d="M323.34 332.379L293.05 365.969C290.941 368.309 288.013 369.75 284.872 369.994C281.73 370.238 278.615 369.266 276.17 367.279C274.819 366.182 273.717 364.812 272.935 363.258C272.153 361.704 271.709 360.002 271.634 358.264C271.558 356.526 271.852 354.791 272.496 353.175C273.14 351.559 274.12 350.098 275.37 348.889L280.91 343.529C281.12 343.229 281.36 342.959 281.6 342.679L285.6 338.269L320 300.889C324.175 296.3 329.433 292.831 335.293 290.798C341.154 288.764 347.431 288.232 353.55 289.249L354.06 289.339" stroke="white" stroke-width="5.05" stroke-miterlimit="10"/>
<path d="M366 341.469H335.7C332.252 341.469 328.946 340.099 326.508 337.661C324.07 335.223 322.7 331.917 322.7 328.469C322.7 325.021 324.07 321.715 326.508 319.277C328.946 316.839 332.252 315.469 335.7 315.469H378.7" stroke="white" stroke-width="5.05" stroke-miterlimit="10"/>
<path d="M342.77 341.469C342.35 346.779 340.32 350.709 337.33 353.469C329.63 360.469 315.51 359.699 305.69 354.889" stroke="white" stroke-width="5.05" stroke-miterlimit="10"/>
<path d="M285.65 338.249C276.94 327.759 278.73 313.499 285.5 302.469C313.45 256.829 366.73 284.939 401.76 304.609C422.613 316.374 442.546 329.699 461.39 344.469C478.07 357.469 493.51 373.029 513.55 380.849C525.55 385.539 539.72 386.659 551.66 381.249" stroke="white" stroke-width="5.05" stroke-miterlimit="10"/>
<path d="M337.33 353.391C358.467 368.992 378.649 385.846 397.77 403.861" stroke="white" stroke-width="5.05" stroke-miterlimit="10"/>
<path d="M594.51 108.047C599.57 112.667 607.34 112.917 613.77 112.297C621.99 111.547 630.13 109.557 638.18 107.877L643.07 107.627H643.14C644.078 107.637 645.004 107.83 645.867 108.198C646.73 108.565 647.512 109.099 648.168 109.768C648.825 110.438 649.343 111.23 649.693 112.1C650.044 112.97 650.219 113.9 650.21 114.837C650.322 125.391 649.269 135.925 647.07 146.247L656.44 151.317C657.65 147.937 656.29 143.067 659.16 142.697C661 139.267 663.74 137.037 668.04 139.587C676.46 144.587 679.78 159.277 671.67 166.007L676.87 175.727C678.683 179.135 681.622 181.807 685.185 183.288C688.749 184.769 692.717 184.967 696.41 183.847L691.1 172.107C703.56 174.317 712.28 158.767 708.48 149.277C705.89 142.757 706.02 137.687 709.48 131.347C709.71 130.917 707.36 130.347 707.56 129.907C707.68 125.257 706.39 120.277 704.15 117.907C700.21 113.667 692.28 112.907 693.9 106.467C694.62 103.665 694.886 100.765 694.69 97.8767C694.267 94.1017 693.041 90.4607 691.093 87.1997C689.146 83.9377 686.523 81.1307 683.4 78.9667C676.84 74.6567 669.5 78.5667 662.49 78.4567C653.98 78.3667 647.88 71.1467 638.96 71.0367C634.52 70.9667 630.96 72.6967 627.16 74.8467C623.98 76.6767 620.85 78.5867 617.81 80.6567C614.77 82.7267 612.07 84.5167 608.44 84.5267C603.71 84.5867 599.14 81.5867 594.38 82.9867C591.973 83.6347 589.858 85.0807 588.38 87.0867C586.87 94.4667 589.6 103.597 594.51 108.047Z" fill="#3772FF"/>
<path d="M656.48 150.22C657.09 147.615 657.989 145.086 659.16 142.68C661 139.25 663.75 137.02 668.04 139.57C676.46 144.57 679.78 159.26 671.67 165.99L676.87 175.71C678.682 179.117 681.622 181.79 685.185 183.271C688.749 184.752 692.717 184.949 696.41 183.83" stroke="white" stroke-width="5.05" stroke-linecap="round" stroke-linejoin="round"/>
<path d="M691.1 172.09L696.39 183.85C697.72 186.66 701.53 195.3 705.52 204.28C708.36 210.71 711.32 217.33 713.52 222.2" stroke="white" stroke-width="5.05" stroke-linecap="round" stroke-linejoin="round"/>
<path d="M605.41 129.86C605.41 129.86 621 125.98 627.81 137.8" stroke="white" stroke-width="5.05" stroke-miterlimit="10"/>
<path d="M610 165.15C605.8 166.3 600.15 167.33 596.91 163.67L603.97 148.81C605.684 145.166 606.108 141.047 605.17 137.13C603.63 130.54 599.78 120.53 603.91 111.84" stroke="white" stroke-width="5.05" stroke-miterlimit="10"/>
<path d="M620.491 145.234C621.674 143.271 620.762 140.552 618.453 139.161C616.145 137.77 613.315 138.233 612.132 140.196C610.948 142.159 611.86 144.878 614.169 146.269C616.477 147.661 619.307 147.197 620.491 145.234Z" fill="white"/>
<path d="M643.24 238.791L639.54 197.731" stroke="white" stroke-width="5.05" stroke-miterlimit="10"/>
<path d="M656.44 151.297C656.44 150.937 656.44 150.567 656.44 150.207C656.46 149.821 656.46 149.434 656.44 149.047" stroke="white" stroke-width="5.05" stroke-linecap="round" stroke-linejoin="round"/>
<path d="M656.45 151.311L653.23 149.581L647.07 146.231" stroke="white" stroke-width="5.05" stroke-linecap="round" stroke-linejoin="round"/>
<path d="M630.67 166.207C630.67 166.207 630.36 176.607 618.47 180.887" stroke="white" stroke-width="5.05" stroke-miterlimit="10"/>
<path d="M691.1 172.089C703.56 174.299 712.28 158.749 708.48 149.259C705.89 142.739 706.02 137.669 709.48 131.329C709.71 130.899 709.9 130.479 710.1 130.059C712.67 124.389 711.76 118.769 707.72 113.949C703.89 109.389 698.12 107.789 699.78 101.139C700.526 98.2518 700.803 95.2638 700.6 92.2888C700.169 88.4058 698.91 84.6608 696.909 81.3058C694.908 77.9508 692.211 75.0638 689 72.8388C682.26 68.3688 674.67 72.4188 667.41 72.3088C658.67 72.1788 652.36 64.7388 643.19 64.6288C638.6 64.6288 634.9 66.3388 631 68.5588C627.72 70.4488 624.47 72.4388 621.37 74.5588C618.27 76.6788 615.37 78.5588 611.69 78.5588C606.81 78.5588 602.1 75.5588 597.22 76.9588C592.34 78.3588 589.44 82.3988 588.48 87.0788C586.92 94.4188 589.65 103.589 594.56 108.079C599.62 112.699 607.39 112.949 613.82 112.329C622.04 111.579 630.18 109.589 638.23 107.909L643.12 107.659H643.19C644.128 107.668 645.054 107.862 645.917 108.229C646.78 108.597 647.562 109.13 648.218 109.8C648.875 110.469 649.393 111.262 649.744 112.131C650.094 113.001 650.269 113.931 650.26 114.869C650.372 125.423 649.319 135.956 647.12 146.279" stroke="white" stroke-width="5.05" stroke-miterlimit="10"/>
<path d="M658.33 183.469C658.33 183.469 639.75 208.149 623.24 202.619C606.73 197.089 605.89 166.539 605.89 166.539" stroke="white" stroke-width="5.05" stroke-linecap="round" stroke-linejoin="round"/>
<path d="M168.17 874.837V512.207H190.36V874.987" stroke="white" stroke-width="5.05" stroke-miterlimit="10"/>
<path d="M94.0421 286.506C92.549 288.879 91.4103 291.455 90.6615 294.155C89.3314 299.121 89.3139 304.347 90.6105 309.321C91.9071 314.296 94.4738 318.848 98.0598 322.532C100.905 325.379 104.618 327.704 107.487 330.658C109.588 332.706 111.07 335.304 111.764 338.155C111.866 339.12 112.196 340.048 112.724 340.861C114.387 342.878 116.308 339.976 117.883 339.532C120.409 338.881 123.087 339.178 125.411 340.366C131.531 343.375 138.504 344.176 145.147 342.63C151.789 341.084 157.693 337.289 161.856 331.887C166.019 326.484 168.185 319.808 167.988 312.992C167.79 306.174 165.239 299.635 160.771 294.483C156.363 289.396 150.385 285.982 144.636 282.477C139.569 279.385 134.548 276.115 128.96 274.102C115.822 269.37 101.2 275.131 94.0421 286.506Z" fill="#3772FF"/>
<path d="M292.95 891.758H709.22" stroke="white" stroke-width="3.15" stroke-miterlimit="10"/>
<path fill-rule="evenodd" clip-rule="evenodd" d="M126.643 295.026C126.98 295.858 126.536 296.661 125.652 296.819L113.676 298.957L118.236 310.237C118.573 311.069 118.129 311.871 117.245 312.029C116.362 312.187 115.372 311.64 115.036 310.808L109.866 298.022C109.53 297.19 109.973 296.387 110.857 296.229L124.434 293.805C125.318 293.647 126.307 294.194 126.643 295.026ZM136.932 300.713C137.815 300.555 138.805 301.102 139.141 301.934L144.311 314.72C144.647 315.552 144.203 316.355 143.32 316.513L129.743 318.937C128.859 319.095 127.87 318.548 127.534 317.716C127.197 316.884 127.641 316.081 128.524 315.923L140.501 313.785L135.941 302.505C135.604 301.673 136.048 300.871 136.932 300.713Z" fill="white"/>
<path d="M562 356.5L586.253 364.374C595.669 367.432 604.437 372.208 612.112 378.462V378.462C622.218 386.696 630.161 397.272 635.252 409.273L637.36 414.24C640.112 420.729 642.171 427.49 643.502 434.411L649 463" stroke="white" stroke-width="5.5"/>
</g>
<defs>
<filter id="filter0_d_73_5659" x="0.475098" y="0.474243" width="913.063" height="901.99" filterUnits="userSpaceOnUse" color-interpolation-filters="sRGB">
<feFlood flood-opacity="0" result="BackgroundImageFix"/>
<feColorMatrix in="SourceAlpha" type="matrix" values="0 0 0 0 0 0 0 0 0 0 0 0 0 0 0 0 0 0 127 0" result="hardAlpha"/>
<feOffset dy="4"/>
<feGaussianBlur stdDeviation="2"/>
<feComposite in2="hardAlpha" operator="out"/>
<feColorMatrix type="matrix" values="0 0 0 0 0 0 0 0 0 0 0 0 0 0 0 0 0 0 0.25 0"/>
<feBlend mode="normal" in2="BackgroundImageFix" result="effect1_dropShadow_73_5659"/>
<feBlend mode="normal" in="SourceGraphic" in2="effect1_dropShadow_73_5659" result="shape"/>
</filter>
</defs>
</svg>
