<svg width="561" height="364" viewBox="0 0 561 364" fill="none" xmlns="http://www.w3.org/2000/svg">
<path d="M239.533 39.371L232.204 17.0784H131" stroke="#333333"/>
<path d="M132.378 11.9451V3.94507H137.206V4.80444H133.347V7.50757H136.956V8.36694H133.347V11.0857H137.269V11.9451H132.378ZM141.265 12.0701C140.703 12.0701 140.218 11.9373 139.812 11.6716C139.406 11.406 139.093 11.0401 138.874 10.574C138.656 10.1078 138.546 9.57528 138.546 8.97632C138.546 8.36694 138.658 7.82918 138.882 7.36304C139.109 6.89429 139.424 6.5284 139.828 6.26538C140.234 5.99976 140.708 5.86694 141.249 5.86694C141.671 5.86694 142.051 5.94507 142.39 6.10132C142.729 6.25757 143.006 6.47632 143.222 6.75757C143.438 7.03882 143.572 7.36694 143.624 7.74194H142.703C142.632 7.46851 142.476 7.22632 142.234 7.01538C141.994 6.80184 141.671 6.69507 141.265 6.69507C140.906 6.69507 140.591 6.78882 140.32 6.97632C140.051 7.16121 139.842 7.42293 139.691 7.76147C139.542 8.09741 139.468 8.49194 139.468 8.94507C139.468 9.40861 139.541 9.81226 139.687 10.156C139.835 10.4998 140.044 10.7667 140.312 10.9568C140.583 11.1469 140.9 11.2419 141.265 11.2419C141.505 11.2419 141.722 11.2003 141.917 11.1169C142.113 11.0336 142.278 10.9138 142.413 10.7576C142.549 10.6013 142.645 10.4138 142.703 10.1951H143.624C143.572 10.5492 143.443 10.8682 143.238 11.1521C143.035 11.4333 142.765 11.6573 142.429 11.824C142.096 11.988 141.708 12.0701 141.265 12.0701ZM147.41 12.0701C146.868 12.0701 146.393 11.9412 145.984 11.6833C145.578 11.4255 145.26 11.0649 145.031 10.6013C144.804 10.1378 144.691 9.59611 144.691 8.97632C144.691 8.35132 144.804 7.80575 145.031 7.3396C145.26 6.87345 145.578 6.51147 145.984 6.25366C146.393 5.99585 146.868 5.86694 147.41 5.86694C147.951 5.86694 148.425 5.99585 148.831 6.25366C149.24 6.51147 149.558 6.87345 149.785 7.3396C150.014 7.80575 150.128 8.35132 150.128 8.97632C150.128 9.59611 150.014 10.1378 149.785 10.6013C149.558 11.0649 149.24 11.4255 148.831 11.6833C148.425 11.9412 147.951 12.0701 147.41 12.0701ZM147.41 11.2419C147.821 11.2419 148.16 11.1365 148.425 10.9255C148.691 10.7146 148.887 10.4373 149.015 10.0935C149.143 9.74976 149.206 9.37736 149.206 8.97632C149.206 8.57528 149.143 8.20158 149.015 7.85522C148.887 7.50887 148.691 7.22892 148.425 7.01538C148.16 6.80184 147.821 6.69507 147.41 6.69507C146.998 6.69507 146.66 6.80184 146.394 7.01538C146.128 7.22892 145.932 7.50887 145.804 7.85522C145.676 8.20158 145.613 8.57528 145.613 8.97632C145.613 9.37736 145.676 9.74976 145.804 10.0935C145.932 10.4373 146.128 10.7146 146.394 10.9255C146.66 11.1365 146.998 11.2419 147.41 11.2419ZM155.786 7.28882L154.957 7.52319C154.905 7.38517 154.829 7.25106 154.727 7.12085C154.628 6.98804 154.493 6.87866 154.321 6.79272C154.149 6.70679 153.929 6.66382 153.661 6.66382C153.293 6.66382 152.987 6.74845 152.743 6.91772C152.5 7.08439 152.379 7.29663 152.379 7.55444C152.379 7.78361 152.463 7.9646 152.629 8.09741C152.796 8.23022 153.056 8.3409 153.411 8.42944L154.301 8.64819C154.838 8.7784 155.237 8.97762 155.5 9.24585C155.763 9.51147 155.895 9.85392 155.895 10.2732C155.895 10.6169 155.796 10.9242 155.598 11.1951C155.403 11.4659 155.129 11.6794 154.778 11.8357C154.426 11.9919 154.017 12.0701 153.551 12.0701C152.939 12.0701 152.433 11.9373 152.032 11.6716C151.631 11.406 151.377 11.018 151.27 10.5076L152.145 10.2888C152.228 10.6117 152.386 10.8539 152.618 11.0154C152.852 11.1768 153.158 11.2576 153.536 11.2576C153.965 11.2576 154.306 11.1664 154.559 10.9841C154.814 10.7992 154.942 10.5779 154.942 10.3201C154.942 10.1117 154.869 9.93726 154.723 9.79663C154.577 9.6534 154.353 9.54663 154.051 9.47632L153.051 9.24194C152.502 9.11174 152.098 8.90991 151.84 8.63647C151.585 8.36043 151.457 8.01538 151.457 7.60132C151.457 7.26278 151.552 6.9633 151.743 6.70288C151.935 6.44246 152.197 6.23804 152.528 6.0896C152.861 5.94116 153.239 5.86694 153.661 5.86694C154.254 5.86694 154.72 5.99715 155.059 6.25757C155.4 6.51798 155.642 6.86173 155.786 7.28882ZM157.876 14.1951C157.72 14.1951 157.581 14.182 157.458 14.156C157.336 14.1326 157.251 14.1091 157.204 14.0857L157.439 13.2732C157.663 13.3305 157.861 13.3513 158.033 13.3357C158.204 13.3201 158.357 13.2432 158.49 13.1052C158.625 12.9698 158.749 12.7498 158.861 12.4451L159.033 11.9763L156.814 5.94507H157.814L159.47 10.7263H159.533L161.189 5.94507H162.189L159.642 12.8201C159.527 13.13 159.385 13.3865 159.216 13.5896C159.047 13.7953 158.85 13.9477 158.626 14.0466C158.405 14.1456 158.155 14.1951 157.876 14.1951ZM167.656 7.28882L166.828 7.52319C166.775 7.38517 166.699 7.25106 166.597 7.12085C166.498 6.98804 166.363 6.87866 166.191 6.79272C166.019 6.70679 165.799 6.66382 165.531 6.66382C165.163 6.66382 164.857 6.74845 164.613 6.91772C164.371 7.08439 164.249 7.29663 164.249 7.55444C164.249 7.78361 164.333 7.9646 164.499 8.09741C164.666 8.23022 164.926 8.3409 165.281 8.42944L166.171 8.64819C166.708 8.7784 167.107 8.97762 167.371 9.24585C167.634 9.51147 167.765 9.85392 167.765 10.2732C167.765 10.6169 167.666 10.9242 167.468 11.1951C167.273 11.4659 166.999 11.6794 166.648 11.8357C166.296 11.9919 165.887 12.0701 165.421 12.0701C164.809 12.0701 164.303 11.9373 163.902 11.6716C163.501 11.406 163.247 11.018 163.14 10.5076L164.015 10.2888C164.098 10.6117 164.256 10.8539 164.488 11.0154C164.722 11.1768 165.028 11.2576 165.406 11.2576C165.835 11.2576 166.176 11.1664 166.429 10.9841C166.684 10.7992 166.812 10.5779 166.812 10.3201C166.812 10.1117 166.739 9.93726 166.593 9.79663C166.447 9.6534 166.223 9.54663 165.921 9.47632L164.921 9.24194C164.372 9.11174 163.968 8.90991 163.71 8.63647C163.455 8.36043 163.328 8.01538 163.328 7.60132C163.328 7.26278 163.423 6.9633 163.613 6.70288C163.805 6.44246 164.067 6.23804 164.398 6.0896C164.731 5.94116 165.109 5.86694 165.531 5.86694C166.124 5.86694 166.591 5.99715 166.929 6.25757C167.27 6.51798 167.512 6.86173 167.656 7.28882ZM171.762 5.94507V6.72632H168.653V5.94507H171.762ZM169.559 4.50757H170.481V10.2263C170.481 10.4867 170.519 10.682 170.594 10.8123C170.672 10.9399 170.771 11.0258 170.891 11.0701C171.013 11.1117 171.142 11.1326 171.278 11.1326C171.379 11.1326 171.463 11.1274 171.528 11.1169C171.593 11.1039 171.645 11.0935 171.684 11.0857L171.871 11.9138C171.809 11.9373 171.722 11.9607 171.61 11.9841C171.498 12.0102 171.356 12.0232 171.184 12.0232C170.924 12.0232 170.668 11.9672 170.418 11.8552C170.171 11.7432 169.965 11.5727 169.801 11.3435C169.64 11.1143 169.559 10.8253 169.559 10.4763V4.50757ZM175.6 12.0701C175.022 12.0701 174.523 11.9425 174.104 11.6873C173.687 11.4294 173.366 11.0701 173.139 10.6091C172.915 10.1456 172.803 9.60653 172.803 8.99194C172.803 8.37736 172.915 7.83569 173.139 7.36694C173.366 6.89559 173.681 6.5284 174.084 6.26538C174.491 5.99976 174.965 5.86694 175.506 5.86694C175.819 5.86694 176.127 5.91903 176.432 6.02319C176.737 6.12736 177.014 6.29663 177.264 6.53101C177.514 6.76278 177.713 7.07007 177.862 7.45288C178.01 7.83569 178.084 8.30705 178.084 8.86694V9.25757H173.459V8.46069H177.147C177.147 8.12215 177.079 7.82007 176.944 7.55444C176.811 7.28882 176.621 7.07918 176.373 6.92554C176.129 6.77189 175.84 6.69507 175.506 6.69507C175.139 6.69507 174.821 6.78621 174.553 6.96851C174.287 7.14819 174.083 7.38257 173.94 7.67163C173.797 7.96069 173.725 8.27059 173.725 8.60132V9.13257C173.725 9.58569 173.803 9.96981 173.959 10.2849C174.118 10.5974 174.338 10.8357 174.62 10.9998C174.901 11.1612 175.228 11.2419 175.6 11.2419C175.842 11.2419 176.061 11.2081 176.256 11.1404C176.454 11.0701 176.625 10.9659 176.768 10.8279C176.911 10.6873 177.022 10.5128 177.1 10.3044L177.991 10.5544C177.897 10.8565 177.739 11.1222 177.518 11.3513C177.297 11.5779 177.023 11.755 176.698 11.8826C176.372 12.0076 176.006 12.0701 175.6 12.0701ZM179.487 11.9451V5.94507H180.377V6.88257H180.455C180.58 6.56226 180.782 6.31356 181.061 6.13647C181.34 5.95679 181.674 5.86694 182.065 5.86694C182.461 5.86694 182.79 5.95679 183.053 6.13647C183.319 6.31356 183.526 6.56226 183.674 6.88257H183.737C183.89 6.57267 184.121 6.32658 184.428 6.14429C184.735 5.95939 185.104 5.86694 185.534 5.86694C186.07 5.86694 186.509 6.03491 186.85 6.37085C187.191 6.70418 187.362 7.22371 187.362 7.92944V11.9451H186.44V7.92944C186.44 7.48673 186.319 7.17033 186.077 6.98022C185.834 6.79012 185.549 6.69507 185.221 6.69507C184.799 6.69507 184.472 6.82267 184.241 7.07788C184.009 7.33048 183.893 7.6508 183.893 8.03882V11.9451H182.955V7.83569C182.955 7.49455 182.845 7.21981 182.623 7.01147C182.402 6.80054 182.117 6.69507 181.768 6.69507C181.528 6.69507 181.304 6.75887 181.096 6.88647C180.89 7.01408 180.724 7.19116 180.596 7.41772C180.471 7.64168 180.409 7.9008 180.409 8.19507V11.9451H179.487Z" fill="#333333"/>
<path d="M134 186L89.2 186L22 186" stroke="#333333"/>
<path d="M22.8555 180.533V172.533H23.8242V179.674H27.543V180.533H22.8555ZM28.918 180.533V174.533H29.8398V180.533H28.918ZM29.3867 173.533C29.207 173.533 29.0521 173.472 28.9219 173.35C28.7943 173.227 28.7305 173.08 28.7305 172.908C28.7305 172.737 28.7943 172.589 28.9219 172.467C29.0521 172.345 29.207 172.283 29.3867 172.283C29.5664 172.283 29.7201 172.345 29.8477 172.467C29.9779 172.589 30.043 172.737 30.043 172.908C30.043 173.08 29.9779 173.227 29.8477 173.35C29.7201 173.472 29.5664 173.533 29.3867 173.533ZM35.6221 182.783V179.612H35.5439C35.4762 179.721 35.3799 179.859 35.2549 180.026C35.1299 180.19 34.9515 180.337 34.7197 180.467C34.488 180.595 34.1794 180.658 33.7939 180.658C33.2939 180.658 32.8525 180.532 32.4697 180.28C32.0869 180.024 31.7874 179.665 31.5713 179.201C31.3551 178.735 31.2471 178.184 31.2471 177.549C31.2471 176.919 31.3551 176.372 31.5713 175.908C31.7874 175.445 32.0882 175.087 32.4736 174.834C32.859 174.582 33.3044 174.455 33.8096 174.455C34.2002 174.455 34.5088 174.52 34.7354 174.651C34.9645 174.778 35.139 174.924 35.2588 175.088C35.3812 175.25 35.4762 175.382 35.5439 175.487H35.6533V174.533H36.5439V182.783H35.6221ZM33.9189 179.83C34.2887 179.83 34.6012 179.734 34.8564 179.541C35.1117 179.346 35.3057 179.076 35.4385 178.733C35.5713 178.386 35.6377 177.987 35.6377 177.533C35.6377 177.086 35.5726 176.694 35.4424 176.358C35.3122 176.019 35.1195 175.756 34.8643 175.569C34.609 175.378 34.2939 175.283 33.9189 175.283C33.5283 175.283 33.2028 175.384 32.9424 175.584C32.6846 175.782 32.4906 176.052 32.3604 176.393C32.2327 176.731 32.1689 177.112 32.1689 177.533C32.1689 177.961 32.234 178.349 32.3643 178.698C32.4971 179.044 32.6924 179.32 32.9502 179.526C33.2106 179.729 33.5335 179.83 33.9189 179.83ZM38.9033 180.596C38.7106 180.596 38.5452 180.527 38.4072 180.389C38.2692 180.251 38.2002 180.086 38.2002 179.893C38.2002 179.7 38.2692 179.535 38.4072 179.397C38.5452 179.259 38.7106 179.19 38.9033 179.19C39.096 179.19 39.2614 179.259 39.3994 179.397C39.5374 179.535 39.6064 179.7 39.6064 179.893C39.6064 180.02 39.5739 180.138 39.5088 180.244C39.4463 180.351 39.3617 180.437 39.2549 180.502C39.1507 180.565 39.0335 180.596 38.9033 180.596ZM44.4795 180.533V172.533H47.1826C47.8102 172.533 48.3232 172.647 48.7217 172.873C49.1227 173.097 49.4196 173.401 49.6123 173.783C49.805 174.166 49.9014 174.593 49.9014 175.065C49.9014 175.536 49.805 175.964 49.6123 176.35C49.4222 176.735 49.1279 177.043 48.7295 177.272C48.3311 177.498 47.8206 177.612 47.1982 177.612H45.2607V176.752H47.167C47.5967 176.752 47.9417 176.678 48.2021 176.53C48.4626 176.381 48.6514 176.181 48.7686 175.928C48.8883 175.673 48.9482 175.385 48.9482 175.065C48.9482 174.744 48.8883 174.458 48.7686 174.205C48.6514 173.953 48.4613 173.755 48.1982 173.612C47.9352 173.466 47.5863 173.393 47.1514 173.393H45.4482V180.533H44.4795ZM53.71 180.658C53.1683 180.658 52.693 180.53 52.2842 180.272C51.8779 180.014 51.5602 179.653 51.3311 179.19C51.1045 178.726 50.9912 178.184 50.9912 177.565C50.9912 176.94 51.1045 176.394 51.3311 175.928C51.5602 175.462 51.8779 175.1 52.2842 174.842C52.693 174.584 53.1683 174.455 53.71 174.455C54.2516 174.455 54.7256 174.584 55.1318 174.842C55.5407 175.1 55.8584 175.462 56.085 175.928C56.3141 176.394 56.4287 176.94 56.4287 177.565C56.4287 178.184 56.3141 178.726 56.085 179.19C55.8584 179.653 55.5407 180.014 55.1318 180.272C54.7256 180.53 54.2516 180.658 53.71 180.658ZM53.71 179.83C54.1214 179.83 54.46 179.725 54.7256 179.514C54.9912 179.303 55.1878 179.026 55.3154 178.682C55.443 178.338 55.5068 177.966 55.5068 177.565C55.5068 177.164 55.443 176.79 55.3154 176.444C55.1878 176.097 54.9912 175.817 54.7256 175.604C54.46 175.39 54.1214 175.283 53.71 175.283C53.2985 175.283 52.96 175.39 52.6943 175.604C52.4287 175.817 52.2321 176.097 52.1045 176.444C51.9769 176.79 51.9131 177.164 51.9131 177.565C51.9131 177.966 51.9769 178.338 52.1045 178.682C52.2321 179.026 52.4287 179.303 52.6943 179.514C52.96 179.725 53.2985 179.83 53.71 179.83ZM60.2734 180.658C59.7318 180.658 59.2565 180.53 58.8477 180.272C58.4414 180.014 58.1237 179.653 57.8945 179.19C57.668 178.726 57.5547 178.184 57.5547 177.565C57.5547 176.94 57.668 176.394 57.8945 175.928C58.1237 175.462 58.4414 175.1 58.8477 174.842C59.2565 174.584 59.7318 174.455 60.2734 174.455C60.8151 174.455 61.2891 174.584 61.6953 174.842C62.1042 175.1 62.4219 175.462 62.6484 175.928C62.8776 176.394 62.9922 176.94 62.9922 177.565C62.9922 178.184 62.8776 178.726 62.6484 179.19C62.4219 179.653 62.1042 180.014 61.6953 180.272C61.2891 180.53 60.8151 180.658 60.2734 180.658ZM60.2734 179.83C60.6849 179.83 61.0234 179.725 61.2891 179.514C61.5547 179.303 61.7513 179.026 61.8789 178.682C62.0065 178.338 62.0703 177.966 62.0703 177.565C62.0703 177.164 62.0065 176.79 61.8789 176.444C61.7513 176.097 61.5547 175.817 61.2891 175.604C61.0234 175.39 60.6849 175.283 60.2734 175.283C59.862 175.283 59.5234 175.39 59.2578 175.604C58.9922 175.817 58.7956 176.097 58.668 176.444C58.5404 176.79 58.4766 177.164 58.4766 177.565C58.4766 177.966 58.5404 178.338 58.668 178.682C58.7956 179.026 58.9922 179.303 59.2578 179.514C59.5234 179.725 59.862 179.83 60.2734 179.83ZM65.3213 172.533V180.533H64.3994V172.533H65.3213Z" fill="#333333"/>
<path d="M262.614 337.621L258.802 360.776H158" stroke="#333333"/>
<path d="M159.567 355.642V347.642H160.536V354.783H164.254V355.642H159.567ZM165.629 355.642V349.642H166.551V355.642H165.629ZM166.098 348.642C165.918 348.642 165.763 348.581 165.633 348.458C165.506 348.336 165.442 348.189 165.442 348.017C165.442 347.845 165.506 347.698 165.633 347.576C165.763 347.453 165.918 347.392 166.098 347.392C166.278 347.392 166.431 347.453 166.559 347.576C166.689 347.698 166.754 347.845 166.754 348.017C166.754 348.189 166.689 348.336 166.559 348.458C166.431 348.581 166.278 348.642 166.098 348.642ZM172.333 357.892V354.72H172.255C172.188 354.83 172.091 354.968 171.966 355.134C171.841 355.298 171.663 355.445 171.431 355.576C171.199 355.703 170.891 355.767 170.505 355.767C170.005 355.767 169.564 355.641 169.181 355.388C168.798 355.133 168.499 354.774 168.283 354.31C168.066 353.844 167.958 353.293 167.958 352.658C167.958 352.028 168.066 351.481 168.283 351.017C168.499 350.554 168.8 350.195 169.185 349.943C169.57 349.69 170.016 349.564 170.521 349.564C170.912 349.564 171.22 349.629 171.447 349.759C171.676 349.887 171.85 350.033 171.97 350.197C172.093 350.358 172.188 350.491 172.255 350.595H172.365V349.642H173.255V357.892H172.333ZM170.63 354.939C171 354.939 171.313 354.843 171.568 354.65C171.823 354.455 172.017 354.185 172.15 353.841C172.283 353.495 172.349 353.095 172.349 352.642C172.349 352.194 172.284 351.802 172.154 351.466C172.024 351.128 171.831 350.865 171.576 350.677C171.32 350.487 171.005 350.392 170.63 350.392C170.24 350.392 169.914 350.492 169.654 350.693C169.396 350.891 169.202 351.16 169.072 351.501C168.944 351.84 168.88 352.22 168.88 352.642C168.88 353.069 168.945 353.457 169.076 353.806C169.208 354.153 169.404 354.429 169.662 354.634C169.922 354.837 170.245 354.939 170.63 354.939ZM175.615 355.705C175.422 355.705 175.257 355.636 175.119 355.498C174.981 355.36 174.912 355.194 174.912 355.001C174.912 354.809 174.981 354.643 175.119 354.505C175.257 354.367 175.422 354.298 175.615 354.298C175.807 354.298 175.973 354.367 176.111 354.505C176.249 354.643 176.318 354.809 176.318 355.001C176.318 355.129 176.285 355.246 176.22 355.353C176.158 355.46 176.073 355.546 175.966 355.611C175.862 355.673 175.745 355.705 175.615 355.705ZM181.191 347.642H182.347L185.066 354.283H185.16L187.878 347.642H189.035V355.642H188.128V349.564H188.05L185.55 355.642H184.675L182.175 349.564H182.097V355.642H181.191V347.642ZM190.852 355.642V349.642H191.774V355.642H190.852ZM191.321 348.642C191.141 348.642 190.986 348.581 190.856 348.458C190.728 348.336 190.664 348.189 190.664 348.017C190.664 347.845 190.728 347.698 190.856 347.576C190.986 347.453 191.141 347.392 191.321 347.392C191.5 347.392 191.654 347.453 191.782 347.576C191.912 347.698 191.977 347.845 191.977 348.017C191.977 348.189 191.912 348.336 191.782 348.458C191.654 348.581 191.5 348.642 191.321 348.642ZM194.384 352.033V355.642H193.462V349.642H194.353V350.58H194.431C194.572 350.275 194.785 350.03 195.072 349.845C195.358 349.658 195.728 349.564 196.181 349.564C196.587 349.564 196.943 349.647 197.247 349.814C197.552 349.978 197.789 350.228 197.958 350.564C198.128 350.897 198.212 351.319 198.212 351.83V355.642H197.29V351.892C197.29 351.421 197.168 351.054 196.923 350.791C196.678 350.525 196.343 350.392 195.915 350.392C195.621 350.392 195.358 350.456 195.126 350.583C194.897 350.711 194.716 350.897 194.583 351.142C194.451 351.387 194.384 351.684 194.384 352.033ZM199.897 355.642V349.642H200.819V355.642H199.897ZM200.366 348.642C200.186 348.642 200.031 348.581 199.901 348.458C199.773 348.336 199.709 348.189 199.709 348.017C199.709 347.845 199.773 347.698 199.901 347.576C200.031 347.453 200.186 347.392 200.366 347.392C200.545 347.392 200.699 347.453 200.827 347.576C200.957 347.698 201.022 347.845 201.022 348.017C201.022 348.189 200.957 348.336 200.827 348.458C200.699 348.581 200.545 348.642 200.366 348.642ZM203.429 352.033V355.642H202.507V349.642H203.398V350.58H203.476C203.617 350.275 203.83 350.03 204.117 349.845C204.403 349.658 204.773 349.564 205.226 349.564C205.632 349.564 205.988 349.647 206.292 349.814C206.597 349.978 206.834 350.228 207.003 350.564C207.173 350.897 207.257 351.319 207.257 351.83V355.642H206.335V351.892C206.335 351.421 206.213 351.054 205.968 350.791C205.723 350.525 205.387 350.392 204.96 350.392C204.666 350.392 204.403 350.456 204.171 350.583C203.942 350.711 203.761 350.897 203.628 351.142C203.496 351.387 203.429 351.684 203.429 352.033ZM211.364 358.017C210.918 358.017 210.536 357.96 210.215 357.845C209.895 357.733 209.628 357.585 209.414 357.4C209.204 357.218 209.036 357.022 208.911 356.814L209.645 356.298C209.728 356.408 209.834 356.533 209.961 356.673C210.089 356.817 210.263 356.94 210.485 357.044C210.709 357.151 211.002 357.205 211.364 357.205C211.848 357.205 212.248 357.087 212.563 356.853C212.878 356.619 213.036 356.251 213.036 355.751V354.533H212.957C212.89 354.642 212.793 354.778 212.668 354.939C212.546 355.098 212.369 355.24 212.137 355.365C211.908 355.487 211.598 355.548 211.207 355.548C210.723 355.548 210.288 355.434 209.903 355.205C209.52 354.975 209.217 354.642 208.993 354.205C208.771 353.767 208.661 353.236 208.661 352.611C208.661 351.996 208.769 351.461 208.985 351.005C209.201 350.547 209.502 350.193 209.887 349.943C210.273 349.69 210.718 349.564 211.223 349.564C211.614 349.564 211.924 349.629 212.153 349.759C212.385 349.887 212.562 350.033 212.684 350.197C212.809 350.358 212.905 350.491 212.973 350.595H213.067V349.642H213.957V355.814C213.957 356.33 213.84 356.749 213.606 357.072C213.374 357.397 213.062 357.636 212.668 357.787C212.278 357.94 211.843 358.017 211.364 358.017ZM211.332 354.72C211.702 354.72 212.015 354.636 212.27 354.466C212.525 354.297 212.719 354.054 212.852 353.736C212.985 353.418 213.051 353.038 213.051 352.595C213.051 352.163 212.986 351.781 212.856 351.451C212.726 351.12 212.533 350.861 212.278 350.673C212.023 350.486 211.707 350.392 211.332 350.392C210.942 350.392 210.616 350.491 210.356 350.689C210.098 350.887 209.904 351.153 209.774 351.486C209.646 351.819 209.582 352.189 209.582 352.595C209.582 353.012 209.648 353.38 209.778 353.701C209.911 354.018 210.106 354.268 210.364 354.451C210.624 354.63 210.947 354.72 211.332 354.72Z" fill="#333333"/>
<path d="M411.586 277.053L430.474 290.979H523.5" stroke="#333333"/>
<path d="M475.771 285.845H474.755L477.692 277.845H478.692L481.63 285.845H480.614L478.224 279.111H478.161L475.771 285.845ZM476.146 282.72H480.239V283.58H476.146V282.72ZM482.815 285.845V279.845H483.737V285.845H482.815ZM483.284 278.845C483.104 278.845 482.95 278.784 482.819 278.662C482.692 278.539 482.628 278.392 482.628 278.22C482.628 278.049 482.692 277.901 482.819 277.779C482.95 277.657 483.104 277.595 483.284 277.595C483.464 277.595 483.618 277.657 483.745 277.779C483.875 277.901 483.94 278.049 483.94 278.22C483.94 278.392 483.875 278.539 483.745 278.662C483.618 278.784 483.464 278.845 483.284 278.845ZM485.426 285.845V279.845H486.316V280.752H486.379C486.488 280.455 486.686 280.214 486.973 280.029C487.259 279.844 487.582 279.752 487.941 279.752C488.009 279.752 488.094 279.753 488.195 279.756C488.297 279.758 488.374 279.762 488.426 279.767V280.705C488.395 280.697 488.323 280.685 488.211 280.67C488.102 280.651 487.986 280.642 487.863 280.642C487.572 280.642 487.311 280.704 487.082 280.826C486.855 280.946 486.676 281.112 486.543 281.326C486.413 281.537 486.348 281.778 486.348 282.049V285.845H485.426ZM491.602 285.97C491.102 285.97 490.66 285.844 490.277 285.592C489.895 285.336 489.595 284.977 489.379 284.513C489.163 284.047 489.055 283.497 489.055 282.861C489.055 282.231 489.163 281.684 489.379 281.22C489.595 280.757 489.896 280.399 490.281 280.146C490.667 279.894 491.112 279.767 491.617 279.767C492.008 279.767 492.316 279.832 492.543 279.963C492.772 280.09 492.947 280.236 493.066 280.4C493.189 280.562 493.284 280.694 493.352 280.799H493.43V277.845H494.352V285.845H493.461V284.924H493.352C493.284 285.033 493.188 285.171 493.063 285.338C492.938 285.502 492.759 285.649 492.527 285.779C492.296 285.907 491.987 285.97 491.602 285.97ZM491.727 285.142C492.096 285.142 492.409 285.046 492.664 284.853C492.919 284.658 493.113 284.388 493.246 284.045C493.379 283.698 493.445 283.299 493.445 282.845C493.445 282.398 493.38 282.006 493.25 281.67C493.12 281.331 492.927 281.068 492.672 280.881C492.417 280.691 492.102 280.595 491.727 280.595C491.336 280.595 491.01 280.696 490.75 280.896C490.492 281.094 490.298 281.364 490.168 281.705C490.04 282.043 489.977 282.424 489.977 282.845C489.977 283.273 490.042 283.661 490.172 284.01C490.305 284.356 490.5 284.632 490.758 284.838C491.018 285.041 491.341 285.142 491.727 285.142ZM496.168 285.845V279.845H497.059V280.752H497.121C497.23 280.455 497.428 280.214 497.715 280.029C498.001 279.844 498.324 279.752 498.684 279.752C498.751 279.752 498.836 279.753 498.938 279.756C499.039 279.758 499.116 279.762 499.168 279.767V280.705C499.137 280.697 499.065 280.685 498.953 280.67C498.844 280.651 498.728 280.642 498.605 280.642C498.314 280.642 498.053 280.704 497.824 280.826C497.598 280.946 497.418 281.112 497.285 281.326C497.155 281.537 497.09 281.778 497.09 282.049V285.845H496.168ZM502.516 285.97C501.974 285.97 501.499 285.842 501.09 285.584C500.684 285.326 500.366 284.965 500.137 284.502C499.91 284.038 499.797 283.497 499.797 282.877C499.797 282.252 499.91 281.706 500.137 281.24C500.366 280.774 500.684 280.412 501.09 280.154C501.499 279.896 501.974 279.767 502.516 279.767C503.057 279.767 503.531 279.896 503.938 280.154C504.346 280.412 504.664 280.774 504.891 281.24C505.12 281.706 505.234 282.252 505.234 282.877C505.234 283.497 505.12 284.038 504.891 284.502C504.664 284.965 504.346 285.326 503.938 285.584C503.531 285.842 503.057 285.97 502.516 285.97ZM502.516 285.142C502.927 285.142 503.266 285.037 503.531 284.826C503.797 284.615 503.993 284.338 504.121 283.994C504.249 283.65 504.313 283.278 504.313 282.877C504.313 282.476 504.249 282.102 504.121 281.756C503.993 281.409 503.797 281.129 503.531 280.916C503.266 280.702 502.927 280.595 502.516 280.595C502.104 280.595 501.766 280.702 501.5 280.916C501.234 281.129 501.038 281.409 500.91 281.756C500.783 282.102 500.719 282.476 500.719 282.877C500.719 283.278 500.783 283.65 500.91 283.994C501.038 284.338 501.234 284.615 501.5 284.826C501.766 285.037 502.104 285.142 502.516 285.142ZM506.642 288.095V279.845H507.532V280.799H507.642C507.709 280.694 507.803 280.562 507.923 280.4C508.045 280.236 508.22 280.09 508.446 279.963C508.675 279.832 508.985 279.767 509.376 279.767C509.881 279.767 510.326 279.894 510.712 280.146C511.097 280.399 511.398 280.757 511.614 281.22C511.83 281.684 511.938 282.231 511.938 282.861C511.938 283.497 511.83 284.047 511.614 284.513C511.398 284.977 511.099 285.336 510.716 285.592C510.333 285.844 509.892 285.97 509.392 285.97C509.006 285.97 508.698 285.907 508.466 285.779C508.234 285.649 508.056 285.502 507.931 285.338C507.806 285.171 507.709 285.033 507.642 284.924H507.563V288.095H506.642ZM507.548 282.845C507.548 283.299 507.614 283.698 507.747 284.045C507.88 284.388 508.074 284.658 508.329 284.853C508.584 285.046 508.897 285.142 509.267 285.142C509.652 285.142 509.974 285.041 510.231 284.838C510.492 284.632 510.687 284.356 510.817 284.01C510.95 283.661 511.017 283.273 511.017 282.845C511.017 282.424 510.951 282.043 510.821 281.705C510.694 281.364 510.5 281.094 510.239 280.896C509.981 280.696 509.657 280.595 509.267 280.595C508.892 280.595 508.576 280.691 508.321 280.881C508.066 281.068 507.873 281.331 507.743 281.67C507.613 282.006 507.548 282.398 507.548 282.845ZM519.126 285.955C518.61 285.955 518.151 285.866 517.747 285.689C517.346 285.512 517.027 285.266 516.79 284.951C516.556 284.633 516.428 284.265 516.407 283.845H517.392C517.412 284.103 517.501 284.326 517.657 284.513C517.813 284.698 518.018 284.842 518.271 284.943C518.523 285.045 518.803 285.095 519.11 285.095C519.454 285.095 519.759 285.036 520.024 284.916C520.29 284.796 520.498 284.629 520.649 284.416C520.8 284.202 520.876 283.955 520.876 283.674C520.876 283.379 520.803 283.12 520.657 282.896C520.511 282.67 520.298 282.493 520.017 282.365C519.735 282.237 519.392 282.174 518.985 282.174H518.345V281.314H518.985C519.303 281.314 519.582 281.257 519.821 281.142C520.063 281.028 520.252 280.866 520.388 280.658C520.526 280.45 520.595 280.205 520.595 279.924C520.595 279.653 520.535 279.417 520.415 279.217C520.295 279.016 520.126 278.86 519.907 278.748C519.691 278.636 519.436 278.58 519.142 278.58C518.866 278.58 518.605 278.631 518.36 278.732C518.118 278.831 517.92 278.976 517.767 279.166C517.613 279.353 517.53 279.58 517.517 279.845H516.579C516.595 279.426 516.721 279.059 516.958 278.744C517.195 278.426 517.505 278.179 517.888 278.002C518.273 277.825 518.696 277.736 519.157 277.736C519.652 277.736 520.076 277.836 520.431 278.037C520.785 278.235 521.057 278.497 521.247 278.822C521.437 279.148 521.532 279.499 521.532 279.877C521.532 280.327 521.414 280.711 521.177 281.029C520.942 281.347 520.623 281.567 520.22 281.689V281.752C520.725 281.835 521.119 282.05 521.403 282.396C521.687 282.74 521.829 283.166 521.829 283.674C521.829 284.108 521.711 284.499 521.474 284.845C521.239 285.189 520.919 285.46 520.513 285.658C520.106 285.856 519.644 285.955 519.126 285.955Z" fill="#333333"/>
<path d="M425.392 116.832L446.384 106.343H540.5" stroke="#333333"/>
<path d="M491.681 101.21H490.665L493.603 93.2097H494.603L497.54 101.21H496.524L494.134 94.4753H494.071L491.681 101.21ZM492.056 98.0847H496.149V98.9441H492.056V98.0847ZM498.726 101.21V95.2097H499.647V101.21H498.726ZM499.194 94.2097C499.015 94.2097 498.86 94.1485 498.729 94.0261C498.602 93.9037 498.538 93.7566 498.538 93.5847C498.538 93.4128 498.602 93.2657 498.729 93.1433C498.86 93.0209 499.015 92.9597 499.194 92.9597C499.374 92.9597 499.528 93.0209 499.655 93.1433C499.785 93.2657 499.851 93.4128 499.851 93.5847C499.851 93.7566 499.785 93.9037 499.655 94.0261C499.528 94.1485 499.374 94.2097 499.194 94.2097ZM501.336 101.21V95.2097H502.227V96.116H502.289C502.398 95.8191 502.596 95.5782 502.883 95.3933C503.169 95.2084 503.492 95.116 503.852 95.116C503.919 95.116 504.004 95.1173 504.105 95.1199C504.207 95.1225 504.284 95.1264 504.336 95.1316V96.0691C504.305 96.0613 504.233 96.0496 504.121 96.0339C504.012 96.0157 503.896 96.0066 503.773 96.0066C503.482 96.0066 503.221 96.0678 502.992 96.1902C502.766 96.31 502.586 96.4766 502.453 96.6902C502.323 96.9011 502.258 97.142 502.258 97.4128V101.21H501.336ZM507.512 101.335C507.012 101.335 506.57 101.208 506.188 100.956C505.805 100.701 505.505 100.341 505.289 99.8777C505.073 99.4115 504.965 98.8608 504.965 98.2253C504.965 97.5951 505.073 97.0483 505.289 96.5847C505.505 96.1212 505.806 95.7631 506.191 95.5105C506.577 95.2579 507.022 95.1316 507.527 95.1316C507.918 95.1316 508.227 95.1967 508.453 95.3269C508.682 95.4545 508.857 95.6003 508.977 95.7644C509.099 95.9259 509.194 96.0587 509.262 96.1628H509.34V93.2097H510.262V101.21H509.371V100.288H509.262C509.194 100.397 509.098 100.535 508.973 100.702C508.848 100.866 508.669 101.013 508.438 101.143C508.206 101.271 507.897 101.335 507.512 101.335ZM507.637 100.507C508.007 100.507 508.319 100.41 508.574 100.218C508.829 100.022 509.023 99.7527 509.156 99.4089C509.289 99.0626 509.355 98.6628 509.355 98.2097C509.355 97.7618 509.29 97.3699 509.16 97.0339C509.03 96.6954 508.837 96.4324 508.582 96.2449C508.327 96.0548 508.012 95.9597 507.637 95.9597C507.246 95.9597 506.921 96.06 506.66 96.2605C506.402 96.4584 506.208 96.7279 506.078 97.0691C505.951 97.4076 505.887 97.7878 505.887 98.2097C505.887 98.6368 505.952 99.0248 506.082 99.3738C506.215 99.7201 506.41 99.9962 506.668 100.202C506.928 100.405 507.251 100.507 507.637 100.507ZM512.078 101.21V95.2097H512.969V96.116H513.031C513.141 95.8191 513.339 95.5782 513.625 95.3933C513.911 95.2084 514.234 95.116 514.594 95.116C514.661 95.116 514.746 95.1173 514.848 95.1199C514.949 95.1225 515.026 95.1264 515.078 95.1316V96.0691C515.047 96.0613 514.975 96.0496 514.863 96.0339C514.754 96.0157 514.638 96.0066 514.516 96.0066C514.224 96.0066 513.964 96.0678 513.734 96.1902C513.508 96.31 513.328 96.4766 513.195 96.6902C513.065 96.9011 513 97.142 513 97.4128V101.21H512.078ZM518.426 101.335C517.884 101.335 517.409 101.206 517 100.948C516.594 100.69 516.276 100.33 516.047 99.866C515.82 99.4024 515.707 98.8608 515.707 98.241C515.707 97.616 515.82 97.0704 516.047 96.6042C516.276 96.1381 516.594 95.7761 517 95.5183C517.409 95.2605 517.884 95.1316 518.426 95.1316C518.967 95.1316 519.441 95.2605 519.848 95.5183C520.257 95.7761 520.574 96.1381 520.801 96.6042C521.03 97.0704 521.145 97.616 521.145 98.241C521.145 98.8608 521.03 99.4024 520.801 99.866C520.574 100.33 520.257 100.69 519.848 100.948C519.441 101.206 518.967 101.335 518.426 101.335ZM518.426 100.507C518.837 100.507 519.176 100.401 519.441 100.19C519.707 99.9792 519.904 99.7019 520.031 99.3582C520.159 99.0144 520.223 98.642 520.223 98.241C520.223 97.8399 520.159 97.4662 520.031 97.1199C519.904 96.7735 519.707 96.4936 519.441 96.28C519.176 96.0665 518.837 95.9597 518.426 95.9597C518.014 95.9597 517.676 96.0665 517.41 96.28C517.145 96.4936 516.948 96.7735 516.82 97.1199C516.693 97.4662 516.629 97.8399 516.629 98.241C516.629 98.642 516.693 99.0144 516.82 99.3582C516.948 99.7019 517.145 99.9792 517.41 100.19C517.676 100.401 518.014 100.507 518.426 100.507ZM522.552 103.46V95.2097H523.442V96.1628H523.552C523.619 96.0587 523.713 95.9259 523.833 95.7644C523.955 95.6003 524.13 95.4545 524.356 95.3269C524.586 95.1967 524.896 95.1316 525.286 95.1316C525.791 95.1316 526.237 95.2579 526.622 95.5105C527.007 95.7631 527.308 96.1212 527.524 96.5847C527.741 97.0483 527.849 97.5951 527.849 98.2253C527.849 98.8608 527.741 99.4115 527.524 99.8777C527.308 100.341 527.009 100.701 526.626 100.956C526.243 101.208 525.802 101.335 525.302 101.335C524.916 101.335 524.608 101.271 524.376 101.143C524.144 101.013 523.966 100.866 523.841 100.702C523.716 100.535 523.619 100.397 523.552 100.288H523.474V103.46H522.552ZM523.458 98.2097C523.458 98.6628 523.524 99.0626 523.657 99.4089C523.79 99.7527 523.984 100.022 524.239 100.218C524.494 100.41 524.807 100.507 525.177 100.507C525.562 100.507 525.884 100.405 526.142 100.202C526.402 99.9962 526.597 99.7201 526.728 99.3738C526.86 99.0248 526.927 98.6368 526.927 98.2097C526.927 97.7878 526.862 97.4076 526.731 97.0691C526.604 96.7279 526.41 96.4584 526.149 96.2605C525.892 96.06 525.567 95.9597 525.177 95.9597C524.802 95.9597 524.487 96.0548 524.231 96.2449C523.976 96.4324 523.784 96.6954 523.653 97.0339C523.523 97.3699 523.458 97.7618 523.458 98.2097ZM532.333 101.21V100.507L534.974 97.616C535.284 97.2774 535.539 96.9832 535.739 96.7332C535.94 96.4806 536.088 96.2436 536.185 96.0222C536.284 95.7983 536.333 95.5639 536.333 95.3191C536.333 95.0378 536.265 94.7944 536.13 94.5886C535.997 94.3829 535.815 94.224 535.583 94.1121C535.351 94.0001 535.091 93.9441 534.802 93.9441C534.494 93.9441 534.226 94.0079 533.997 94.1355C533.771 94.2605 533.595 94.4363 533.47 94.6628C533.347 94.8894 533.286 95.155 533.286 95.4597H532.364C532.364 94.991 532.472 94.5795 532.688 94.2253C532.905 93.8712 533.199 93.5951 533.571 93.3972C533.946 93.1993 534.367 93.1003 534.833 93.1003C535.302 93.1003 535.717 93.1993 536.079 93.3972C536.441 93.5951 536.725 93.8621 536.931 94.198C537.136 94.5339 537.239 94.9076 537.239 95.3191C537.239 95.6134 537.186 95.9011 537.079 96.1824C536.975 96.461 536.793 96.7722 536.532 97.116C536.274 97.4571 535.916 97.8738 535.458 98.366L533.661 100.288V100.35H537.38V101.21H532.333Z" fill="#333333"/>
<path d="M335.732 39.371L343.062 17.0784H435.5" stroke="#333333"/>
<path d="M388.358 11.9451H387.343L390.28 3.94507H391.28L394.218 11.9451H393.202L390.812 5.21069H390.749L388.358 11.9451ZM388.733 8.82007H392.827V9.67944H388.733V8.82007ZM395.403 11.9451V5.94507H396.325V11.9451H395.403ZM395.872 4.94507C395.692 4.94507 395.537 4.88387 395.407 4.76147C395.28 4.63908 395.216 4.49194 395.216 4.32007C395.216 4.14819 395.28 4.00106 395.407 3.87866C395.537 3.75627 395.692 3.69507 395.872 3.69507C396.052 3.69507 396.205 3.75627 396.333 3.87866C396.463 4.00106 396.528 4.14819 396.528 4.32007C396.528 4.49194 396.463 4.63908 396.333 4.76147C396.205 4.88387 396.052 4.94507 395.872 4.94507ZM398.014 11.9451V5.94507H398.904V6.85132H398.967C399.076 6.55444 399.274 6.31356 399.561 6.12866C399.847 5.94377 400.17 5.85132 400.529 5.85132C400.597 5.85132 400.682 5.85262 400.783 5.85522C400.885 5.85783 400.962 5.86173 401.014 5.86694V6.80444C400.982 6.79663 400.911 6.78491 400.799 6.76929C400.689 6.75106 400.574 6.74194 400.451 6.74194C400.16 6.74194 399.899 6.80314 399.67 6.92554C399.443 7.04533 399.264 7.212 399.131 7.42554C399.001 7.63647 398.936 7.87736 398.936 8.14819V11.9451H398.014ZM404.189 12.0701C403.689 12.0701 403.248 11.9438 402.865 11.6912C402.482 11.436 402.183 11.0766 401.967 10.613C401.751 10.1469 401.643 9.59611 401.643 8.96069C401.643 8.33048 401.751 7.78361 401.967 7.32007C402.183 6.85653 402.484 6.49845 402.869 6.24585C403.255 5.99325 403.7 5.86694 404.205 5.86694C404.596 5.86694 404.904 5.93205 405.131 6.06226C405.36 6.18986 405.535 6.33569 405.654 6.49976C405.777 6.66121 405.872 6.79403 405.939 6.89819H406.018V3.94507H406.939V11.9451H406.049V11.0232H405.939C405.872 11.1326 405.775 11.2706 405.65 11.4373C405.525 11.6013 405.347 11.7485 405.115 11.8787C404.883 12.0063 404.575 12.0701 404.189 12.0701ZM404.314 11.2419C404.684 11.2419 404.997 11.1456 405.252 10.9529C405.507 10.7576 405.701 10.488 405.834 10.1443C405.967 9.79793 406.033 9.39819 406.033 8.94507C406.033 8.49715 405.968 8.10522 405.838 7.76929C405.708 7.43075 405.515 7.16772 405.26 6.98022C405.005 6.79012 404.689 6.69507 404.314 6.69507C403.924 6.69507 403.598 6.79533 403.338 6.99585C403.08 7.19377 402.886 7.4633 402.756 7.80444C402.628 8.14298 402.564 8.52319 402.564 8.94507C402.564 9.37215 402.63 9.76017 402.76 10.1091C402.893 10.4555 403.088 10.7315 403.346 10.9373C403.606 11.1404 403.929 11.2419 404.314 11.2419ZM408.756 11.9451V5.94507H409.646V6.85132H409.709C409.818 6.55444 410.016 6.31356 410.303 6.12866C410.589 5.94377 410.912 5.85132 411.271 5.85132C411.339 5.85132 411.424 5.85262 411.525 5.85522C411.627 5.85783 411.704 5.86173 411.756 5.86694V6.80444C411.725 6.79663 411.653 6.78491 411.541 6.76929C411.432 6.75106 411.316 6.74194 411.193 6.74194C410.902 6.74194 410.641 6.80314 410.412 6.92554C410.186 7.04533 410.006 7.212 409.873 7.42554C409.743 7.63647 409.678 7.87736 409.678 8.14819V11.9451H408.756ZM415.104 12.0701C414.562 12.0701 414.087 11.9412 413.678 11.6833C413.271 11.4255 412.954 11.0649 412.725 10.6013C412.498 10.1378 412.385 9.59611 412.385 8.97632C412.385 8.35132 412.498 7.80575 412.725 7.3396C412.954 6.87345 413.271 6.51147 413.678 6.25366C414.087 5.99585 414.562 5.86694 415.104 5.86694C415.645 5.86694 416.119 5.99585 416.525 6.25366C416.934 6.51147 417.252 6.87345 417.479 7.3396C417.708 7.80575 417.822 8.35132 417.822 8.97632C417.822 9.59611 417.708 10.1378 417.479 10.6013C417.252 11.0649 416.934 11.4255 416.525 11.6833C416.119 11.9412 415.645 12.0701 415.104 12.0701ZM415.104 11.2419C415.515 11.2419 415.854 11.1365 416.119 10.9255C416.385 10.7146 416.581 10.4373 416.709 10.0935C416.837 9.74976 416.9 9.37736 416.9 8.97632C416.9 8.57528 416.837 8.20158 416.709 7.85522C416.581 7.50887 416.385 7.22892 416.119 7.01538C415.854 6.80184 415.515 6.69507 415.104 6.69507C414.692 6.69507 414.354 6.80184 414.088 7.01538C413.822 7.22892 413.626 7.50887 413.498 7.85522C413.37 8.20158 413.307 8.57528 413.307 8.97632C413.307 9.37736 413.37 9.74976 413.498 10.0935C413.626 10.4373 413.822 10.7146 414.088 10.9255C414.354 11.1365 414.692 11.2419 415.104 11.2419ZM419.229 14.1951V5.94507H420.12V6.89819H420.229C420.297 6.79403 420.391 6.66121 420.511 6.49976C420.633 6.33569 420.808 6.18986 421.034 6.06226C421.263 5.93205 421.573 5.86694 421.964 5.86694C422.469 5.86694 422.914 5.99325 423.3 6.24585C423.685 6.49845 423.986 6.85653 424.202 7.32007C424.418 7.78361 424.526 8.33048 424.526 8.96069C424.526 9.59611 424.418 10.1469 424.202 10.613C423.986 11.0766 423.687 11.436 423.304 11.6912C422.921 11.9438 422.479 12.0701 421.979 12.0701C421.594 12.0701 421.285 12.0063 421.054 11.8787C420.822 11.7485 420.644 11.6013 420.519 11.4373C420.394 11.2706 420.297 11.1326 420.229 11.0232H420.151V14.1951H419.229ZM420.136 8.94507C420.136 9.39819 420.202 9.79793 420.335 10.1443C420.468 10.488 420.662 10.7576 420.917 10.9529C421.172 11.1456 421.485 11.2419 421.854 11.2419C422.24 11.2419 422.562 11.1404 422.819 10.9373C423.08 10.7315 423.275 10.4555 423.405 10.1091C423.538 9.76017 423.604 9.37215 423.604 8.94507C423.604 8.52319 423.539 8.14298 423.409 7.80444C423.282 7.4633 423.088 7.19377 422.827 6.99585C422.569 6.79533 422.245 6.69507 421.854 6.69507C421.479 6.69507 421.164 6.79012 420.909 6.98022C420.654 7.16772 420.461 7.43075 420.331 7.76929C420.201 8.10522 420.136 8.49715 420.136 8.94507ZM431.823 3.94507V11.9451H430.854V4.96069H430.808L428.854 6.25757V5.27319L430.854 3.94507H431.823Z" fill="#333333"/>
<path d="M286.287 36.1771C286.287 35.5851 286.168 34.9991 285.936 34.4543C285.704 33.9096 285.365 33.4172 284.938 33.0067C284.512 32.5961 284.007 32.2759 283.453 32.0652C282.9 31.8545 282.31 31.7576 281.718 31.7803C252.883 32.8884 224.939 42.0759 201.072 58.2954C200.583 58.6282 200.165 59.0563 199.845 59.5542C199.525 60.0522 199.308 60.6096 199.208 61.1932C199.109 61.7768 199.128 62.3745 199.264 62.9505C199.401 63.5266 199.653 64.0691 200.004 64.5456L286.029 181.227C286.047 181.251 286.072 181.269 286.101 181.278C286.129 181.287 286.16 181.287 286.189 181.278C286.217 181.268 286.242 181.25 286.26 181.226C286.278 181.201 286.287 181.172 286.287 181.142V36.1771Z" fill="#020057"/>
<path d="M197.841 66.1415C197.489 65.665 197.045 65.2642 196.536 64.9633C196.026 64.6624 195.46 64.4675 194.873 64.3902C194.286 64.3129 193.69 64.3549 193.12 64.5136C192.549 64.6723 192.017 64.9445 191.554 65.3139C173.484 79.7396 158.894 98.0493 148.867 118.884C138.84 139.719 133.633 162.545 133.633 185.667C133.633 208.789 138.84 231.615 148.867 252.45C158.894 273.285 173.484 291.594 191.554 306.02C192.017 306.389 192.549 306.662 193.12 306.82C193.69 306.979 194.286 307.021 194.873 306.944C195.46 306.866 196.026 306.672 196.536 306.371C197.045 306.07 197.489 305.669 197.841 305.192L282.424 190.467C282.809 189.945 283.073 189.344 283.199 188.709C283.325 188.073 283.308 187.417 283.151 186.788C282.967 186.052 282.967 185.282 283.151 184.546C283.308 183.917 283.325 183.261 283.199 182.625C283.073 181.989 282.809 181.389 282.424 180.867L197.841 66.1415Z" fill="#055ADA"/>
<path d="M200.004 306.788C199.653 307.264 199.401 307.807 199.264 308.383C199.128 308.959 199.109 309.557 199.208 310.14C199.308 310.724 199.525 311.281 199.845 311.779C200.165 312.277 200.583 312.705 201.072 313.038C219.559 325.601 240.558 333.989 262.612 337.621C284.666 341.252 307.247 340.039 328.785 334.066C329.355 333.908 329.888 333.636 330.351 333.267C330.814 332.898 331.198 332.44 331.479 331.919C331.761 331.398 331.935 330.826 331.99 330.236C332.045 329.647 331.981 329.052 331.801 328.488L287.978 191.172C287.9 190.929 287.756 190.712 287.563 190.544C287.369 190.377 287.133 190.267 286.881 190.225C286.629 190.184 286.37 190.213 286.133 190.309C285.896 190.405 285.691 190.565 285.539 190.771L200.004 306.788Z" fill="#5055D5"/>
<path d="M334.364 327.671C334.544 328.235 334.836 328.757 335.222 329.205C335.609 329.654 336.082 330.02 336.613 330.281C337.144 330.542 337.723 330.694 338.314 330.726C338.905 330.759 339.496 330.672 340.053 330.47C368.649 320.118 393.54 301.531 411.587 277.053C429.634 252.575 440.029 223.301 441.462 192.923C441.49 192.331 441.398 191.74 441.192 191.185C440.986 190.63 440.671 190.122 440.264 189.692C439.857 189.262 439.368 188.918 438.825 188.682C438.282 188.445 437.697 188.321 437.105 188.316L294.036 187.067C293.514 187.062 292.999 187.182 292.532 187.415C292.066 187.648 291.661 187.988 291.352 188.408C291.042 188.828 290.837 189.315 290.752 189.83C290.667 190.345 290.706 190.872 290.864 191.369L334.364 327.671Z" fill="#8A63D2"/>
<path d="M437.128 185.627C437.72 185.632 438.307 185.518 438.854 185.291C439.401 185.064 439.896 184.729 440.31 184.306C440.725 183.883 441.049 183.38 441.265 182.829C441.48 182.278 441.582 181.688 441.565 181.097C440.902 158.755 435.383 136.826 425.393 116.832C415.402 96.8382 401.179 79.2585 383.711 65.3139C383.249 64.9445 382.716 64.6723 382.146 64.5136C381.576 64.3549 380.979 64.3129 380.392 64.3902C379.805 64.4675 379.24 64.6624 378.73 64.9633C378.22 65.2642 377.776 65.665 377.425 66.1415L291.89 182.158C291.738 182.364 291.646 182.608 291.624 182.863C291.602 183.117 291.651 183.373 291.765 183.602C291.88 183.831 292.055 184.023 292.272 184.159C292.489 184.294 292.739 184.367 292.995 184.369L437.128 185.627Z" fill="#8A63D2"/>
<path d="M375.261 64.5456C375.612 64.0691 375.864 63.5266 376 62.9505C376.137 62.3745 376.156 61.7768 376.056 61.1932C375.957 60.6096 375.74 60.0522 375.42 59.5542C375.1 59.0563 374.682 58.6282 374.192 58.2954C350.326 42.0759 322.382 32.8884 293.546 31.7803C292.955 31.7576 292.365 31.8545 291.812 32.0652C291.258 32.2759 290.753 32.5961 290.327 33.0067C289.9 33.4172 289.561 33.9096 289.329 34.4543C289.097 34.9991 288.978 35.5851 288.978 36.1771V181.142C288.978 181.172 288.987 181.201 289.005 181.226C289.022 181.25 289.047 181.268 289.076 181.278C289.105 181.287 289.136 181.287 289.164 181.278C289.193 181.269 289.218 181.251 289.236 181.227L375.261 64.5456Z" fill="#8A63D2"/>
<path d="M248.374 76.316V86.608L248.326 86.44H250.398V88H244.67V86.44H246.742L246.694 86.608V79.704L246.742 79.752H244.198V78.312H245.226C245.432 78.312 245.614 78.2987 245.774 78.272C245.934 78.2453 246.074 78.2013 246.194 78.14C246.314 78.0787 246.416 77.9973 246.498 77.896C246.584 77.7947 246.652 77.6707 246.702 77.524C246.756 77.3747 246.794 77.2013 246.818 77.004C246.842 76.804 246.854 76.5747 246.854 76.316H248.374ZM251.146 82.28C251.146 81.688 251.202 81.1307 251.314 80.608C251.426 80.0827 251.586 79.6 251.794 79.16C252.005 78.7173 252.261 78.3213 252.562 77.972C252.864 77.62 253.204 77.3227 253.582 77.08C253.964 76.8347 254.38 76.6467 254.83 76.516C255.281 76.3853 255.76 76.32 256.266 76.32C256.773 76.32 257.252 76.3853 257.702 76.516C258.153 76.6467 258.568 76.8347 258.946 77.08C259.328 77.3227 259.669 77.62 259.97 77.972C260.272 78.3213 260.526 78.7173 260.734 79.16C260.945 79.6 261.106 80.0827 261.218 80.608C261.33 81.1307 261.386 81.688 261.386 82.28C261.386 82.872 261.33 83.4307 261.218 83.956C261.106 84.4787 260.945 84.9613 260.734 85.404C260.526 85.844 260.272 86.24 259.97 86.592C259.669 86.9413 259.328 87.2387 258.946 87.484C258.568 87.7267 258.153 87.9133 257.702 88.044C257.252 88.1747 256.773 88.24 256.266 88.24C255.76 88.24 255.281 88.1747 254.83 88.044C254.38 87.9133 253.964 87.7267 253.582 87.484C253.204 87.2387 252.864 86.9413 252.562 86.592C252.261 86.24 252.005 85.844 251.794 85.404C251.586 84.9613 251.426 84.4787 251.314 83.956C251.202 83.4307 251.146 82.872 251.146 82.28ZM252.826 82.28C252.826 82.7387 252.861 83.1653 252.93 83.56C253.002 83.9547 253.105 84.316 253.238 84.644C253.374 84.9693 253.541 85.2587 253.738 85.512C253.938 85.7653 254.165 85.9787 254.418 86.152C254.674 86.3253 254.957 86.4573 255.266 86.548C255.576 86.636 255.909 86.68 256.266 86.68C256.624 86.68 256.957 86.636 257.266 86.548C257.576 86.4573 257.857 86.3253 258.11 86.152C258.366 85.9787 258.593 85.7653 258.79 85.512C258.99 85.2587 259.157 84.9693 259.29 84.644C259.426 84.316 259.529 83.9547 259.598 83.56C259.67 83.1653 259.706 82.7387 259.706 82.28C259.706 81.8213 259.67 81.3947 259.598 81C259.529 80.6053 259.426 80.2453 259.29 79.92C259.157 79.592 258.99 79.3013 258.79 79.048C258.593 78.7947 258.366 78.5813 258.11 78.408C257.857 78.2347 257.576 78.104 257.266 78.016C256.957 77.9253 256.624 77.88 256.266 77.88C255.909 77.88 255.576 77.9253 255.266 78.016C254.957 78.104 254.674 78.2347 254.418 78.408C254.165 78.5813 253.938 78.7947 253.738 79.048C253.541 79.3013 253.374 79.592 253.238 79.92C253.105 80.2453 253.002 80.6053 252.93 81C252.861 81.3947 252.826 81.8213 252.826 82.28Z" fill="white"/>
<path d="M173.488 190.124V190.104C173.488 189.509 173.591 188.977 173.796 188.508C174.004 188.039 174.304 187.643 174.696 187.32C175.088 186.995 175.567 186.747 176.132 186.576C176.698 186.405 177.34 186.32 178.06 186.32C178.74 186.32 179.358 186.396 179.912 186.548C180.47 186.697 180.946 186.911 181.34 187.188C181.735 187.463 182.04 187.795 182.256 188.184C182.472 188.571 182.58 189.003 182.58 189.48C182.58 189.861 182.511 190.213 182.372 190.536C182.234 190.856 182.04 191.132 181.792 191.364C181.547 191.596 181.254 191.777 180.912 191.908C180.571 192.036 180.196 192.1 179.788 192.1V192.072C180.308 192.072 180.775 192.135 181.188 192.26C181.602 192.385 181.952 192.565 182.24 192.8C182.528 193.032 182.748 193.317 182.9 193.656C183.055 193.992 183.132 194.372 183.132 194.796C183.132 195.313 183.019 195.784 182.792 196.208C182.566 196.632 182.244 196.995 181.828 197.296C181.415 197.597 180.915 197.831 180.328 197.996C179.744 198.159 179.095 198.24 178.38 198.24C177.623 198.24 176.943 198.148 176.34 197.964C175.738 197.78 175.224 197.516 174.8 197.172C174.379 196.825 174.055 196.405 173.828 195.912C173.602 195.419 173.488 194.864 173.488 194.248V194.228H175.168V194.348C175.168 194.7 175.242 195.02 175.388 195.308C175.535 195.593 175.742 195.839 176.008 196.044C176.278 196.247 176.6 196.404 176.976 196.516C177.355 196.625 177.778 196.68 178.244 196.68C178.708 196.68 179.136 196.625 179.528 196.516C179.92 196.407 180.259 196.256 180.544 196.064C180.83 195.869 181.052 195.639 181.212 195.372C181.372 195.103 181.452 194.811 181.452 194.496C181.452 193.965 181.211 193.572 180.728 193.316C180.246 193.06 179.506 192.932 178.508 192.932H177.064V191.452H178.508C178.874 191.452 179.204 191.413 179.5 191.336C179.799 191.259 180.052 191.148 180.26 191.004C180.468 190.86 180.628 190.685 180.74 190.48C180.855 190.275 180.912 190.045 180.912 189.792C180.912 189.507 180.84 189.247 180.696 189.012C180.555 188.777 180.354 188.576 180.092 188.408C179.834 188.24 179.522 188.111 179.156 188.02C178.794 187.927 178.391 187.88 177.948 187.88C177.5 187.88 177.103 187.929 176.756 188.028C176.412 188.124 176.122 188.267 175.884 188.456C175.65 188.643 175.471 188.875 175.348 189.152C175.228 189.427 175.168 189.743 175.168 190.1V190.124H173.488ZM184.254 192.28C184.254 191.688 184.31 191.131 184.422 190.608C184.534 190.083 184.694 189.6 184.902 189.16C185.113 188.717 185.369 188.321 185.67 187.972C185.971 187.62 186.311 187.323 186.69 187.08C187.071 186.835 187.487 186.647 187.938 186.516C188.389 186.385 188.867 186.32 189.374 186.32C189.881 186.32 190.359 186.385 190.81 186.516C191.261 186.647 191.675 186.835 192.054 187.08C192.435 187.323 192.777 187.62 193.078 187.972C193.379 188.321 193.634 188.717 193.842 189.16C194.053 189.6 194.214 190.083 194.326 190.608C194.438 191.131 194.494 191.688 194.494 192.28C194.494 192.872 194.438 193.431 194.326 193.956C194.214 194.479 194.053 194.961 193.842 195.404C193.634 195.844 193.379 196.24 193.078 196.592C192.777 196.941 192.435 197.239 192.054 197.484C191.675 197.727 191.261 197.913 190.81 198.044C190.359 198.175 189.881 198.24 189.374 198.24C188.867 198.24 188.389 198.175 187.938 198.044C187.487 197.913 187.071 197.727 186.69 197.484C186.311 197.239 185.971 196.941 185.67 196.592C185.369 196.24 185.113 195.844 184.902 195.404C184.694 194.961 184.534 194.479 184.422 193.956C184.31 193.431 184.254 192.872 184.254 192.28ZM185.934 192.28C185.934 192.739 185.969 193.165 186.038 193.56C186.11 193.955 186.213 194.316 186.346 194.644C186.482 194.969 186.649 195.259 186.846 195.512C187.046 195.765 187.273 195.979 187.526 196.152C187.782 196.325 188.065 196.457 188.374 196.548C188.683 196.636 189.017 196.68 189.374 196.68C189.731 196.68 190.065 196.636 190.374 196.548C190.683 196.457 190.965 196.325 191.218 196.152C191.474 195.979 191.701 195.765 191.898 195.512C192.098 195.259 192.265 194.969 192.398 194.644C192.534 194.316 192.637 193.955 192.706 193.56C192.778 193.165 192.814 192.739 192.814 192.28C192.814 191.821 192.778 191.395 192.706 191C192.637 190.605 192.534 190.245 192.398 189.92C192.265 189.592 192.098 189.301 191.898 189.048C191.701 188.795 191.474 188.581 191.218 188.408C190.965 188.235 190.683 188.104 190.374 188.016C190.065 187.925 189.731 187.88 189.374 187.88C189.017 187.88 188.683 187.925 188.374 188.016C188.065 188.104 187.782 188.235 187.526 188.408C187.273 188.581 187.046 188.795 186.846 189.048C186.649 189.301 186.482 189.592 186.346 189.92C186.213 190.245 186.11 190.605 186.038 191C185.969 191.395 185.934 191.821 185.934 192.28Z" fill="white"/>
<path d="M267.871 271.316V281.608L267.823 281.44H269.895V283H264.167V281.44H266.239L266.191 281.608V274.704L266.239 274.752H263.695V273.312H264.723C264.928 273.312 265.111 273.299 265.271 273.272C265.431 273.245 265.571 273.201 265.691 273.14C265.811 273.079 265.912 272.997 265.995 272.896C266.08 272.795 266.148 272.671 266.199 272.524C266.252 272.375 266.291 272.201 266.315 272.004C266.339 271.804 266.351 271.575 266.351 271.316H267.871ZM280.586 279.172C280.586 279.772 280.469 280.321 280.234 280.82C280 281.316 279.67 281.744 279.246 282.104C278.825 282.461 278.32 282.74 277.73 282.94C277.141 283.137 276.493 283.236 275.786 283.236C275.341 283.236 274.916 283.196 274.51 283.116C274.108 283.039 273.733 282.927 273.386 282.78C273.042 282.633 272.73 282.456 272.45 282.248C272.173 282.04 271.936 281.808 271.738 281.552C271.541 281.293 271.389 281.013 271.282 280.712C271.176 280.411 271.122 280.095 271.122 279.764V279.676H272.802V279.744C272.802 279.917 272.838 280.085 272.91 280.248C272.982 280.411 273.082 280.563 273.21 280.704C273.341 280.843 273.497 280.971 273.678 281.088C273.862 281.203 274.065 281.301 274.286 281.384C274.51 281.467 274.749 281.531 275.002 281.576C275.258 281.621 275.524 281.644 275.798 281.644C276.249 281.644 276.665 281.583 277.046 281.46C277.428 281.337 277.756 281.167 278.03 280.948C278.305 280.729 278.52 280.468 278.674 280.164C278.829 279.86 278.906 279.528 278.906 279.168C278.906 278.941 278.874 278.727 278.81 278.524C278.746 278.321 278.653 278.135 278.53 277.964C278.408 277.793 278.257 277.64 278.078 277.504C277.9 277.368 277.694 277.253 277.462 277.16C277.23 277.067 276.973 276.995 276.69 276.944C276.408 276.893 276.104 276.868 275.778 276.868C275.533 276.868 275.298 276.884 275.074 276.916C274.853 276.945 274.645 276.988 274.45 277.044C274.256 277.097 274.077 277.163 273.914 277.24C273.752 277.317 273.608 277.404 273.482 277.5C273.36 277.593 273.256 277.693 273.17 277.8C273.088 277.907 273.028 278.019 272.99 278.136H271.31V271.56H279.83V273.12H272.99V277.272L272.974 277.256C273.054 277.091 273.157 276.935 273.282 276.788C273.408 276.639 273.552 276.503 273.714 276.38C273.88 276.255 274.064 276.143 274.266 276.044C274.469 275.943 274.688 275.857 274.922 275.788C275.157 275.719 275.406 275.665 275.67 275.628C275.934 275.591 276.21 275.572 276.498 275.572C276.917 275.572 277.309 275.612 277.674 275.692C278.04 275.769 278.373 275.881 278.674 276.028C278.978 276.175 279.248 276.355 279.482 276.568C279.72 276.779 279.92 277.017 280.082 277.284C280.248 277.551 280.373 277.843 280.458 278.16C280.544 278.477 280.586 278.815 280.586 279.172Z" fill="white"/>
<path d="M369.722 241H360.758V239.508C360.758 239.06 360.815 238.665 360.93 238.324C361.044 237.98 361.2 237.679 361.398 237.42C361.595 237.161 361.823 236.939 362.082 236.752C362.343 236.565 362.619 236.404 362.91 236.268C363.203 236.129 363.502 236.011 363.806 235.912C364.112 235.811 364.41 235.716 364.698 235.628L365.234 235.468C365.503 235.385 365.759 235.305 366.002 235.228C366.247 235.151 366.475 235.067 366.686 234.976C366.896 234.885 367.087 234.785 367.258 234.676C367.431 234.567 367.578 234.44 367.698 234.296C367.82 234.149 367.914 233.983 367.978 233.796C368.044 233.609 368.078 233.395 368.078 233.152C368.078 232.84 368.012 232.547 367.882 232.272C367.751 231.997 367.566 231.757 367.326 231.552C367.086 231.344 366.796 231.181 366.458 231.064C366.119 230.944 365.74 230.884 365.322 230.884C364.892 230.884 364.503 230.949 364.154 231.08C363.804 231.208 363.506 231.389 363.258 231.624C363.012 231.859 362.823 232.141 362.69 232.472C362.556 232.8 362.49 233.163 362.49 233.56V233.772H360.81V233.528C360.81 232.883 360.915 232.301 361.126 231.784C361.339 231.264 361.644 230.823 362.042 230.46C362.442 230.095 362.926 229.813 363.494 229.616C364.062 229.419 364.702 229.32 365.414 229.32C366.104 229.32 366.719 229.412 367.258 229.596C367.796 229.78 368.251 230.039 368.622 230.372C368.992 230.705 369.274 231.107 369.466 231.576C369.66 232.043 369.758 232.561 369.758 233.132C369.758 233.572 369.702 233.959 369.59 234.292C369.48 234.625 369.331 234.917 369.142 235.168C368.955 235.416 368.736 235.629 368.486 235.808C368.238 235.984 367.974 236.136 367.694 236.264C367.416 236.392 367.132 236.501 366.842 236.592C366.551 236.683 366.271 236.765 366.002 236.84L365.294 237.044C365.075 237.105 364.851 237.171 364.622 237.24C364.395 237.309 364.175 237.389 363.962 237.48C363.748 237.571 363.547 237.676 363.358 237.796C363.171 237.916 363.007 238.057 362.866 238.22C362.727 238.38 362.618 238.567 362.538 238.78C362.458 238.991 362.418 239.233 362.418 239.508V239.756L361.882 239.44H369.722V241ZM370.997 235.28C370.997 234.688 371.053 234.131 371.165 233.608C371.277 233.083 371.437 232.6 371.645 232.16C371.856 231.717 372.112 231.321 372.413 230.972C372.714 230.62 373.054 230.323 373.433 230.08C373.814 229.835 374.23 229.647 374.681 229.516C375.132 229.385 375.61 229.32 376.117 229.32C376.624 229.32 377.102 229.385 377.553 229.516C378.004 229.647 378.418 229.835 378.797 230.08C379.178 230.323 379.52 230.62 379.821 230.972C380.122 231.321 380.377 231.717 380.585 232.16C380.796 232.6 380.957 233.083 381.069 233.608C381.181 234.131 381.237 234.688 381.237 235.28C381.237 235.872 381.181 236.431 381.069 236.956C380.957 237.479 380.796 237.961 380.585 238.404C380.377 238.844 380.122 239.24 379.821 239.592C379.52 239.941 379.178 240.239 378.797 240.484C378.418 240.727 378.004 240.913 377.553 241.044C377.102 241.175 376.624 241.24 376.117 241.24C375.61 241.24 375.132 241.175 374.681 241.044C374.23 240.913 373.814 240.727 373.433 240.484C373.054 240.239 372.714 239.941 372.413 239.592C372.112 239.24 371.856 238.844 371.645 238.404C371.437 237.961 371.277 237.479 371.165 236.956C371.053 236.431 370.997 235.872 370.997 235.28ZM372.677 235.28C372.677 235.739 372.712 236.165 372.781 236.56C372.853 236.955 372.956 237.316 373.089 237.644C373.225 237.969 373.392 238.259 373.589 238.512C373.789 238.765 374.016 238.979 374.269 239.152C374.525 239.325 374.808 239.457 375.117 239.548C375.426 239.636 375.76 239.68 376.117 239.68C376.474 239.68 376.808 239.636 377.117 239.548C377.426 239.457 377.708 239.325 377.961 239.152C378.217 238.979 378.444 238.765 378.641 238.512C378.841 238.259 379.008 237.969 379.141 237.644C379.277 237.316 379.38 236.955 379.449 236.56C379.521 236.165 379.557 235.739 379.557 235.28C379.557 234.821 379.521 234.395 379.449 234C379.38 233.605 379.277 233.245 379.141 232.92C379.008 232.592 378.841 232.301 378.641 232.048C378.444 231.795 378.217 231.581 377.961 231.408C377.708 231.235 377.426 231.104 377.117 231.016C376.808 230.925 376.474 230.88 376.117 230.88C375.76 230.88 375.426 230.925 375.117 231.016C374.808 231.104 374.525 231.235 374.269 231.408C374.016 231.581 373.789 231.795 373.589 232.048C373.392 232.301 373.225 232.592 373.089 232.92C372.956 233.245 372.853 233.605 372.781 234C372.712 234.395 372.677 234.821 372.677 235.28Z" fill="white"/>
<path d="M375.65 130.316V140.608L375.602 140.44H377.674V142H371.946V140.44H374.018L373.97 140.608V133.704L374.018 133.752H371.474V132.312H372.502C372.707 132.312 372.89 132.299 373.05 132.272C373.21 132.245 373.35 132.201 373.47 132.14C373.59 132.079 373.691 131.997 373.774 131.896C373.859 131.795 373.927 131.671 373.978 131.524C374.031 131.375 374.07 131.201 374.094 131.004C374.118 130.804 374.13 130.575 374.13 130.316H375.65ZM388.365 138.172C388.365 138.772 388.248 139.321 388.013 139.82C387.779 140.316 387.449 140.744 387.025 141.104C386.604 141.461 386.099 141.74 385.509 141.94C384.92 142.137 384.272 142.236 383.565 142.236C383.12 142.236 382.695 142.196 382.289 142.116C381.887 142.039 381.512 141.927 381.165 141.78C380.821 141.633 380.509 141.456 380.229 141.248C379.952 141.04 379.715 140.808 379.517 140.552C379.32 140.293 379.168 140.013 379.061 139.712C378.955 139.411 378.901 139.095 378.901 138.764V138.676H380.581V138.744C380.581 138.917 380.617 139.085 380.689 139.248C380.761 139.411 380.861 139.563 380.989 139.704C381.12 139.843 381.276 139.971 381.457 140.088C381.641 140.203 381.844 140.301 382.065 140.384C382.289 140.467 382.528 140.531 382.781 140.576C383.037 140.621 383.303 140.644 383.577 140.644C384.028 140.644 384.444 140.583 384.825 140.46C385.207 140.337 385.535 140.167 385.809 139.948C386.084 139.729 386.299 139.468 386.453 139.164C386.608 138.86 386.685 138.528 386.685 138.168C386.685 137.941 386.653 137.727 386.589 137.524C386.525 137.321 386.432 137.135 386.309 136.964C386.187 136.793 386.036 136.64 385.857 136.504C385.679 136.368 385.473 136.253 385.241 136.16C385.009 136.067 384.752 135.995 384.469 135.944C384.187 135.893 383.883 135.868 383.557 135.868C383.312 135.868 383.077 135.884 382.853 135.916C382.632 135.945 382.424 135.988 382.229 136.044C382.035 136.097 381.856 136.163 381.693 136.24C381.531 136.317 381.387 136.404 381.261 136.5C381.139 136.593 381.035 136.693 380.949 136.8C380.867 136.907 380.807 137.019 380.769 137.136H379.089V130.56H387.609V132.12H380.769V136.272L380.753 136.256C380.833 136.091 380.936 135.935 381.061 135.788C381.187 135.639 381.331 135.503 381.493 135.38C381.659 135.255 381.843 135.143 382.045 135.044C382.248 134.943 382.467 134.857 382.701 134.788C382.936 134.719 383.185 134.665 383.449 134.628C383.713 134.591 383.989 134.572 384.277 134.572C384.696 134.572 385.088 134.612 385.453 134.692C385.819 134.769 386.152 134.881 386.453 135.028C386.757 135.175 387.027 135.355 387.261 135.568C387.499 135.779 387.699 136.017 387.861 136.284C388.027 136.551 388.152 136.843 388.237 137.16C388.323 137.477 388.365 137.815 388.365 138.172Z" fill="white"/>
<path d="M314.937 76.316V86.608L314.889 86.44H316.961V88H311.233V86.44H313.305L313.257 86.608V79.704L313.305 79.752H310.761V78.312H311.789C311.994 78.312 312.177 78.2987 312.337 78.272C312.497 78.2453 312.637 78.2013 312.757 78.14C312.877 78.0787 312.978 77.9973 313.061 77.896C313.146 77.7947 313.214 77.6707 313.265 77.524C313.318 77.3747 313.357 77.2013 313.381 77.004C313.405 76.804 313.417 76.5747 313.417 76.316H314.937ZM317.709 82.28C317.709 81.688 317.765 81.1307 317.877 80.608C317.989 80.0827 318.149 79.6 318.357 79.16C318.568 78.7173 318.824 78.3213 319.125 77.972C319.426 77.62 319.766 77.3227 320.145 77.08C320.526 76.8347 320.942 76.6467 321.393 76.516C321.844 76.3853 322.322 76.32 322.829 76.32C323.336 76.32 323.814 76.3853 324.265 76.516C324.716 76.6467 325.13 76.8347 325.509 77.08C325.89 77.3227 326.232 77.62 326.533 77.972C326.834 78.3213 327.089 78.7173 327.297 79.16C327.508 79.6 327.669 80.0827 327.781 80.608C327.893 81.1307 327.949 81.688 327.949 82.28C327.949 82.872 327.893 83.4307 327.781 83.956C327.669 84.4787 327.508 84.9613 327.297 85.404C327.089 85.844 326.834 86.24 326.533 86.592C326.232 86.9413 325.89 87.2387 325.509 87.484C325.13 87.7267 324.716 87.9133 324.265 88.044C323.814 88.1747 323.336 88.24 322.829 88.24C322.322 88.24 321.844 88.1747 321.393 88.044C320.942 87.9133 320.526 87.7267 320.145 87.484C319.766 87.2387 319.426 86.9413 319.125 86.592C318.824 86.24 318.568 85.844 318.357 85.404C318.149 84.9613 317.989 84.4787 317.877 83.956C317.765 83.4307 317.709 82.872 317.709 82.28ZM319.389 82.28C319.389 82.7387 319.424 83.1653 319.493 83.56C319.565 83.9547 319.668 84.316 319.801 84.644C319.937 84.9693 320.104 85.2587 320.301 85.512C320.501 85.7653 320.728 85.9787 320.981 86.152C321.237 86.3253 321.52 86.4573 321.829 86.548C322.138 86.636 322.472 86.68 322.829 86.68C323.186 86.68 323.52 86.636 323.829 86.548C324.138 86.4573 324.42 86.3253 324.673 86.152C324.929 85.9787 325.156 85.7653 325.353 85.512C325.553 85.2587 325.72 84.9693 325.853 84.644C325.989 84.316 326.092 83.9547 326.161 83.56C326.233 83.1653 326.269 82.7387 326.269 82.28C326.269 81.8213 326.233 81.3947 326.161 81C326.092 80.6053 325.989 80.2453 325.853 79.92C325.72 79.592 325.553 79.3013 325.353 79.048C325.156 78.7947 324.929 78.5813 324.673 78.408C324.42 78.2347 324.138 78.104 323.829 78.016C323.52 77.9253 323.186 77.88 322.829 77.88C322.472 77.88 322.138 77.9253 321.829 78.016C321.52 78.104 321.237 78.2347 320.981 78.408C320.728 78.5813 320.501 78.7947 320.301 79.048C320.104 79.3013 319.937 79.592 319.801 79.92C319.668 80.2453 319.565 80.6053 319.493 81C319.424 81.3947 319.389 81.8213 319.389 82.28Z" fill="white"/>
</svg>
