<svg width="40" height="40" viewBox="0 0 40 40" fill="none" xmlns="http://www.w3.org/2000/svg">
<path d="M19.3026 21.6024C19.3026 22.209 19.2718 22.8154 19.2024 23.4179C19.1665 23.7307 19.1207 24.0416 19.0654 24.2582C18.9074 24.8755 18.6821 25.4388 18.3876 25.9485C18.0932 26.4599 17.7351 26.9121 17.3112 27.3124C16.889 27.7127 16.4132 28.0508 15.8818 28.3249C15.352 28.5974 14.7734 28.806 14.1479 28.9488C13.5206 29.0919 12.8562 29.1641 12.1515 29.1641C11.4501 29.1641 10.7859 29.0919 10.1584 28.9488C9.52949 28.8058 8.95087 28.5974 8.42281 28.3249C7.89642 28.0508 7.41863 27.7127 6.99669 27.3124C6.57279 26.9121 6.21307 26.4596 5.91862 25.9485C5.61917 25.4388 5.39389 24.8755 5.23584 24.2582C5.07917 23.6393 5 22.9749 5 22.2618V20.7935H8.93059V22.2432C8.93059 22.7529 9.00448 23.2254 9.15587 23.661C9.30726 24.0966 9.52421 24.4716 9.80671 24.7863C10.0892 25.1007 10.4289 25.348 10.8259 25.5263C11.2245 25.7046 11.6684 25.7938 12.1562 25.7938C12.6506 25.7938 13.0965 25.703 13.4931 25.5213C13.8917 25.3413 14.2298 25.0924 14.5073 24.7746C14.7848 24.4552 14.9984 24.0749 15.1481 23.6377C15.2979 23.2004 15.3718 22.726 15.3718 22.2115V11.0067H19.3024V11.0237C19.161 12.5306 19.0349 13.279 18.5018 13.6945C18.1032 14.0056 17.4743 14.1251 16.4415 14.2292C16.3962 14.2326 16.3962 14.3015 16.4432 14.3048C17.4287 14.4056 18.046 14.5167 18.4462 14.7976C18.8815 15.099 19.0632 15.5965 19.1885 16.484C19.2687 17.052 19.3024 17.6257 19.3024 18.1993V21.6024H19.3026Z" fill="url(#paint0_linear_613_303)"/>
<path d="M19.7882 22.2498H21.8827C22.2511 22.2498 22.5672 22.2768 22.8313 22.3307C23.0938 22.3846 23.3274 22.4787 23.5311 22.6165C23.733 22.7526 23.9163 22.9343 24.0777 23.1648C24.2391 23.3951 24.3988 23.6862 24.5572 24.0343L26.715 28.7907H31.0725L28.9347 24.0276C28.5444 23.1532 28.0803 22.4787 27.5389 22.0093C27.1017 21.6276 26.6072 21.3854 26.0589 21.2809C26.0136 21.2709 26.0169 21.2087 26.0622 21.2054C26.6558 21.1532 27.2008 21.0287 27.7003 20.8337C28.3075 20.5948 28.8256 20.2654 29.2561 19.8448C29.6817 19.4242 30.0147 18.9198 30.2467 18.3345C30.4789 17.7476 30.5947 17.0967 30.5947 16.3784C30.5947 15.5575 30.4467 14.8159 30.1525 14.1534C29.8581 13.4889 29.4361 12.9239 28.8828 12.4581C28.3261 11.9906 27.6533 11.6322 26.8611 11.38C26.0655 11.1261 25.1691 11 24.1702 11H19.3446C19.321 11 19.3044 11.0219 19.306 11.0436C19.4355 12.4178 19.5532 13.1545 19.9821 13.5834C20.2933 13.8945 20.771 14.0442 21.5327 14.15C22.0222 14.2189 22.5166 14.2459 23.0094 14.2459H23.7108C24.6644 14.2459 25.3944 14.4495 25.8989 14.8564C26.405 15.2617 26.6575 15.8503 26.6575 16.6223C26.6575 17.0109 26.5919 17.3573 26.4591 17.6617C26.3264 17.9662 26.1344 18.2234 25.8855 18.4337C25.6316 18.6423 25.3255 18.802 24.9605 18.9115C24.6561 19.004 21.3185 19.0579 19.7882 19.0745V22.2498Z" fill="url(#paint1_linear_613_303)"/>
<path d="M34.9936 11.0789C34.9936 11.0789 34.9666 11.0067 34.928 11.0067H31.1386C31.1016 11.0067 31.073 11.0353 31.073 11.0723V21.5907C31.073 22.2046 31.1099 22.8185 31.2008 23.4241C31.3066 24.1288 31.4547 24.5743 31.7508 24.8705C32.1375 25.2591 32.7852 25.3952 33.9222 25.5096C33.9694 25.5146 33.9694 25.5818 33.9239 25.5868C32.8911 25.691 32.2672 25.8088 31.8669 26.1232C31.3455 26.5302 31.2161 27.2719 31.078 28.7435C31.0763 28.7569 31.0763 28.7705 31.0747 28.7838H34.9344C34.9714 28.7838 35 28.7552 35 28.7183V17.4854L34.9936 11.0789Z" fill="url(#paint2_linear_613_303)"/>
<path d="M12.2926 29.0757C11.5928 29.0757 10.9184 29.0029 10.2878 28.859C9.65922 28.7163 9.07116 28.5046 8.53977 28.2304C8.00754 27.9532 7.52365 27.6096 7.10142 27.2093C6.67197 26.8037 6.30586 26.3407 6.01391 25.8335C5.7178 25.3293 5.48613 24.7559 5.32557 24.1298C5.16835 23.5073 5.08862 22.8312 5.08862 22.1204H5.19446C5.19446 22.8226 5.27307 23.4898 5.42835 24.1037C5.58613 24.7198 5.81391 25.284 6.10558 25.7801C6.3928 26.279 6.75225 26.7337 7.17448 27.1324C7.58948 27.526 8.06532 27.8637 8.58866 28.1365C9.11199 28.4065 9.69172 28.6149 10.3117 28.7557C10.9348 28.8976 11.6012 28.9696 12.2931 28.9696C12.987 28.9696 13.6548 28.8976 14.2776 28.7557C14.8951 28.6146 15.4743 28.4063 15.9993 28.1363L16.0476 28.2304C15.5148 28.5043 14.9273 28.7157 14.3012 28.859C13.6701 29.0029 12.9945 29.0757 12.2926 29.0757Z" fill="url(#paint3_radial_613_303)"/>
<g opacity="0.7">
<path d="M16.5884 14.1405L16.5779 14.035C17.514 13.9405 18.1765 13.7325 18.6032 13.3994L18.6685 13.483C18.2254 13.8289 17.5451 14.0439 16.5884 14.1405Z" fill="url(#paint4_linear_613_303)"/>
</g>
<g opacity="0.8">
<path d="M15.5664 11.0747H15.4603V22.0701H15.5664V11.0747Z" fill="url(#paint5_linear_613_303)"/>
</g>
<path d="M28.1042 28.7024H26.8219L26.8078 28.6713L24.65 23.9148C24.4925 23.5682 24.333 23.2784 24.1755 23.054C24.0211 22.8334 23.8419 22.6537 23.6427 22.5193C23.4486 22.3876 23.2194 22.2943 22.9622 22.2412C22.703 22.1884 22.3872 22.1615 22.0241 22.1615H19.8766V20.8259H19.9827V22.0557H22.0244C22.3947 22.0557 22.7172 22.0832 22.9836 22.1373C23.2547 22.1929 23.4966 22.2918 23.7025 22.4312C23.9122 22.5729 24.1008 22.7618 24.2627 22.9929C24.4239 23.2229 24.5869 23.5182 24.7469 23.871L26.8905 28.5963H28.1044V28.7024H28.1042Z" fill="url(#paint6_linear_613_303)"/>
<path d="M26.7838 17.1267L26.6805 17.1034C26.7238 16.9114 26.7457 16.702 26.7457 16.4811C26.7457 15.7292 26.4971 15.1489 26.0071 14.7564C25.5143 14.3589 24.7893 14.1575 23.8521 14.1575H23.1507C22.6124 14.1575 22.1271 14.1258 21.6665 14.0611C20.8315 13.945 20.3882 13.7819 20.0857 13.4794C19.6529 13.0467 19.5282 12.465 19.3943 11.0444L19.4998 11.0344C19.631 12.4272 19.7507 12.9947 20.1607 13.4044C20.4451 13.6889 20.8712 13.8436 21.6813 13.9561C22.1368 14.0203 22.6174 14.0514 23.1507 14.0514H23.8521C24.8143 14.0514 25.5616 14.2608 26.0735 14.6736C26.5899 15.087 26.8519 15.6953 26.8519 16.4809C26.8519 16.71 26.8288 16.9273 26.7838 17.1267Z" fill="url(#paint7_linear_613_303)"/>
<path d="M26.1375 21.0462L26.1283 20.9406C26.7769 20.8837 27.2711 20.7781 27.7311 20.5984C28.2766 20.384 28.715 20.0915 29.1969 19.6206C29.2761 19.5423 29.3753 19.417 29.4625 19.3062C29.4925 19.2681 29.5208 19.232 29.5461 19.2012L29.6283 19.2681C29.6036 19.2987 29.5756 19.3342 29.5456 19.372C29.4564 19.4851 29.355 19.6134 29.2711 19.6965C28.7783 20.1778 28.3292 20.477 27.7694 20.6973C27.3061 20.8784 26.7875 20.9892 26.1375 21.0462Z" fill="url(#paint8_linear_613_303)"/>
<path d="M34.0583 25.421C32.9397 25.3085 32.2572 25.1707 31.8547 24.7665C31.568 24.4798 31.4044 24.0523 31.29 23.2907C31.2036 22.7143 31.1614 22.112 31.1614 21.4495V11.0747H31.2675V21.4495C31.2675 22.1068 31.3092 22.7037 31.3947 23.2748C31.5055 24.012 31.6605 24.4223 31.9297 24.6915C32.3097 25.0732 32.9747 25.2054 34.0689 25.3154L34.0583 25.421Z" fill="url(#paint9_linear_613_303)"/>
<path d="M31.3247 28.2769L31.2191 28.2666C31.3136 27.3052 31.505 26.6291 31.8044 26.1993L31.8913 26.2599C31.6027 26.6743 31.4175 27.3341 31.3247 28.2769Z" fill="url(#paint10_linear_613_303)"/>
<defs>
<linearGradient id="paint0_linear_613_303" x1="6.43734" y1="24.3327" x2="46.6533" y2="3.90952" gradientUnits="userSpaceOnUse">
<stop stop-color="#8A63D2"/>
<stop offset="0.3358" stop-color="#594FE3"/>
<stop offset="0.7854" stop-color="#1D37F7"/>
<stop offset="1" stop-color="#052DFF"/>
</linearGradient>
<linearGradient id="paint1_linear_613_303" x1="8.49362" y1="28.3816" x2="48.7096" y2="7.95845" gradientUnits="userSpaceOnUse">
<stop stop-color="#8A63D2"/>
<stop offset="0.3358" stop-color="#594FE3"/>
<stop offset="0.7854" stop-color="#1D37F7"/>
<stop offset="1" stop-color="#052DFF"/>
</linearGradient>
<linearGradient id="paint2_linear_613_303" x1="10.0994" y1="31.5438" x2="50.3153" y2="11.1206" gradientUnits="userSpaceOnUse">
<stop stop-color="#8A63D2"/>
<stop offset="0.3358" stop-color="#594FE3"/>
<stop offset="0.7854" stop-color="#1D37F7"/>
<stop offset="1" stop-color="#052DFF"/>
</linearGradient>
<radialGradient id="paint3_radial_613_303" cx="0" cy="0" r="1" gradientUnits="userSpaceOnUse" gradientTransform="translate(10.5678 25.5981) scale(4.58905)">
<stop stop-color="#6D57DC"/>
<stop offset="0.2445" stop-color="#B8AEEE"/>
<stop offset="0.4849" stop-color="white"/>
<stop offset="0.729" stop-color="#ACA6F0"/>
<stop offset="0.9129" stop-color="#7369E5"/>
<stop offset="1" stop-color="#5D51E1"/>
</radialGradient>
<linearGradient id="paint4_linear_613_303" x1="16.5778" y1="13.77" x2="18.6685" y2="13.77" gradientUnits="userSpaceOnUse">
<stop stop-color="#4E4AE6"/>
<stop offset="0.0923" stop-color="#8380ED" stop-opacity="0.9239"/>
<stop offset="0.1838" stop-color="#AFADF4" stop-opacity="0.8484"/>
<stop offset="0.2708" stop-color="#D2D1F9" stop-opacity="0.7766"/>
<stop offset="0.3522" stop-color="#EBEAFC" stop-opacity="0.7095"/>
<stop offset="0.4259" stop-color="#FAFAFE" stop-opacity="0.6487"/>
<stop offset="0.4849" stop-color="white" stop-opacity="0.6"/>
<stop offset="0.5134" stop-color="#EDEDFD" stop-opacity="0.6221"/>
<stop offset="0.6017" stop-color="#BCBCF6" stop-opacity="0.6907"/>
<stop offset="0.6892" stop-color="#9292F1" stop-opacity="0.7587"/>
<stop offset="0.7742" stop-color="#7272ED" stop-opacity="0.8246"/>
<stop offset="0.8558" stop-color="#5C5CEA" stop-opacity="0.888"/>
<stop offset="0.9327" stop-color="#4E4EE9" stop-opacity="0.9477"/>
<stop offset="1" stop-color="#4949E8"/>
</linearGradient>
<linearGradient id="paint5_linear_613_303" x1="15.5134" y1="22.07" x2="15.5134" y2="11.0747" gradientUnits="userSpaceOnUse">
<stop stop-color="#564EE3"/>
<stop offset="0.0899" stop-color="#655EE6" stop-opacity="0.9475"/>
<stop offset="0.2653" stop-color="#8D87EC" stop-opacity="0.8449"/>
<stop offset="0.5065" stop-color="#CCCAF7" stop-opacity="0.7039"/>
<stop offset="0.6844" stop-color="white" stop-opacity="0.6"/>
<stop offset="0.8322" stop-color="#AAA8F4" stop-opacity="0.7874"/>
<stop offset="1" stop-color="#4D4AE7"/>
</linearGradient>
<linearGradient id="paint6_linear_613_303" x1="19.8764" y1="24.7643" x2="28.1042" y2="24.7643" gradientUnits="userSpaceOnUse">
<stop stop-color="#4D4AE7"/>
<stop offset="0.0552" stop-color="#5855E9" stop-opacity="0.9545"/>
<stop offset="0.1536" stop-color="#7674ED" stop-opacity="0.8733"/>
<stop offset="0.2838" stop-color="#A7A6F3" stop-opacity="0.7659"/>
<stop offset="0.4392" stop-color="#EAEAFC" stop-opacity="0.6377"/>
<stop offset="0.4849" stop-color="white" stop-opacity="0.6"/>
<stop offset="0.5029" stop-color="#F6F6FE" stop-opacity="0.614"/>
<stop offset="0.6346" stop-color="#B7B8F7" stop-opacity="0.7162"/>
<stop offset="0.7547" stop-color="#8687F1" stop-opacity="0.8095"/>
<stop offset="0.8595" stop-color="#6364ED" stop-opacity="0.8909"/>
<stop offset="0.9448" stop-color="#4D4FEA" stop-opacity="0.9571"/>
<stop offset="1" stop-color="#4547E9"/>
</linearGradient>
<linearGradient id="paint7_linear_613_303" x1="19.3945" y1="14.0806" x2="26.8517" y2="14.0806" gradientUnits="userSpaceOnUse">
<stop stop-color="#4547E9"/>
<stop offset="0.1274" stop-color="#797AEF" stop-opacity="0.8949"/>
<stop offset="0.3739" stop-color="#D9D9FA" stop-opacity="0.6916"/>
<stop offset="0.4849" stop-color="white" stop-opacity="0.6"/>
<stop offset="0.5455" stop-color="#FAFAFF" stop-opacity="0.6471"/>
<stop offset="0.6197" stop-color="#EBECFD" stop-opacity="0.7046"/>
<stop offset="0.7009" stop-color="#D2D4FB" stop-opacity="0.7677"/>
<stop offset="0.7872" stop-color="#AFB3F8" stop-opacity="0.8348"/>
<stop offset="0.8776" stop-color="#8388F4" stop-opacity="0.9049"/>
<stop offset="0.9699" stop-color="#4D55EF" stop-opacity="0.9767"/>
<stop offset="1" stop-color="#3A43ED"/>
</linearGradient>
<linearGradient id="paint8_linear_613_303" x1="26.1282" y1="20.1239" x2="29.6283" y2="20.1239" gradientUnits="userSpaceOnUse">
<stop stop-color="#4145EB"/>
<stop offset="0.0589" stop-color="#464AEC" stop-opacity="0.9531"/>
<stop offset="0.1331" stop-color="#565AED" stop-opacity="0.8939"/>
<stop offset="0.2157" stop-color="#7073F0" stop-opacity="0.8281"/>
<stop offset="0.3042" stop-color="#9496F4" stop-opacity="0.7576"/>
<stop offset="0.3975" stop-color="#C2C3F9" stop-opacity="0.6832"/>
<stop offset="0.4936" stop-color="#FAFAFE" stop-opacity="0.6067"/>
<stop offset="0.502" stop-color="white" stop-opacity="0.6"/>
<stop offset="0.7542" stop-color="#999DF6" stop-opacity="0.8025"/>
<stop offset="1" stop-color="#3942ED"/>
</linearGradient>
<linearGradient id="paint9_linear_613_303" x1="32.6152" y1="25.4208" x2="32.6152" y2="11.0747" gradientUnits="userSpaceOnUse">
<stop stop-color="#2D3DF1"/>
<stop offset="0.0238" stop-color="#4A57F3" stop-opacity="0.9666"/>
<stop offset="0.0741" stop-color="#808AF7" stop-opacity="0.896"/>
<stop offset="0.1231" stop-color="#AEB4FA" stop-opacity="0.8272"/>
<stop offset="0.1698" stop-color="#D1D5FC" stop-opacity="0.7616"/>
<stop offset="0.2136" stop-color="#EAECFE" stop-opacity="0.7003"/>
<stop offset="0.2532" stop-color="#FAFAFF" stop-opacity="0.6447"/>
<stop offset="0.285" stop-color="white" stop-opacity="0.6"/>
<stop offset="0.3735" stop-color="#EEEFFE" stop-opacity="0.6495"/>
<stop offset="0.5497" stop-color="#C1C4FA" stop-opacity="0.7481"/>
<stop offset="0.7943" stop-color="#797FF4" stop-opacity="0.885"/>
<stop offset="1" stop-color="#3741EE"/>
</linearGradient>
<linearGradient id="paint10_linear_613_303" x1="30.8778" y1="27.925" x2="32.2172" y2="26.5856" gradientUnits="userSpaceOnUse">
<stop stop-color="#3C43EC"/>
<stop offset="0.0521" stop-color="#444AED" stop-opacity="0.9585"/>
<stop offset="0.1321" stop-color="#595FEF" stop-opacity="0.8948"/>
<stop offset="0.2298" stop-color="#7C81F2" stop-opacity="0.8169"/>
<stop offset="0.3416" stop-color="#ADB0F7" stop-opacity="0.7278"/>
<stop offset="0.4638" stop-color="#EAEBFD" stop-opacity="0.6304"/>
<stop offset="0.502" stop-color="white" stop-opacity="0.6"/>
<stop offset="0.6004" stop-color="#CED0FB" stop-opacity="0.6791"/>
<stop offset="0.7397" stop-color="#8F94F5" stop-opacity="0.7909"/>
<stop offset="0.8575" stop-color="#6168F1" stop-opacity="0.8856"/>
<stop offset="0.9479" stop-color="#454DEE" stop-opacity="0.9582"/>
<stop offset="1" stop-color="#3A43ED"/>
</linearGradient>
</defs>
</svg>
