<svg width="16" height="16" viewBox="0 0 16 16" fill="currentColor" xmlns="http://www.w3.org/2000/svg">
<path fill-rule="evenodd" clip-rule="evenodd" d="M11.9805 2.78792C11.3297 2.13704 10.2744 2.13704 9.62355 2.78792L3.61315 8.79836C2.50666 9.90482 2.50666 11.6988 3.61315 12.8053C4.71963 13.9118 6.5136 13.9118 7.62008 12.8053L13.6305 6.79482C13.8908 6.5345 14.3129 6.5345 14.5733 6.79482C14.8337 7.05522 14.8337 7.47729 14.5733 7.73769L8.56288 13.7481C6.93568 15.3752 4.29752 15.3753 2.67034 13.7481C1.04315 12.1209 1.04315 9.48269 2.67034 7.85549L8.68075 1.84511C9.85235 0.673537 11.7518 0.673537 12.9234 1.84511C14.0949 3.01668 14.0949 4.91618 12.9234 6.08775L7.14868 11.8624C6.43272 12.5784 5.27192 12.5784 4.55595 11.8624C3.83999 11.1465 3.83999 9.98569 4.55595 9.26976L9.62355 4.20213C9.88388 3.94178 10.306 3.94178 10.5663 4.20213C10.8267 4.46248 10.8267 4.88459 10.5663 5.14494L5.49877 10.2126C5.3035 10.4078 5.3035 10.7244 5.49877 10.9196C5.69403 11.1149 6.01061 11.1149 6.20587 10.9196L11.9805 5.14494C12.6315 4.49406 12.6315 3.43879 11.9805 2.78792Z" />
</svg>
