<svg  viewBox="0 0 16 16" fill="currentColor" xmlns="http://www.w3.org/2000/svg">
<path fill-rule="evenodd" clip-rule="evenodd" d="M5.33325 0.666626C5.70145 0.666626 5.99992 0.965106 5.99992 1.33329V1.99996H9.99992V1.33329C9.99992 0.965106 10.2984 0.666626 10.6666 0.666626C11.0348 0.666626 11.3333 0.965106 11.3333 1.33329V2.00105C11.6503 2.00322 11.9273 2.00977 12.1678 2.02942C12.5425 2.06004 12.887 2.12575 13.2106 2.29061C13.7123 2.54627 14.1203 2.95422 14.3759 3.45599C14.5408 3.77954 14.6065 4.12401 14.6371 4.49874C14.6666 4.85953 14.6666 5.30244 14.6666 5.83908V11.4942C14.6666 12.0308 14.6666 12.4737 14.6371 12.8345C14.6065 13.2092 14.5408 13.5537 14.3759 13.8773C14.1203 14.379 13.7123 14.787 13.2106 15.0426C12.887 15.2075 12.5425 15.2732 12.1678 15.3038C11.807 15.3333 11.3641 15.3333 10.8275 15.3333H5.17237C4.63573 15.3333 4.19283 15.3333 3.83203 15.3038C3.45731 15.2732 3.11283 15.2075 2.78928 15.0426C2.28751 14.787 1.87957 14.379 1.6239 13.8773C1.45904 13.5537 1.39333 13.2092 1.36271 12.8345C1.33324 12.4737 1.33325 12.0308 1.33325 11.4942V5.83909C1.33325 5.30245 1.33324 4.85954 1.36271 4.49874C1.39333 4.12401 1.45904 3.77954 1.6239 3.45599C1.87957 2.95422 2.28751 2.54627 2.78928 2.29061C3.11283 2.12575 3.45731 2.06004 3.83204 2.02942C4.07257 2.00977 4.34961 2.00322 4.66659 2.00105V1.33329C4.66659 0.965106 4.96507 0.666626 5.33325 0.666626ZM4.66659 3.33447C4.36957 3.33655 4.13634 3.34233 3.94061 3.35833C3.64833 3.38221 3.49887 3.42549 3.3946 3.47862C3.14372 3.60645 2.93974 3.81042 2.81191 4.06131C2.75879 4.16557 2.7155 4.31504 2.69162 4.60732C2.66711 4.90738 2.66659 5.29557 2.66659 5.86663V5.99996H13.3333V5.86663C13.3333 5.29557 13.3327 4.90738 13.3082 4.60732C13.2843 4.31504 13.2411 4.16557 13.1879 4.06131C13.0601 3.81043 12.8561 3.60645 12.6053 3.47862C12.501 3.42549 12.3515 3.38221 12.0593 3.35833C11.8635 3.34233 11.6303 3.33655 11.3333 3.33447V3.99996C11.3333 4.36815 11.0348 4.66663 10.6666 4.66663C10.2984 4.66663 9.99992 4.36815 9.99992 3.99996V3.33329H5.99992V3.99996C5.99992 4.36815 5.70145 4.66663 5.33325 4.66663C4.96507 4.66663 4.66659 4.36815 4.66659 3.99996V3.33447ZM13.3333 7.33329H2.66659V11.4666C2.66659 12.0377 2.66711 12.4259 2.69162 12.726C2.7155 13.0182 2.75879 13.1677 2.81191 13.272C2.93974 13.5228 3.14372 13.7268 3.3946 13.8546C3.49887 13.9078 3.64833 13.951 3.94061 13.9749C4.24067 13.9994 4.62887 14 5.19992 14H10.7999C11.371 14 11.7592 13.9994 12.0593 13.9749C12.3515 13.951 12.501 13.9078 12.6053 13.8546C12.8561 13.7268 13.0601 13.5228 13.1879 13.272C13.2411 13.1677 13.2843 13.0182 13.3082 12.726C13.3327 12.4259 13.3333 12.0377 13.3333 11.4666V7.33329Z" />
</svg>
