<svg  fill='currentColor' viewBox="0 0 25 24" xmlns="http://www.w3.org/2000/svg">
<path fill-rule="evenodd" clip-rule="evenodd" d="M9.5 2C10.0523 2 10.5 2.44772 10.5 3V21C10.5 21.5523 10.0523 22 9.5 22C8.94772 22 8.5 21.5523 8.5 21V3C8.5 2.44772 8.94772 2 9.5 2ZM21.5 2C22.0523 2 22.5 2.44772 22.5 3V21C22.5 21.5523 22.0523 22 21.5 22C20.9477 22 20.5 21.5523 20.5 21V3C20.5 2.44772 20.9477 2 21.5 2ZM3.5 10C4.05228 10 4.5 10.4477 4.5 11V21C4.5 21.5523 4.05229 22 3.5 22C2.94772 22 2.5 21.5523 2.5 21V11C2.5 10.4477 2.94772 10 3.5 10ZM15.5 10C16.0523 10 16.5 10.4477 16.5 11V21C16.5 21.5523 16.0523 22 15.5 22C14.9477 22 14.5 21.5523 14.5 21V11C14.5 10.4477 14.9477 10 15.5 10Z"/>
</svg>
