<svg width="16" height="16" viewBox="0 0 16 16" fill="currentColor" xmlns="http://www.w3.org/2000/svg">
<path fill-rule="evenodd" clip-rule="evenodd" d="M8 1.99996C5.42267 1.99996 3.33333 4.0893 3.33333 6.66663C3.33333 7.92803 3.90211 9.11863 4.86152 10.3644C5.67161 11.4163 6.70847 12.4448 7.82153 13.5488C7.8808 13.6076 7.94033 13.6666 8 13.7259C8.05967 13.6666 8.1192 13.6076 8.17847 13.5488C9.29153 12.4448 10.3284 11.4163 11.1385 10.3644C12.0979 9.11863 12.6667 7.92803 12.6667 6.66663C12.6667 4.0893 10.5773 1.99996 8 1.99996ZM2 6.66663C2 3.35292 4.68629 0.666626 8 0.666626C11.3137 0.666626 14 3.35292 14 6.66663C14 8.35076 13.2355 9.82676 12.1949 11.178C11.3253 12.3071 10.2123 13.4104 9.10053 14.5126C8.89027 14.721 8.68 14.9295 8.4714 15.138C8.21107 15.3984 7.78893 15.3984 7.5286 15.138C7.32 14.9295 7.10973 14.721 6.89947 14.5126C5.78765 13.4104 4.6747 12.3071 3.80515 11.178C2.76455 9.82676 2 8.35076 2 6.66663ZM8 5.33329C7.2636 5.33329 6.66667 5.93025 6.66667 6.66663C6.66667 7.40303 7.2636 7.99996 8 7.99996C8.7364 7.99996 9.33333 7.40303 9.33333 6.66663C9.33333 5.93025 8.7364 5.33329 8 5.33329ZM5.33333 6.66663C5.33333 5.19387 6.52724 3.99996 8 3.99996C9.47273 3.99996 10.6667 5.19387 10.6667 6.66663C10.6667 8.13936 9.47273 9.33329 8 9.33329C6.52724 9.33329 5.33333 8.13936 5.33333 6.66663Z" />
</svg>
