<svg  viewBox="0 0 24 24" fill="currentColor" xmlns="http://www.w3.org/2000/svg">
<path fill-rule="evenodd" clip-rule="evenodd" d="M13.3981 1.08263C13.8053 1.2594 14.0472 1.68347 13.9921 2.12397L13.1326 8.99994L19.3276 8.99993C19.5686 8.99989 19.8127 8.99984 20.0121 9.0179C20.2008 9.03497 20.5619 9.08015 20.8751 9.33326C21.2337 9.62302 21.4391 10.0615 21.4322 10.5225C21.4261 10.9252 21.2296 11.2315 21.122 11.3874C21.0082 11.5521 20.8519 11.7396 20.6976 11.9247L11.7681 22.6401C11.4839 22.9811 11.0089 23.094 10.6017 22.9172C10.1945 22.7404 9.95252 22.3164 10.0076 21.8759L10.8671 14.9999H4.67209C4.4311 14.9999 4.187 15 3.98758 14.9819C3.79897 14.9649 3.4378 14.9197 3.12459 14.6666C2.76601 14.3768 2.5606 13.9382 2.56755 13.4773C2.57363 13.0746 2.77013 12.7683 2.87776 12.6124C2.99156 12.4477 3.14787 12.2602 3.30219 12.075C3.30983 12.0659 3.31747 12.0567 3.3251 12.0476L12.2316 1.35975C12.5158 1.01872 12.9908 0.905864 13.3981 1.08263ZM5.1349 12.9999H11.9999C12.2867 12.9999 12.5597 13.1231 12.7495 13.3381C12.9394 13.5531 13.0277 13.8393 12.9921 14.1239L12.4152 18.7394L18.8648 10.9999H11.9999C11.713 10.9999 11.44 10.8767 11.2502 10.6617C11.0604 10.4467 10.972 10.1605 11.0076 9.8759L11.5845 5.26039L5.1349 12.9999Z" />
</svg>
