<svg viewBox="0 0 25 24"  fill='currentColor' xmlns="http://www.w3.org/2000/svg">
<path fill-rule="evenodd" clip-rule="evenodd" d="M8.66146 1H16.3385C16.8657 0.999984 17.3205 0.999968 17.695 1.03057C18.0904 1.06287 18.4836 1.13419 18.862 1.32698C19.4265 1.6146 19.8854 2.07354 20.173 2.63803C20.3658 3.01641 20.4371 3.40963 20.4694 3.80497C20.5 4.17955 20.5 4.63432 20.5 5.16148V18.8385C20.5 19.3657 20.5 19.8205 20.4694 20.195C20.4371 20.5904 20.3658 20.9836 20.173 21.362C19.8854 21.9265 19.4265 22.3854 18.862 22.673C18.4836 22.8658 18.0904 22.9371 17.695 22.9694C17.3205 23 16.8657 23 16.3386 23H8.66144C8.1343 23 7.67954 23 7.30497 22.9694C6.90963 22.9371 6.51641 22.8658 6.13803 22.673C5.57354 22.3854 5.1146 21.9265 4.82698 21.362C4.63419 20.9836 4.56287 20.5904 4.53057 20.195C4.49997 19.8205 4.49998 19.3657 4.5 18.8385V5.16146C4.49998 4.63431 4.49997 4.17955 4.53057 3.80497C4.56287 3.40963 4.63419 3.01641 4.82698 2.63803C5.1146 2.07354 5.57354 1.6146 6.13803 1.32698C6.51641 1.13419 6.90963 1.06287 7.30497 1.03057C7.67955 0.999968 8.13431 0.999984 8.66146 1ZM7.46784 3.02393C7.19617 3.04612 7.09546 3.0838 7.04601 3.109C6.85785 3.20487 6.70487 3.35785 6.609 3.54601C6.5838 3.59546 6.54612 3.69617 6.52393 3.96784C6.50078 4.25118 6.5 4.62345 6.5 5.2V18.8C6.5 19.3766 6.50078 19.7488 6.52393 20.0322C6.54612 20.3038 6.5838 20.4046 6.609 20.454C6.70487 20.6422 6.85785 20.7951 7.04601 20.891C7.09546 20.9162 7.19617 20.9539 7.46784 20.9761C7.75117 20.9992 8.12345 21 8.7 21H16.3C16.8766 21 17.2488 20.9992 17.5322 20.9761C17.8038 20.9539 17.9045 20.9162 17.954 20.891C18.1422 20.7951 18.2951 20.6422 18.391 20.454C18.4162 20.4045 18.4539 20.3038 18.4761 20.0322C18.4992 19.7488 18.5 19.3766 18.5 18.8V5.2C18.5 4.62345 18.4992 4.25117 18.4761 3.96784C18.4539 3.69617 18.4162 3.59546 18.391 3.54601C18.2951 3.35785 18.1422 3.20487 17.954 3.109C17.9045 3.0838 17.8038 3.04612 17.5322 3.02393C17.2488 3.00078 16.8766 3 16.3 3H8.7C8.12345 3 7.75117 3.00078 7.46784 3.02393ZM11 17.5C11 16.6716 11.6716 16 12.5 16C13.3284 16 14 16.6716 14 17.5C14 18.3284 13.3284 19 12.5 19C11.6716 19 11 18.3284 11 17.5Z" />
</svg>
