<svg  fill='currentColor' viewBox="0 0 25 24"  xmlns="http://www.w3.org/2000/svg">
<path fill-rule="evenodd" clip-rule="evenodd" d="M13.5 3.01979C13.3143 3.00287 13.0391 2.99994 12.5118 2.99994H9.3C8.44342 2.99994 7.86113 3.00072 7.41104 3.03749C6.97262 3.07331 6.74842 3.13824 6.59202 3.21793C6.2157 3.40967 5.90973 3.71564 5.71799 4.09196C5.6383 4.24836 5.57337 4.47256 5.53755 4.91098C5.50078 5.36107 5.5 5.94336 5.5 6.79994V17.1999C5.5 18.0565 5.50078 18.6388 5.53755 19.0889C5.57337 19.5273 5.6383 19.7515 5.71799 19.9079C5.90973 20.2842 6.2157 20.5902 6.59202 20.782C6.74842 20.8616 6.97262 20.9266 7.41104 20.9624C7.86113 20.9992 8.44342 20.9999 9.3 20.9999H15.7C16.5566 20.9999 17.1389 20.9992 17.589 20.9624C18.0274 20.9266 18.2516 20.8616 18.408 20.782C18.7843 20.5902 19.0903 20.2842 19.282 19.9079C19.3617 19.7515 19.4266 19.5273 19.4624 19.0889C19.4992 18.6388 19.5 18.0565 19.5 17.1999V9.98817C19.5 9.46087 19.4971 9.18571 19.4802 9.00001L16.0681 9.00002C15.8157 9.00005 15.5699 9.00007 15.3618 8.98307C15.1332 8.96439 14.8634 8.92032 14.592 8.78202C14.2157 8.59028 13.9097 8.28432 13.718 7.90799C13.5797 7.63657 13.5356 7.36684 13.5169 7.13824C13.4999 6.93008 13.5 6.68428 13.5 6.43189V3.01979ZM14.8936 1.34991C14.6677 1.24865 14.4326 1.16842 14.1911 1.11046C13.7284 0.999378 13.2487 0.999607 12.6137 0.999909C12.5801 0.999925 12.5462 0.999941 12.5118 0.999941H9.2587C8.45373 0.999928 7.78937 0.999917 7.24817 1.04413C6.68608 1.09006 6.16937 1.18862 5.68404 1.43591C4.93139 1.81941 4.31947 2.43133 3.93597 3.18398C3.68868 3.66931 3.59012 4.18602 3.54419 4.74812C3.49998 5.28931 3.49999 5.95367 3.5 6.75864V17.2412C3.49999 18.0462 3.49998 18.7106 3.54419 19.2518C3.59012 19.8139 3.68868 20.3306 3.93597 20.8159C4.31947 21.5686 4.93139 22.1805 5.68404 22.564C6.16937 22.8113 6.68608 22.9098 7.24817 22.9557C7.78936 23 8.45372 23 9.25868 22.9999H15.7413C16.5463 23 17.2106 23 17.7518 22.9557C18.3139 22.9098 18.8306 22.8113 19.316 22.564C20.0686 22.1805 20.6805 21.5686 21.064 20.8159C21.3113 20.3306 21.4099 19.8139 21.4558 19.2518C21.5 18.7106 21.5 18.0462 21.5 17.2413V9.98817C21.5 9.95376 21.5 9.91981 21.5 9.8863C21.5003 9.25129 21.5006 8.7715 21.3895 8.3088C21.3317 8.06807 21.2518 7.8336 21.1509 7.60831C21.1447 7.59363 21.1381 7.57913 21.1311 7.56482C21.0658 7.42343 20.9922 7.28577 20.9106 7.15259C20.6619 6.74686 20.3225 6.40776 19.8733 5.95895C19.8496 5.93526 19.8255 5.91127 19.8012 5.88695L16.613 2.69872C16.5887 2.67439 16.5647 2.65037 16.541 2.62666C16.0922 2.17744 15.7531 1.83801 15.3474 1.58938C15.2136 1.50743 15.0754 1.43354 14.9334 1.36802C14.9203 1.3617 14.907 1.35566 14.8936 1.34991ZM15.5 4.41415V6.40001C15.5 6.69654 15.5008 6.85879 15.5103 6.97538C15.5107 6.98002 15.5111 6.98441 15.5114 6.98856C15.5156 6.98895 15.52 6.98933 15.5246 6.98971C15.6412 6.99923 15.8035 7.00001 16.1 7.00001H18.0859L15.5 4.41415ZM12.5 9.49994C13.0523 9.49994 13.5 9.94766 13.5 10.4999V17.9999C13.5 18.5522 13.0523 18.9999 12.5 18.9999C11.9477 18.9999 11.5 18.5522 11.5 17.9999V10.4999C11.5 9.94766 11.9477 9.49994 12.5 9.49994ZM16.5 11.9999C17.0523 11.9999 17.5 12.4477 17.5 12.9999V17.9999C17.5 18.5522 17.0523 18.9999 16.5 18.9999C15.9477 18.9999 15.5 18.5522 15.5 17.9999V12.9999C15.5 12.4477 15.9477 11.9999 16.5 11.9999ZM8.5 13.9999C9.05229 13.9999 9.5 14.4477 9.5 14.9999V17.9999C9.5 18.5522 9.05229 18.9999 8.5 18.9999C7.94772 18.9999 7.5 18.5522 7.5 17.9999V14.9999C7.5 14.4477 7.94772 13.9999 8.5 13.9999Z" />
</svg>
