<svg  fill='currentColor' height="24" viewBox="0 0 24 24" width="24" xmlns="http://www.w3.org/2000/svg"><path clip-rule="evenodd" d="m8.00025 3.7583c0-1.52337 1.23494-2.7583 2.75835-2.7583h2.4833c1.5234 0 2.7584 1.23494 2.7584 2.75831 0 .58372.6319.94859 1.1374.6567 1.3193-.76169 3.0063-.30969 3.768 1.00961l1.2417 2.15063c.7617 1.31929.3097 3.00625-1.0096 3.76795-.5056.2919-.5056 1.0216 0 1.3135 1.3193.7617 1.7713 2.4486 1.0096 3.7679l-1.2417 2.1506c-.7617 1.3193-2.4486 1.7714-3.7679 1.0097-.5056-.2919-1.1375.0729-1.1375.6567 0 1.5234-1.235 2.7584-2.7584 2.7584h-2.4833c-1.52341 0-2.75835-1.235-2.75835-2.7584 0-.5838-.63196-.9486-1.13748-.6567-1.31928.7617-3.00624.3096-3.76793-1.0096l-1.24168-2.1507c-.76169-1.3193-.30967-3.0062 1.00962-3.7679.50555-.2919.50555-1.0216 0-1.3135-1.31929-.7617-1.77131-2.44866-1.00962-3.76795l1.24168-2.15065c.76169-1.31929 2.44867-1.77129 3.76794-1.0096.50555.29188 1.13747-.07298 1.13747-.6567zm2.75835-.7583c-.4188 0-.7583.3395-.7583.7583 0 2.12336-2.29867 3.45041-4.13752 2.38875-.3627-.20941-.82649-.08514-1.03589.27755l-1.24168 2.15065c-.2094.3627-.08513.82649.27757 1.0359 1.83889 1.06165 1.83889 3.71585 0 4.77755-.3627.2094-.48698.6732-.27757 1.0359l1.24168 2.1507c.2094.3627.67318.4869 1.03588.2775 1.83891-1.0617 4.13753.2655 4.13753 2.3888 0 .4189.3395.7584.7583.7584h2.4833c.4188 0 .7584-.3395.7584-.7584 0-2.1233 2.2985-3.4505 4.1375-2.3888.3627.2094.8265.0851 1.0359-.2776l1.2416-2.1506c.2094-.3627.0852-.8265-.2775-1.0359-1.8389-1.0617-1.8389-3.7159 0-4.77755.3627-.20941.4869-.6732.2775-1.0359l-1.2416-2.15063c-.2094-.36269-.6732-.48698-1.036-.27756-1.8388 1.06166-4.1374-.26537-4.1374-2.38875 0-.4188-.3396-.75831-.7584-.75831zm1.2417 6c-1.6569 0-3.00005 1.3431-3.00005 3s1.34315 3 3.00005 3c1.6568 0 3-1.3431 3-3s-1.3432-3-3-3zm-5.00005 3c0-2.76142 2.23858-5 5.00005-5 2.7614 0 5 2.23858 5 5 0 2.7614-2.2386 5-5 5-2.76147 0-5.00005-2.2386-5.00005-5z" fill-rule="evenodd"/></svg>