<svg  fill='currentColor'  viewBox="0 0 40 40"  xmlns="http://www.w3.org/2000/svg"><g clip-rule="evenodd"  fill-rule="evenodd"><path d="m6.32764 19.6443c-.05522.0552-.07764.1185-.07764.1724v5.5c0 .9596.79035 1.75 1.74998 1.75h2.16662c.143 0 .2501-.1071.2501-.25v-7c0-.1353-.1161-.25-.2501-.25h-3.66656c-.05392 0-.11719.0224-.1724.0776zm-2.57764.1724c0-1.5071 1.24307-2.75 2.75004-2.75h3.66656c1.5327 0 2.7501 1.2519 2.7501 2.75v7c0 1.5237-1.2264 2.75-2.7501 2.75h-2.16662c-2.34037 0-4.24998-1.9097-4.24998-4.25z"/><path d="m20 6.23334c-5.7596 0-10.41667 4.65706-10.41667 10.41666v1.6833c0 .6904-.55964 1.25-1.25 1.25-.69035 0-1.25-.5596-1.25-1.25v-1.6833c0-7.14035 5.77627-12.91666 12.91667-12.91666s12.9167 5.77631 12.9167 12.91666v1.6667c0 .6903-.5597 1.25-1.25 1.25-.6904 0-1.25-.5597-1.25-1.25v-1.6667c0-5.7596-4.6571-10.41666-10.4167-10.41666z"/><path d="m31.7462 27.0912c.6769.1359 1.1153.7948.9794 1.4716-.8817 4.3892-4.7521 7.6872-9.3923 7.6872h-1.6666c-.6904 0-1.25-.5596-1.25-1.25s.5596-1.25 1.25-1.25h1.6666c3.4265 0 6.2896-2.4354 6.9412-5.6795.136-.6768.7949-1.1153 1.4717-.9793z"/><path d="m29.661 19.6443c-.0552.0552-.0777.1185-.0777.1724v7c0 .1353.1161.25.2501.25h2.0833c1.0096 0 1.8333-.8237 1.8333-1.8334v-5.4166c0-.1353-.116-.25-.25-.25h-3.6666c-.0539 0-.1172.0224-.1724.0776zm-2.5777.1724c0-1.5071 1.2431-2.75 2.7501-2.75h3.6666c1.5326 0 2.75 1.2519 2.75 2.75v5.4166c0 2.3904-1.9429 4.3334-4.3333 4.3334h-2.0833c-1.5327 0-2.7501-1.252-2.7501-2.75z"/></g></svg>